<svg width="20" height="22" viewBox="0 0 20 22" fill="none" xmlns="http://www.w3.org/2000/svg">
<path d="M19 6V16C19 19 17.5 21 14 21H6C2.5 21 1 19 1 16V6C1 3 2.5 1 6 1H14C17.5 1 19 3 19 6Z" stroke="#EDC452" stroke-width="1.5" stroke-miterlimit="10" stroke-linecap="round" stroke-linejoin="round"/>
<path d="M11.25 13H15.5M7 17H15.5M13.5 1V8.86C13.5 9.3 12.98 9.52 12.66 9.23L10.34 7.09C10.248 7.00337 10.1264 6.95513 10 6.95513C9.87362 6.95513 9.75201 7.00337 9.66 7.09L7.34 9.23C7.02 9.52 6.5 9.3 6.5 8.86V1H13.5Z" stroke="#EDC452" stroke-width="1.5" stroke-miterlimit="10" stroke-linecap="round" stroke-linejoin="round"/>
</svg>
