<svg width="24" height="22" viewBox="0 0 24 22" fill="none" xmlns="http://www.w3.org/2000/svg">
<path d="M8.25 18.1731C8.66421 18.1731 9 17.8717 9 17.5C9 17.1283 8.66421 16.8269 8.25 16.8269C7.83579 16.8269 7.5 17.1283 7.5 17.5C7.5 17.8717 7.83579 18.1731 8.25 18.1731Z" stroke="#262522" stroke-width="1.5" stroke-linecap="round" stroke-linejoin="round"/>
<path d="M18.75 18.1731C19.1642 18.1731 19.5 17.8717 19.5 17.5C19.5 17.1283 19.1642 16.8269 18.75 16.8269C18.3358 16.8269 18 17.1283 18 17.5C18 17.8717 18.3358 18.1731 18.75 18.1731Z" stroke="#262522" stroke-width="1.5" stroke-linecap="round" stroke-linejoin="round"/>
<path d="M2.25 3.36536H5.25L7.5 14.8077H19.5" stroke="#262522" stroke-width="1.5" stroke-linecap="round" stroke-linejoin="round"/>
<path d="M7.5 12.1154H19.1925C19.2792 12.1155 19.3633 12.0885 19.4304 12.0392C19.4975 11.9899 19.5434 11.9212 19.5605 11.8449L20.9105 5.78723C20.9214 5.73838 20.92 5.68797 20.9066 5.63964C20.8931 5.59131 20.8679 5.54626 20.8327 5.50775C20.7975 5.46923 20.7532 5.43821 20.703 5.41692C20.6528 5.39563 20.598 5.38461 20.5425 5.38464H6" stroke="#262522" stroke-width="1.5" stroke-linecap="round" stroke-linejoin="round"/>
</svg>
