<svg width="18" height="22" viewBox="0 0 18 22" fill="none" xmlns="http://www.w3.org/2000/svg">
<path d="M0.816432 6.17483C1.38601 6.02492 1.92976 5.83029 2.49934 5.68038C3.06892 5.53048 3.61267 5.33584 4.18224 5.18594C4.34228 5.15319 4.36119 5.08263 4.32844 4.92259C4.0683 4.05877 3.83399 3.23968 3.57386 2.37586C3.54111 2.21583 3.56002 2.14526 3.72005 2.11252C4.24489 1.98844 4.69917 1.84546 5.19819 1.67665C5.35822 1.6439 5.38405 1.68863 5.39097 1.80393C5.62528 2.62302 5.88541 3.48684 6.11972 4.30592C6.14555 4.35066 6.17138 4.3954 6.1783 4.5107C6.58784 4.39354 7.04212 4.25056 7.45166 4.1334C7.4964 4.10758 7.48948 3.99228 7.50839 3.92171C7.30683 3.26266 7.1311 2.64835 6.97427 1.96347L6.79854 1.34916C6.74688 1.25969 6.76579 1.18912 6.88109 1.1822C7.40593 1.05813 7.90495 0.889317 8.47453 0.739414C8.51926 0.713586 8.54509 0.758321 8.58983 0.732493C8.79139 1.39154 8.96712 2.00586 9.14285 2.62017C9.22725 2.86968 9.31166 3.11918 9.35133 3.39452C9.38408 3.55456 9.45464 3.57346 9.61468 3.54071L11.4784 3.35942C12.0807 3.36955 12.69 3.49498 13.2614 3.76154C14.0514 4.20013 14.5094 4.89007 14.7437 5.70915C14.8936 6.27873 14.973 6.8294 14.8217 7.39391C14.7083 7.8173 14.4537 8.20287 14.1733 8.5437C14.1286 8.56953 14.1096 8.64009 14.0202 8.69175C14.2766 8.72264 14.5072 8.7088 14.7636 8.7397C15.5329 8.83238 16.1749 9.11785 16.7154 9.64084C17.089 10.0813 17.3542 10.6439 17.5041 11.2135C17.6868 11.9431 17.773 12.6091 17.6545 13.3336C17.4982 14.1993 17.0527 14.8741 16.3886 15.3768C15.5266 16.0534 14.5802 16.4805 13.608 16.8628C13.448 16.8956 13.3844 16.992 13.4171 17.152C13.6514 17.9711 13.9116 18.8349 14.1459 19.654C14.2044 19.8588 14.2303 19.9035 13.9549 19.9432C13.5007 20.0862 12.9758 20.2102 12.5215 20.3532C12.3615 20.386 12.3357 20.3412 12.3288 20.2259C12.0686 19.3621 11.8085 18.4983 11.6189 17.6534C11.5673 17.5639 11.5862 17.4933 11.4709 17.5003C11.0613 17.6174 10.6518 17.7346 10.1975 17.8775C10.3405 18.3318 10.4387 18.8119 10.5817 19.2662C10.7247 19.7205 10.8229 20.2006 10.9659 20.6549C10.9728 20.7702 10.9987 20.8149 10.8386 20.8477C10.3138 20.9717 9.81478 21.1405 9.31577 21.3094C9.15573 21.3421 9.1299 21.2974 9.12298 21.1821C8.86284 20.3182 8.60271 19.4544 8.41313 18.6095C8.38731 18.5648 8.40621 18.4942 8.35456 18.4047C7.17067 18.7304 5.98677 19.056 4.75815 19.4075C4.7443 19.1769 4.71156 19.0168 4.69772 18.7862C4.6442 18.2803 4.59069 17.7744 4.51828 17.339C4.48553 17.179 4.53026 17.1531 4.66447 17.0757C5.02928 16.9843 5.43882 16.8672 5.7778 16.7311C6.18734 16.614 6.35244 16.28 6.21638 15.9411C5.48071 13.3238 4.74503 10.7065 3.9388 8.07029C3.82164 7.66074 3.36551 7.38726 2.8854 7.48551C2.4053 7.58376 1.95102 7.72674 1.54148 7.84389C1.452 7.89555 1.38144 7.87664 1.37452 7.76134C1.22462 7.19176 1.04889 6.57745 0.898982 6.00787C0.797524 6.24539 0.797524 6.24539 0.816432 6.17483V6.17483ZM9.47752 15.9073C9.52226 15.8815 9.59282 15.9004 9.59282 15.9004C10.4119 15.6661 11.3016 15.4507 12.0879 15.0563C12.6506 14.7911 13.1426 14.507 13.5314 14.044C14.2264 13.2848 13.9386 11.9598 13.0333 11.5281C12.603 11.2994 12.1159 11.2824 11.6289 11.2653C10.5654 11.2828 9.52262 11.6463 8.52459 11.9839C8.36456 12.0167 8.39039 12.0614 8.42314 12.2214C8.59195 12.7205 8.69019 13.2006 8.859 13.6996C9.04165 14.4292 9.26904 15.133 9.47752 15.9073ZM10.6008 9.1747C10.6903 9.12305 10.8882 8.94917 11.0413 8.80112C11.788 8.13144 11.6671 6.88898 10.7807 6.38675C10.3245 6.11327 9.76693 6.07731 9.261 6.13082C8.47973 6.224 7.77594 6.45139 7.00159 6.65987C6.84156 6.69262 6.82265 6.76318 6.8554 6.92322C7.17411 7.99181 7.46699 9.01566 7.74097 10.1101C7.74789 10.2254 7.81846 10.2443 7.93376 10.2374C8.13853 10.1788 8.29856 10.146 8.50334 10.0875C9.22603 9.78951 9.88508 9.58796 10.6008 9.1747Z" fill="white"/>
</svg>
