<svg width="323" height="195" viewBox="0 0 323 195" fill="none" xmlns="http://www.w3.org/2000/svg">
<mask id="mask0_3862_5616" style="mask-type:luminance" maskUnits="userSpaceOnUse" x="0" y="0" width="323" height="195">
<path d="M304.714 0H17.9605C8.04117 0 0 8.04117 0 17.9605V176.235C0 186.154 8.04117 194.195 17.9605 194.195H304.714C314.634 194.195 322.675 186.154 322.675 176.235V17.9605C322.675 8.04117 314.634 0 304.714 0Z" fill="white"/>
</mask>
<g mask="url(#mask0_3862_5616)">
<path style="mix-blend-mode:multiply" d="M334.247 -24.6047C303.907 18.2228 266.864 60.3974 216.198 91.3837C186.57 109.482 153.769 121.481 124.053 125.352C99.4252 128.568 74.4026 126.805 50.4689 120.168C30.986 114.735 15.3354 107.188 1.45981 100.197C-7.32028 95.7704 -15.2145 91.6264 -22.8691 88.3126V97.7489C-20.1159 98.4816 -17.4159 99.4013 -14.788 100.502C-2.05748 105.869 10.9125 113.823 26.3466 122.636C43.8838 132.649 63.9639 143.559 89.287 152.195C116.306 161.401 149.051 167.537 185.684 164.768C223.869 161.861 266.418 147.965 302.667 125.471C313.664 118.616 324.212 111.066 334.247 102.867V-24.6047Z" fill="url(#paint0_linear_3862_5616)"/>
<path style="mix-blend-mode:multiply" d="M319.935 -25.6152C294.933 1.15813 265.565 26.2647 232.472 46.6926C201.479 65.8047 168.255 79.8705 136.902 87.5515C108.386 94.527 81.7439 96.2266 59.1046 94.8846C38.4767 93.6575 21.1002 90.1074 5.85975 86.6229C-4.28197 84.2999 -13.8266 82.118 -22.8691 80.6514V96.8992C-9.57761 101.758 3.85831 111.031 20.4571 120.372C34.5886 128.322 50.8527 136.239 71.1788 140.783C92.2432 145.485 118.426 145.839 145.245 138.716C174.86 130.842 205.499 113.997 232.669 92.1252C262.49 68.108 287.518 39.5464 309.465 9.7873C298.91 4.51138 314.213 -12.0186 319.935 -25.6152Z" fill="url(#paint1_linear_3862_5616)"/>
<path style="mix-blend-mode:multiply" d="M334.247 -37.801C306.991 -3.79951 273.787 28.4007 231.16 51.3451C203.408 66.2607 173.193 75.6741 145.695 78.7911C122.555 81.367 99.1487 80.13 76.4089 75.1294C40.8522 67.3763 17.6781 54.1668 -5.08258 49.5668C-10.9402 48.4369 -16.9269 48.1309 -22.8691 48.6579V88.8475C-17.2257 91.7315 -11.4249 95.1012 -5.19088 98.7497C7.84145 106.378 22.3536 115.027 40.6356 122.439C60.2956 130.399 84.1193 136.639 112.034 136.846C141.456 137.053 175.93 129.644 208.169 114.65C259.295 90.8424 300.304 53.2579 334.234 12.4384L334.247 -37.801Z" fill="#FFD47D"/>
<path style="mix-blend-mode:multiply" d="M334.246 -46.5122C318.026 -26.8184 300.079 -8.6138 280.617 7.88431C250.15 33.7226 215.19 55.9484 179.023 71.7762C146.039 86.2128 113.195 94.6451 84.5288 97.7162C62.511 100.103 40.2761 99.6085 18.3861 96.2463C2.30892 93.7822 -10.9268 90.301 -22.8633 87.8304V101.033C-11.4879 102.835 -0.319225 107.267 9.90781 113.232C22.1691 120.398 34.9127 128.876 51.0489 135.842C67.8446 143.087 88.5612 148.31 112.313 146.486C137.813 144.517 167.654 133.509 194.933 115.972C226.431 95.7016 254.707 68.4361 280.45 38.2832C300.464 14.8237 318.025 -9.23948 334.259 -33.0993L334.246 -46.5122Z" fill="url(#paint2_linear_3862_5616)"/>
<path style="mix-blend-mode:multiply" d="M334.247 65.0665C313.609 63.9181 296.16 62.2218 284.641 57.7169C274.387 53.7009 270.243 45.8724 272.537 37.5188C244.13 64.2987 211.217 87.2661 176.455 101.706C145.127 114.705 112.714 119.991 85.7106 118.787C60.3908 117.645 39.3625 111.589 21.6842 104.761C5.6071 98.5562 -7.41866 91.8595 -19.8145 86.9183C-20.8217 86.518 -21.8455 86.1505 -22.8691 85.7929V98.2248C-15.3228 100.345 -8.03982 103.31 -1.15846 107.064C13.3011 114.899 28.7844 124.893 48.2869 134.585C69.768 145.252 95.3897 155.233 126.917 158.927C159.58 162.74 199.406 158.242 236.199 142.923C273.275 127.459 306.863 102.129 334.247 72.9673V65.0665Z" fill="url(#paint3_linear_3862_5616)"/>
<path style="mix-blend-mode:multiply" d="M334.247 -24.8047C293.946 27.3181 241.767 77.236 178.502 98.6744C148.431 108.846 117.93 111.201 92.8961 107.96C69.0494 104.859 49.6387 97.4604 33.2466 89.5858C10.1349 78.4828 -6.28679 66.7825 -22.8594 62.0808V95.7083C-22.7347 95.7706 -22.6101 95.8264 -22.4854 95.892C-9.44976 102.454 4.23224 111.369 21.2543 120.71C40.5206 131.278 63.4421 142.145 92.7189 149.048C124.046 156.421 162.979 158.426 204.16 149.75C248.497 140.386 294.599 118.407 333.659 89.2085C333.863 89.0576 334.056 88.9001 334.257 88.7492L334.247 -24.8047Z" fill="#DEB96D"/>
</g>
<defs>
<linearGradient id="paint0_linear_3862_5616" x1="165.562" y1="-60.7886" x2="167.884" y2="169.062" gradientUnits="userSpaceOnUse">
<stop stop-color="white"/>
<stop offset="0.17" stop-color="#FFFEFC"/>
<stop offset="0.32" stop-color="#FDFAF1"/>
<stop offset="0.47" stop-color="#FBF3DF"/>
<stop offset="0.61" stop-color="#F8EAC5"/>
<stop offset="0.74" stop-color="#F5DEA5"/>
<stop offset="0.88" stop-color="#F0CF7D"/>
<stop offset="1" stop-color="#EBBF50"/>
</linearGradient>
<linearGradient id="paint1_linear_3862_5616" x1="147.968" y1="7.35453" x2="171.593" y2="135.976" gradientUnits="userSpaceOnUse">
<stop stop-color="white"/>
<stop offset="0.17" stop-color="#FFFEFC"/>
<stop offset="0.32" stop-color="#FDFAF1"/>
<stop offset="0.47" stop-color="#FBF3DF"/>
<stop offset="0.61" stop-color="#F8EAC5"/>
<stop offset="0.74" stop-color="#F5DEA5"/>
<stop offset="0.88" stop-color="#F0CF7D"/>
<stop offset="1" stop-color="#EBBF50"/>
</linearGradient>
<linearGradient id="paint2_linear_3862_5616" x1="126.461" y1="-72.3204" x2="182.675" y2="128.446" gradientUnits="userSpaceOnUse">
<stop stop-color="white"/>
<stop offset="0.17" stop-color="#FFFEFC"/>
<stop offset="0.32" stop-color="#FDFAF1"/>
<stop offset="0.47" stop-color="#FBF3DF"/>
<stop offset="0.61" stop-color="#F8EAC5"/>
<stop offset="0.74" stop-color="#F5DEA5"/>
<stop offset="0.88" stop-color="#F0CF7D"/>
<stop offset="1" stop-color="#EBBF50"/>
</linearGradient>
<linearGradient id="paint3_linear_3862_5616" x1="153.376" y1="39.5258" x2="158.118" y2="162.797" gradientUnits="userSpaceOnUse">
<stop stop-color="white"/>
<stop offset="0.17" stop-color="#FFFEFC"/>
<stop offset="0.32" stop-color="#FDFAF1"/>
<stop offset="0.47" stop-color="#FBF3DF"/>
<stop offset="0.61" stop-color="#F8EAC5"/>
<stop offset="0.74" stop-color="#F5DEA5"/>
<stop offset="0.88" stop-color="#F0CF7D"/>
<stop offset="1" stop-color="#EBBF50"/>
</linearGradient>
</defs>
</svg>
