<svg width="138" height="35" viewBox="0 0 138 35" fill="none" xmlns="http://www.w3.org/2000/svg">
<path d="M48.032 26.24C46.752 26.24 45.56 26.032 44.456 25.616C43.368 25.184 42.416 24.584 41.6 23.816C40.8 23.032 40.176 22.112 39.728 21.056C39.28 20 39.056 18.848 39.056 17.6C39.056 16.352 39.28 15.2 39.728 14.144C40.176 13.088 40.808 12.176 41.624 11.408C42.44 10.624 43.392 10.024 44.48 9.608C45.568 9.176 46.76 8.96 48.056 8.96C49.432 8.96 50.688 9.2 51.824 9.68C52.96 10.144 53.92 10.84 54.704 11.768L52.688 13.664C52.08 13.008 51.4 12.52 50.648 12.2C49.896 11.864 49.08 11.696 48.2 11.696C47.32 11.696 46.512 11.84 45.776 12.128C45.056 12.416 44.424 12.824 43.88 13.352C43.352 13.88 42.936 14.504 42.632 15.224C42.344 15.944 42.2 16.736 42.2 17.6C42.2 18.464 42.344 19.256 42.632 19.976C42.936 20.696 43.352 21.32 43.88 21.848C44.424 22.376 45.056 22.784 45.776 23.072C46.512 23.36 47.32 23.504 48.2 23.504C49.08 23.504 49.896 23.344 50.648 23.024C51.4 22.688 52.08 22.184 52.688 21.512L54.704 23.432C53.92 24.344 52.96 25.04 51.824 25.52C50.688 26 49.424 26.24 48.032 26.24ZM64.6775 13.04C65.7015 13.04 66.6135 13.24 67.4135 13.64C68.2295 14.04 68.8695 14.656 69.3335 15.488C69.7975 16.304 70.0295 17.36 70.0295 18.656V26H67.0295V19.04C67.0295 17.904 66.7575 17.056 66.2135 16.496C65.6855 15.936 64.9415 15.656 63.9815 15.656C63.2775 15.656 62.6535 15.8 62.1095 16.088C61.5655 16.376 61.1415 16.808 60.8375 17.384C60.5495 17.944 60.4055 18.656 60.4055 19.52V26H57.4055V8.192H60.4055V16.64L59.7575 15.584C60.2055 14.768 60.8535 14.144 61.7015 13.712C62.5655 13.264 63.5575 13.04 64.6775 13.04ZM73.8352 26V13.184H76.6912V16.712L76.3552 15.68C76.7392 14.816 77.3392 14.16 78.1552 13.712C78.9872 13.264 80.0192 13.04 81.2512 13.04V15.896C81.1232 15.864 81.0032 15.848 80.8912 15.848C80.7792 15.832 80.6672 15.824 80.5552 15.824C79.4192 15.824 78.5152 16.16 77.8432 16.832C77.1712 17.488 76.8352 18.472 76.8352 19.784V26H73.8352ZM85.3209 30.824C84.6969 30.824 84.0729 30.72 83.4489 30.512C82.8249 30.304 82.3049 30.016 81.8889 29.648L83.0889 27.44C83.3929 27.712 83.7369 27.928 84.1209 28.088C84.5049 28.248 84.8969 28.328 85.2969 28.328C85.8409 28.328 86.2809 28.192 86.6169 27.92C86.9529 27.648 87.2649 27.192 87.5529 26.552L88.2969 24.872L88.5369 24.512L93.3849 13.184H96.2649L90.2649 27.032C89.8649 27.992 89.4169 28.752 88.9209 29.312C88.4409 29.872 87.8969 30.264 87.2889 30.488C86.6969 30.712 86.0409 30.824 85.3209 30.824ZM87.9609 26.456L82.1769 13.184H85.2969L90.0009 24.248L87.9609 26.456ZM101.936 26.168C100.864 26.168 99.8318 26.032 98.8398 25.76C97.8638 25.472 97.0878 25.128 96.5118 24.728L97.6638 22.448C98.2398 22.816 98.9278 23.12 99.7278 23.36C100.528 23.6 101.328 23.72 102.128 23.72C103.072 23.72 103.752 23.592 104.168 23.336C104.6 23.08 104.816 22.736 104.816 22.304C104.816 21.952 104.672 21.688 104.384 21.512C104.096 21.32 103.72 21.176 103.256 21.08C102.792 20.984 102.272 20.896 101.696 20.816C101.136 20.736 100.568 20.632 99.9918 20.504C99.4318 20.36 98.9198 20.16 98.4558 19.904C97.9918 19.632 97.6158 19.272 97.3278 18.824C97.0398 18.376 96.8958 17.784 96.8958 17.048C96.8958 16.232 97.1278 15.528 97.5918 14.936C98.0558 14.328 98.7038 13.864 99.5358 13.544C100.384 13.208 101.384 13.04 102.536 13.04C103.4 13.04 104.272 13.136 105.152 13.328C106.032 13.52 106.76 13.792 107.336 14.144L106.184 16.424C105.576 16.056 104.96 15.808 104.336 15.68C103.728 15.536 103.12 15.464 102.512 15.464C101.6 15.464 100.92 15.6 100.472 15.872C100.04 16.144 99.8238 16.488 99.8238 16.904C99.8238 17.288 99.9678 17.576 100.256 17.768C100.544 17.96 100.92 18.112 101.384 18.224C101.848 18.336 102.36 18.432 102.92 18.512C103.496 18.576 104.064 18.68 104.624 18.824C105.184 18.968 105.696 19.168 106.16 19.424C106.64 19.664 107.024 20.008 107.312 20.456C107.6 20.904 107.744 21.488 107.744 22.208C107.744 23.008 107.504 23.704 107.024 24.296C106.56 24.888 105.896 25.352 105.032 25.688C104.168 26.008 103.136 26.168 101.936 26.168ZM115.751 26.168C114.663 26.168 113.703 25.968 112.871 25.568C112.039 25.152 111.391 24.528 110.927 23.696C110.463 22.848 110.231 21.784 110.231 20.504V13.184H113.231V20.096C113.231 21.248 113.487 22.112 113.999 22.688C114.527 23.248 115.271 23.528 116.231 23.528C116.935 23.528 117.543 23.384 118.055 23.096C118.583 22.808 118.991 22.376 119.279 21.8C119.583 21.224 119.735 20.512 119.735 19.664V13.184H122.735V26H119.879V22.544L120.383 23.6C119.951 24.432 119.319 25.072 118.487 25.52C117.655 25.952 116.743 26.168 115.751 26.168ZM130.623 26.168C129.551 26.168 128.519 26.032 127.527 25.76C126.551 25.472 125.775 25.128 125.199 24.728L126.351 22.448C126.927 22.816 127.615 23.12 128.415 23.36C129.215 23.6 130.015 23.72 130.815 23.72C131.759 23.72 132.439 23.592 132.855 23.336C133.287 23.08 133.503 22.736 133.503 22.304C133.503 21.952 133.359 21.688 133.071 21.512C132.783 21.32 132.407 21.176 131.943 21.08C131.479 20.984 130.959 20.896 130.383 20.816C129.823 20.736 129.255 20.632 128.679 20.504C128.119 20.36 127.607 20.16 127.143 19.904C126.679 19.632 126.303 19.272 126.015 18.824C125.727 18.376 125.583 17.784 125.583 17.048C125.583 16.232 125.815 15.528 126.279 14.936C126.743 14.328 127.391 13.864 128.223 13.544C129.071 13.208 130.071 13.04 131.223 13.04C132.087 13.04 132.959 13.136 133.839 13.328C134.719 13.52 135.447 13.792 136.023 14.144L134.871 16.424C134.263 16.056 133.647 15.808 133.023 15.68C132.415 15.536 131.807 15.464 131.199 15.464C130.287 15.464 129.607 15.6 129.159 15.872C128.727 16.144 128.511 16.488 128.511 16.904C128.511 17.288 128.655 17.576 128.943 17.768C129.231 17.96 129.607 18.112 130.071 18.224C130.535 18.336 131.047 18.432 131.607 18.512C132.183 18.576 132.751 18.68 133.311 18.824C133.871 18.968 134.383 19.168 134.847 19.424C135.327 19.664 135.711 20.008 135.999 20.456C136.287 20.904 136.431 21.488 136.431 22.208C136.431 23.008 136.191 23.704 135.711 24.296C135.247 24.888 134.583 25.352 133.719 25.688C132.855 26.008 131.823 26.168 130.623 26.168Z" fill="#EDC452"/>
<g filter="url(#filter0_d_682_10415)">
<path d="M25 29.2335H23.243C22.9813 28.1394 22.5514 27.1598 21.9533 26.2946C21.0062 27.2997 19.9221 28.1648 18.7009 28.89C18.5875 28.9574 18.4704 29.0216 18.3496 29.0827C18.1244 29.1965 17.8864 29.2995 17.6355 29.3916C16.5712 29.7824 15.2753 29.9778 13.7477 29.9778C12.3879 29.9778 11.0857 29.7765 9.84112 29.3739C9.57049 29.2863 9.30257 29.1892 9.03738 29.0827C8.47693 28.8574 7.92864 28.5896 7.39252 28.2793C5.4486 27.147 3.8972 25.5694 2.73832 23.5466C1.57944 21.511 1 19.2209 1 16.6764C1 14.8698 1.31153 13.1459 1.93458 11.5047C2.57009 9.86355 3.46729 8.41955 4.62617 7.17274C5.79751 5.92594 7.18692 4.94631 8.79439 4.23385C8.87502 4.19839 8.95602 4.16381 9.03738 4.13012C9.3014 4.02079 9.56931 3.92075 9.84112 3.83C11.1687 3.38677 12.5892 3.16516 14.1028 3.16516C15.368 3.16516 16.5455 3.33389 17.6355 3.67133C17.9007 3.75343 18.1607 3.84552 18.4155 3.9476C19.7335 4.47556 20.9128 5.27071 21.9533 6.33306C22.2274 5.78599 22.4953 4.99084 22.757 3.9476H24.4393L24.7383 13.4704H22.9439C22.6199 11.8546 22.0343 10.417 21.1869 9.15745C20.3396 7.89793 19.3302 6.93738 18.1589 6.27581C17 5.60152 15.785 5.26437 14.514 5.26437C13.0935 5.26437 11.8162 5.66513 10.6822 6.46665C9.54829 7.25544 8.65732 8.46407 8.00935 10.0926C7.37383 11.721 7.05607 13.7503 7.05607 16.1803C7.05607 18.5466 7.32399 20.5186 7.85981 22.0962C8.39564 23.6611 9.05608 24.8443 9.84112 25.6458C10.6386 26.4473 11.4361 26.9944 12.2336 27.287C13.0312 27.5669 13.7788 27.7068 14.4766 27.7068C16.0093 27.7068 17.3863 27.287 18.6075 26.4473C19.8411 25.6076 20.8505 24.5516 21.6355 23.2794C22.4206 21.9944 22.9439 20.7222 23.2056 19.4627H25V29.2335Z" fill="url(#paint0_linear_682_10415)"/>
<path d="M11.6355 32.8819H9.84112V29.3739V29.0206H11.6355V32.8819Z" fill="url(#paint1_linear_682_10415)"/>
<path d="M17.6355 32.8819H15.8411V29.0206H17.6355V29.3916V32.8819Z" fill="url(#paint2_linear_682_10415)"/>
<path d="M11.6355 3.97937H9.84112V3.83V0.118102H11.6355V3.97937Z" fill="url(#paint3_linear_682_10415)"/>
<path d="M17.6355 3.97937H15.8411V0.118102H17.6355V3.67133V3.97937Z" fill="url(#paint4_linear_682_10415)"/>
<path d="M9.84112 3.83V0.118102C9.57944 1.16134 9.31153 -0.428965 9.03738 0.118101V4.13012C9.3014 4.02079 9.56931 3.92075 9.84112 3.83Z" fill="url(#paint5_linear_682_10415)"/>
<path d="M17.6355 0.118102V3.67133C17.9007 3.75343 18.1607 3.84552 18.4155 3.9476L18.4393 0.118101C18.1651 -0.428965 17.8972 1.16134 17.6355 0.118102Z" fill="url(#paint6_linear_682_10415)"/>
<path d="M17.6355 29.3916V32.8819C17.8972 31.8387 18.1651 33.429 18.4393 32.8819L18.3496 29.0827C18.1244 29.1965 17.8864 29.2995 17.6355 29.3916Z" fill="url(#paint7_linear_682_10415)"/>
<path d="M9.84112 32.8819V29.3739C9.57049 29.2863 9.30257 29.1892 9.03738 29.0827V32.8819C9.31153 33.429 9.57944 31.8387 9.84112 32.8819Z" fill="url(#paint8_linear_682_10415)"/>
</g>
<defs>
<filter id="filter0_d_682_10415" x="0" y="0" width="26" height="35" filterUnits="userSpaceOnUse" color-interpolation-filters="sRGB">
<feFlood flood-opacity="0" result="BackgroundImageFix"/>
<feColorMatrix in="SourceAlpha" type="matrix" values="0 0 0 0 0 0 0 0 0 0 0 0 0 0 0 0 0 0 127 0" result="hardAlpha"/>
<feOffset dy="1"/>
<feGaussianBlur stdDeviation="0.5"/>
<feComposite in2="hardAlpha" operator="out"/>
<feColorMatrix type="matrix" values="0 0 0 0 0 0 0 0 0 0 0 0 0 0 0 0 0 0 0.4 0"/>
<feBlend mode="normal" in2="BackgroundImageFix" result="effect1_dropShadow_682_10415"/>
<feBlend mode="normal" in="SourceGraphic" in2="effect1_dropShadow_682_10415" result="shape"/>
</filter>
<linearGradient id="paint0_linear_682_10415" x1="25" y1="10.166" x2="6.31704" y2="28.6713" gradientUnits="userSpaceOnUse">
<stop stop-color="#EDC452"/>
<stop offset="0.50165" stop-color="#F3E0AA"/>
<stop offset="1" stop-color="#EDC452"/>
</linearGradient>
<linearGradient id="paint1_linear_682_10415" x1="25" y1="10.166" x2="6.31704" y2="28.6713" gradientUnits="userSpaceOnUse">
<stop stop-color="#EDC452"/>
<stop offset="0.50165" stop-color="#F3E0AA"/>
<stop offset="1" stop-color="#EDC452"/>
</linearGradient>
<linearGradient id="paint2_linear_682_10415" x1="25" y1="10.166" x2="6.31704" y2="28.6713" gradientUnits="userSpaceOnUse">
<stop stop-color="#EDC452"/>
<stop offset="0.50165" stop-color="#F3E0AA"/>
<stop offset="1" stop-color="#EDC452"/>
</linearGradient>
<linearGradient id="paint3_linear_682_10415" x1="25" y1="10.166" x2="6.31704" y2="28.6713" gradientUnits="userSpaceOnUse">
<stop stop-color="#EDC452"/>
<stop offset="0.50165" stop-color="#F3E0AA"/>
<stop offset="1" stop-color="#EDC452"/>
</linearGradient>
<linearGradient id="paint4_linear_682_10415" x1="25" y1="10.166" x2="6.31704" y2="28.6713" gradientUnits="userSpaceOnUse">
<stop stop-color="#EDC452"/>
<stop offset="0.50165" stop-color="#F3E0AA"/>
<stop offset="1" stop-color="#EDC452"/>
</linearGradient>
<linearGradient id="paint5_linear_682_10415" x1="25" y1="10.166" x2="6.31704" y2="28.6713" gradientUnits="userSpaceOnUse">
<stop stop-color="#EDC452"/>
<stop offset="0.50165" stop-color="#F3E0AA"/>
<stop offset="1" stop-color="#EDC452"/>
</linearGradient>
<linearGradient id="paint6_linear_682_10415" x1="25" y1="10.166" x2="6.31704" y2="28.6713" gradientUnits="userSpaceOnUse">
<stop stop-color="#EDC452"/>
<stop offset="0.50165" stop-color="#F3E0AA"/>
<stop offset="1" stop-color="#EDC452"/>
</linearGradient>
<linearGradient id="paint7_linear_682_10415" x1="25" y1="10.166" x2="6.31704" y2="28.6713" gradientUnits="userSpaceOnUse">
<stop stop-color="#EDC452"/>
<stop offset="0.50165" stop-color="#F3E0AA"/>
<stop offset="1" stop-color="#EDC452"/>
</linearGradient>
<linearGradient id="paint8_linear_682_10415" x1="25" y1="10.166" x2="6.31704" y2="28.6713" gradientUnits="userSpaceOnUse">
<stop stop-color="#EDC452"/>
<stop offset="0.50165" stop-color="#F3E0AA"/>
<stop offset="1" stop-color="#EDC452"/>
</linearGradient>
</defs>
</svg>
