<svg width="100" height="100" viewBox="0 0 100 100" fill="none" xmlns="http://www.w3.org/2000/svg">
<circle r="48" transform="matrix(-1 0 0 1 50.0001 50)" stroke="url(#paint0_linear_1828_5539)" stroke-width="2.28571" stroke-linecap="round"/>
<g filter="url(#filter0_i_1828_5539)">
<circle r="46.8571" transform="matrix(-1 0 0 1 50.0001 50)" fill="url(#paint1_linear_1828_5539)"/>
</g>
<path d="M50.0001 6.57129V93.4284" stroke="url(#paint2_linear_1828_5539)" stroke-width="0.571429" stroke-dasharray="0.57 0.57"/>
<path d="M47.1598 6.66431L52.8405 93.3355" stroke="url(#paint3_linear_1828_5539)" stroke-width="0.571429" stroke-dasharray="0.57 0.57"/>
<path d="M44.3315 6.94287L55.6687 93.0569" stroke="url(#paint4_linear_1828_5539)" stroke-width="0.571429" stroke-dasharray="0.57 0.57"/>
<path d="M41.5276 7.40576L58.4726 92.594" stroke="url(#paint5_linear_1828_5539)" stroke-width="0.571429" stroke-dasharray="0.57 0.57"/>
<path d="M38.76 8.05103L61.2402 91.9486" stroke="url(#paint6_linear_1828_5539)" stroke-width="0.571429" stroke-dasharray="0.57 0.57"/>
<path d="M36.0404 8.87598L63.9598 91.1236" stroke="url(#paint7_linear_1828_5539)" stroke-width="0.571429" stroke-dasharray="0.57 0.57"/>
<path d="M33.3807 9.8772L66.6195 90.1227" stroke="url(#paint8_linear_1828_5539)" stroke-width="0.571429" stroke-dasharray="0.57 0.57"/>
<path d="M30.7922 11.05L69.2081 88.9498" stroke="url(#paint9_linear_1828_5539)" stroke-width="0.571429" stroke-dasharray="0.57 0.57"/>
<path d="M28.2858 12.3896L71.7144 87.6101" stroke="url(#paint10_linear_1828_5539)" stroke-width="0.571429" stroke-dasharray="0.57 0.57"/>
<path d="M25.8725 13.8904L74.1277 86.1094" stroke="url(#paint11_linear_1828_5539)" stroke-width="0.571429" stroke-dasharray="0.57 0.57"/>
<path d="M23.5625 15.5457L76.4378 84.4541" stroke="url(#paint12_linear_1828_5539)" stroke-width="0.571429" stroke-dasharray="0.57 0.57"/>
<path d="M21.3657 17.3484L78.6346 82.651" stroke="url(#paint13_linear_1828_5539)" stroke-width="0.571429" stroke-dasharray="0.57 0.57"/>
<path d="M19.2915 19.2913L80.7088 80.7085" stroke="url(#paint14_linear_1828_5539)" stroke-width="0.571429" stroke-dasharray="0.57 0.57"/>
<path d="M17.3488 21.3655L82.6515 78.6344" stroke="url(#paint15_linear_1828_5539)" stroke-width="0.571429" stroke-dasharray="0.57 0.57"/>
<path d="M15.546 23.5623L84.4544 76.4375" stroke="url(#paint16_linear_1828_5539)" stroke-width="0.571429" stroke-dasharray="0.57 0.57"/>
<path d="M13.8906 25.8723L86.1097 74.1276" stroke="url(#paint17_linear_1828_5539)" stroke-width="0.571429" stroke-dasharray="0.57 0.57"/>
<path d="M12.3899 28.2856L87.6104 71.7142" stroke="url(#paint18_linear_1828_5539)" stroke-width="0.571429" stroke-dasharray="0.57 0.57"/>
<path d="M11.0502 30.7917L88.95 69.2077" stroke="url(#paint19_linear_1828_5539)" stroke-width="0.571429" stroke-dasharray="0.57 0.57"/>
<path d="M9.87736 33.3804L90.1229 66.6192" stroke="url(#paint20_linear_1828_5539)" stroke-width="0.571429" stroke-dasharray="0.57 0.57"/>
<path d="M8.87631 36.0403L91.124 63.9596" stroke="url(#paint21_linear_1828_5539)" stroke-width="0.571429" stroke-dasharray="0.57 0.57"/>
<path d="M8.05133 38.7598L91.9489 61.24" stroke="url(#paint22_linear_1828_5539)" stroke-width="0.571429" stroke-dasharray="0.57 0.57"/>
<path d="M7.40603 41.5273L92.5942 58.4723" stroke="url(#paint23_linear_1828_5539)" stroke-width="0.571429" stroke-dasharray="0.57 0.57"/>
<path d="M6.94307 44.3313L93.0571 55.6684" stroke="url(#paint24_linear_1828_5539)" stroke-width="0.571429" stroke-dasharray="0.57 0.57"/>
<path d="M6.66454 47.1594L93.3357 52.8402" stroke="url(#paint25_linear_1828_5539)" stroke-width="0.571429" stroke-dasharray="0.57 0.57"/>
<path d="M6.57156 49.9998L93.4287 49.9998" stroke="url(#paint26_linear_1828_5539)" stroke-width="0.571429" stroke-dasharray="0.57 0.57"/>
<path d="M6.66454 52.8403L93.3357 47.1596" stroke="url(#paint27_linear_1828_5539)" stroke-width="0.571429" stroke-dasharray="0.57 0.57"/>
<path d="M6.94307 55.6685L93.0571 44.3313" stroke="url(#paint28_linear_1828_5539)" stroke-width="0.571429" stroke-dasharray="0.57 0.57"/>
<path d="M7.40603 58.4724L92.5942 41.5274" stroke="url(#paint29_linear_1828_5539)" stroke-width="0.571429" stroke-dasharray="0.57 0.57"/>
<path d="M8.05133 61.24L91.9489 38.7597" stroke="url(#paint30_linear_1828_5539)" stroke-width="0.571429" stroke-dasharray="0.57 0.57"/>
<path d="M8.87631 63.9595L91.124 36.0402" stroke="url(#paint31_linear_1828_5539)" stroke-width="0.571429" stroke-dasharray="0.57 0.57"/>
<path d="M9.87736 66.6194L90.1229 33.3806" stroke="url(#paint32_linear_1828_5539)" stroke-width="0.571429" stroke-dasharray="0.57 0.57"/>
<path d="M11.0502 69.2078L88.95 30.7918" stroke="url(#paint33_linear_1828_5539)" stroke-width="0.571429" stroke-dasharray="0.57 0.57"/>
<path d="M12.3899 71.7141L87.6104 28.2855" stroke="url(#paint34_linear_1828_5539)" stroke-width="0.571429" stroke-dasharray="0.57 0.57"/>
<path d="M13.8906 74.1274L86.1097 25.8722" stroke="url(#paint35_linear_1828_5539)" stroke-width="0.571429" stroke-dasharray="0.57 0.57"/>
<path d="M15.546 76.4375L84.4544 23.5622" stroke="url(#paint36_linear_1828_5539)" stroke-width="0.571429" stroke-dasharray="0.57 0.57"/>
<path d="M17.3488 78.6343L82.6515 21.3654" stroke="url(#paint37_linear_1828_5539)" stroke-width="0.571429" stroke-dasharray="0.57 0.57"/>
<path d="M19.2915 80.7085L80.7088 19.2912" stroke="url(#paint38_linear_1828_5539)" stroke-width="0.571429" stroke-dasharray="0.57 0.57"/>
<path d="M21.3657 82.6511L78.6346 17.3485" stroke="url(#paint39_linear_1828_5539)" stroke-width="0.571429" stroke-dasharray="0.57 0.57"/>
<path d="M23.5625 84.4541L76.4378 15.5457" stroke="url(#paint40_linear_1828_5539)" stroke-width="0.571429" stroke-dasharray="0.57 0.57"/>
<path d="M25.8725 86.1094L74.1277 13.8903" stroke="url(#paint41_linear_1828_5539)" stroke-width="0.571429" stroke-dasharray="0.57 0.57"/>
<path d="M28.2858 87.6101L71.7144 12.3896" stroke="url(#paint42_linear_1828_5539)" stroke-width="0.571429" stroke-dasharray="0.57 0.57"/>
<path d="M30.7922 88.9497L69.2081 11.0499" stroke="url(#paint43_linear_1828_5539)" stroke-width="0.571429" stroke-dasharray="0.57 0.57"/>
<path d="M33.3807 90.1226L66.6195 9.87703" stroke="url(#paint44_linear_1828_5539)" stroke-width="0.571429" stroke-dasharray="0.57 0.57"/>
<path d="M36.0404 91.1238L63.9598 8.87614" stroke="url(#paint45_linear_1828_5539)" stroke-width="0.571429" stroke-dasharray="0.57 0.57"/>
<path d="M38.76 91.9487L61.2402 8.05118" stroke="url(#paint46_linear_1828_5539)" stroke-width="0.571429" stroke-dasharray="0.57 0.57"/>
<path d="M41.5276 92.594L58.4726 7.40579" stroke="url(#paint47_linear_1828_5539)" stroke-width="0.571429" stroke-dasharray="0.57 0.57"/>
<path d="M44.3315 93.0569L55.6687 6.94282" stroke="url(#paint48_linear_1828_5539)" stroke-width="0.571429" stroke-dasharray="0.57 0.57"/>
<path d="M47.1598 93.3354L52.8405 6.66428" stroke="url(#paint49_linear_1828_5539)" stroke-width="0.571429" stroke-dasharray="0.57 0.57"/>
<circle r="43.4286" transform="matrix(-1 0 0 1 50.0001 50.0001)" stroke="url(#paint50_linear_1828_5539)" stroke-width="2.28571" stroke-linecap="round" stroke-dasharray="2.29 2.29"/>
<path d="M50.3994 20.7428L63.1994 28.0571V42.6857L50.3994 50L37.5994 42.6857V28.0571L50.3994 20.7428Z" fill="url(#paint51_linear_1828_5539)"/>
<path d="M63.1994 42.6857L75.9994 50V64.6285L63.1994 71.9428L50.3994 64.6285L50.3994 50L63.1994 42.6857Z" fill="url(#paint52_linear_1828_5539)"/>
<path d="M37.5994 42.6857L50.3994 50L50.3994 64.6285L37.5993 71.9428L24.7993 64.6285L24.7993 50L37.5994 42.6857Z" fill="url(#paint53_linear_1828_5539)"/>
<path d="M52.6851 13.4285C52.6851 13.8413 52.5757 14.2285 52.3842 14.5628C51.9903 15.2507 51.2489 15.7143 50.3994 15.7143C49.5498 15.7143 48.8084 15.2507 48.4145 14.5628C48.2231 14.2285 48.1136 13.8413 48.1136 13.4285C48.1136 12.1662 49.137 11.1428 50.3994 11.1428C51.6617 11.1428 52.6851 12.1662 52.6851 13.4285Z" fill="url(#paint54_linear_1828_5539)"/>
<path d="M84.6851 31.7143C84.6851 32.9766 83.6617 34 82.3994 34C81.5498 34 80.8084 33.5364 80.4145 32.8485C80.223 32.5142 80.1136 32.127 80.1136 31.7143C80.1136 31.3015 80.2231 30.9143 80.4145 30.58C80.8084 29.8921 81.5498 29.4285 82.3994 29.4285C83.6617 29.4285 84.6851 30.4519 84.6851 31.7143Z" fill="url(#paint55_linear_1828_5539)"/>
<path d="M84.6851 68.2857C84.6851 69.548 83.6617 70.5714 82.3994 70.5714C81.5498 70.5714 80.8084 70.1079 80.4145 69.4199C80.223 69.0857 80.1136 68.6984 80.1136 68.2857C80.1136 67.8729 80.223 67.4857 80.4145 67.1515C80.8084 66.4635 81.5498 66 82.3994 66C83.6617 66 84.6851 67.0233 84.6851 68.2857Z" fill="url(#paint56_linear_1828_5539)"/>
<path d="M52.6851 86.5714C52.6851 87.8338 51.6617 88.8571 50.3994 88.8571C49.137 88.8571 48.1136 87.8338 48.1136 86.5714C48.1136 86.1586 48.2231 85.7714 48.4145 85.4372C48.8084 84.7492 49.5498 84.2857 50.3994 84.2857C51.2489 84.2857 51.9903 84.7492 52.3842 85.4372C52.5757 85.7714 52.6851 86.1586 52.6851 86.5714Z" fill="url(#paint57_linear_1828_5539)"/>
<path d="M20.6851 68.2857C20.6851 68.6984 20.5757 69.0857 20.3842 69.4199C19.9903 70.1079 19.2489 70.5714 18.3994 70.5714C17.137 70.5714 16.1136 69.548 16.1136 68.2857C16.1136 67.0233 17.137 66 18.3994 66C19.2489 66 19.9903 66.4635 20.3842 67.1515C20.5757 67.4857 20.6851 67.8729 20.6851 68.2857Z" fill="url(#paint58_linear_1828_5539)"/>
<path d="M20.6851 31.7143C20.6851 32.127 20.5757 32.5142 20.3842 32.8485C19.9903 33.5364 19.2489 34 18.3994 34C17.137 34 16.1136 32.9766 16.1136 31.7143C16.1136 30.4519 17.137 29.4285 18.3994 29.4285C19.2489 29.4285 19.9903 29.8921 20.3842 30.58C20.5757 30.9143 20.6851 31.3015 20.6851 31.7143Z" fill="url(#paint59_linear_1828_5539)"/>
<path d="M63.1994 42.6857L75.9994 50V64.6285L80.4145 67.1515C80.8084 66.4635 81.5498 66 82.3994 66V34C81.5498 34 80.8084 33.5364 80.4145 32.8485L63.1994 42.6857Z" fill="url(#paint60_linear_1828_5539)"/>
<path d="M75.9994 64.6285L63.1994 71.9428L50.3994 64.6285L50.3994 84.2857C51.2489 84.2857 51.9903 84.7492 52.3842 85.4372L80.4145 69.4199C80.223 69.0857 80.1136 68.6984 80.1136 68.2857C80.1136 67.8729 80.223 67.4857 80.4145 67.1515L75.9994 64.6285Z" fill="url(#paint61_linear_1828_5539)"/>
<path d="M50.3994 64.6285L37.5993 71.9428L24.7993 64.6285L20.3842 67.1515C20.5757 67.4857 20.6851 67.8729 20.6851 68.2857C20.6851 68.6984 20.5757 69.0857 20.3842 69.4199L48.4145 85.4372C48.8084 84.7492 49.5498 84.2857 50.3994 84.2857L50.3994 64.6285Z" fill="url(#paint62_linear_1828_5539)"/>
<path d="M24.7993 50L37.5994 42.6857L20.3842 32.8485C19.9903 33.5364 19.2489 34 18.3994 34V66C19.2489 66 19.9903 66.4635 20.3842 67.1515L24.7993 64.6285L24.7993 50Z" fill="url(#paint63_linear_1828_5539)"/>
<path d="M37.5994 42.6857V28.0571L50.3994 20.7428L50.3994 15.7143C49.5498 15.7143 48.8084 15.2507 48.4145 14.5628L20.3842 30.58C20.5757 30.9143 20.6851 31.3015 20.6851 31.7143C20.6851 32.127 20.5757 32.5142 20.3842 32.8485L37.5994 42.6857Z" fill="url(#paint64_linear_1828_5539)"/>
<path d="M50.3994 20.7428L63.1994 28.0571V42.6857L80.4145 32.8485C80.223 32.5142 80.1136 32.127 80.1136 31.7143C80.1136 31.3015 80.2231 30.9143 80.4145 30.58L52.3842 14.5628C51.9903 15.2507 51.2489 15.7143 50.3994 15.7143L50.3994 20.7428Z" fill="url(#paint65_linear_1828_5539)"/>
<path d="M50.3994 20.7428L63.1994 28.0571M50.3994 20.7428L37.5994 28.0571M50.3994 20.7428L50.3994 15.7143M63.1994 28.0571V42.6857M63.1994 28.0571L50.3994 35.3714M63.1994 42.6857L50.3994 50M63.1994 42.6857L75.9994 50M63.1994 42.6857L80.4145 32.8485M50.3994 50L37.5994 42.6857M50.3994 50V35.3714M50.3994 50L50.3994 64.6285M50.3994 50L63.1994 57.3142M50.3994 50L37.5993 57.3142M37.5994 42.6857V28.0571M37.5994 42.6857L24.7993 50M37.5994 42.6857L20.3842 32.8485M37.5994 28.0571L50.3994 35.3714M75.9994 50V64.6285M75.9994 50L63.1994 57.3142M75.9994 64.6285L63.1994 71.9428M75.9994 64.6285L80.4145 67.1515M63.1994 71.9428L50.3994 64.6285M63.1994 71.9428V57.3142M50.3994 64.6285L37.5993 71.9428M50.3994 64.6285L50.3994 84.2857M24.7993 50L24.7993 64.6285M24.7993 50L37.5993 57.3142M37.5993 71.9428L24.7993 64.6285M37.5993 71.9428V57.3142M24.7993 64.6285L20.3842 67.1515M50.3994 15.7143C49.5498 15.7143 48.8084 15.2507 48.4145 14.5628M50.3994 15.7143C51.2489 15.7143 51.9903 15.2507 52.3842 14.5628M82.3994 34C83.6617 34 84.6851 32.9766 84.6851 31.7143C84.6851 30.4519 83.6617 29.4285 82.3994 29.4285C81.5498 29.4285 80.8084 29.8921 80.4145 30.58M82.3994 34C81.5498 34 80.8084 33.5364 80.4145 32.8485M82.3994 34V66M82.3994 66C83.6617 66 84.6851 67.0233 84.6851 68.2857C84.6851 69.548 83.6617 70.5714 82.3994 70.5714C81.5498 70.5714 80.8084 70.1079 80.4145 69.4199M82.3994 66C81.5498 66 80.8084 66.4635 80.4145 67.1515M50.3994 84.2857C51.2489 84.2857 51.9903 84.7492 52.3842 85.4372M50.3994 84.2857C49.5498 84.2857 48.8084 84.7492 48.4145 85.4372M18.3994 66C17.137 66 16.1136 67.0233 16.1136 68.2857C16.1136 69.548 17.137 70.5714 18.3994 70.5714C19.2489 70.5714 19.9903 70.1079 20.3842 69.4199M18.3994 66C19.2489 66 19.9903 66.4635 20.3842 67.1515M18.3994 66V34M18.3994 34C17.137 34 16.1136 32.9766 16.1136 31.7143C16.1136 30.4519 17.137 29.4285 18.3994 29.4285C19.2489 29.4285 19.9903 29.8921 20.3842 30.58M18.3994 34C19.2489 34 19.9903 33.5364 20.3842 32.8485M48.4145 14.5628C48.2231 14.2285 48.1136 13.8413 48.1136 13.4285C48.1136 12.1662 49.137 11.1428 50.3994 11.1428C51.6617 11.1428 52.6851 12.1662 52.6851 13.4285C52.6851 13.8413 52.5757 14.2285 52.3842 14.5628M48.4145 14.5628L20.3842 30.58M52.3842 14.5628L80.4145 30.58M80.4145 32.8485C80.223 32.5142 80.1136 32.127 80.1136 31.7143C80.1136 31.3015 80.2231 30.9143 80.4145 30.58M80.4145 67.1515C80.223 67.4857 80.1136 67.8729 80.1136 68.2857C80.1136 68.6984 80.223 69.0857 80.4145 69.4199M80.4145 69.4199L52.3842 85.4372M52.3842 85.4372C52.5757 85.7714 52.6851 86.1586 52.6851 86.5714C52.6851 87.8338 51.6617 88.8571 50.3994 88.8571C49.137 88.8571 48.1136 87.8338 48.1136 86.5714C48.1136 86.1586 48.2231 85.7714 48.4145 85.4372M48.4145 85.4372L20.3842 69.4199M20.3842 30.58C20.5757 30.9143 20.6851 31.3015 20.6851 31.7143C20.6851 32.127 20.5757 32.5142 20.3842 32.8485M20.3842 67.1515C20.5757 67.4857 20.6851 67.8729 20.6851 68.2857C20.6851 68.6984 20.5757 69.0857 20.3842 69.4199" stroke="url(#paint66_linear_1828_5539)" stroke-width="0.857143"/>
<g filter="url(#filter1_dd_1828_5539)">
<path d="M64.2858 65.5084H62.1523C61.8346 64.1758 61.3125 62.9827 60.5862 61.929C59.4363 63.1531 58.1198 64.2068 56.637 65.09C56.4993 65.172 56.3571 65.2502 56.2103 65.3246C55.9369 65.4633 55.6479 65.5887 55.3432 65.7009C54.0509 66.1769 52.4772 66.4148 50.6223 66.4148C48.9711 66.4148 47.3899 66.1697 45.8786 65.6793C45.55 65.5727 45.2247 65.4545 44.9027 65.3246C44.2221 65.0503 43.5563 64.7242 42.9053 64.3463C40.5448 62.9672 38.661 61.0458 37.2538 58.5821C35.8466 56.1029 35.143 53.3138 35.143 50.2149C35.143 48.0146 35.5213 45.915 36.2778 43.9162C37.0495 41.9173 38.139 40.1586 39.5462 38.6401C40.9685 37.1216 42.6557 35.9285 44.6076 35.0608C44.7055 35.0176 44.8039 34.9755 44.9027 34.9344C45.2232 34.8013 45.5486 34.6795 45.8786 34.5689C47.4906 34.0291 49.2156 33.7592 51.0535 33.7592C52.5898 33.7592 54.0197 33.9647 55.3432 34.3757C55.6653 34.4757 55.981 34.5878 56.2904 34.7122C57.8908 35.3552 59.3227 36.3236 60.5862 37.6175C60.9191 36.9512 61.2444 35.9827 61.5622 34.7122H63.6049L63.9681 46.3101H61.7892C61.3958 44.3423 60.6846 42.5913 59.6557 41.0573C58.6267 39.5233 57.4011 38.3535 55.9788 37.5477C54.5715 36.7265 53.0962 36.3159 51.5529 36.3159C49.8279 36.3159 48.2769 36.804 46.9 37.7802C45.523 38.7408 44.4411 40.2129 43.6543 42.1962C42.8826 44.1796 42.4968 46.651 42.4968 49.6106C42.4968 52.4926 42.8221 54.8943 43.4727 56.8157C44.1234 58.7216 44.9254 60.1626 45.8786 61.1388C46.847 62.115 47.8154 62.7813 48.7838 63.1376C49.7522 63.4785 50.6601 63.649 51.5075 63.649C53.3686 63.649 55.0406 63.1376 56.5235 62.115C58.0215 61.0923 59.2471 59.8062 60.2004 58.2567C61.1537 56.6917 61.7892 55.1422 62.1069 53.6082H64.2858V65.5084Z" fill="url(#paint67_linear_1828_5539)"/>
<path d="M48.0575 69.9518H45.8786V65.6793V65.2491H48.0575V69.9518Z" fill="url(#paint68_linear_1828_5539)"/>
<path d="M55.3432 69.9518H53.1643V65.2491H55.3432V65.7009V69.9518Z" fill="url(#paint69_linear_1828_5539)"/>
<path d="M48.0575 34.7509H45.8786V34.5689V30.0481H48.0575V34.7509Z" fill="url(#paint70_linear_1828_5539)"/>
<path d="M55.3432 34.7509H53.1643V30.0481H55.3432V34.3757V34.7509Z" fill="url(#paint71_linear_1828_5539)"/>
<path d="M45.8786 34.5689V30.0481C45.5609 31.3187 45.2355 29.3819 44.9027 30.0481V34.9344C45.2232 34.8013 45.5486 34.6795 45.8786 34.5689Z" fill="url(#paint72_linear_1828_5539)"/>
<path d="M55.3432 30.0481V34.3757C55.6653 34.4757 55.981 34.5878 56.2904 34.7122L56.3192 30.0481C55.9863 29.3819 55.661 31.3187 55.3432 30.0481Z" fill="url(#paint73_linear_1828_5539)"/>
<path d="M55.3432 65.7009V69.9518C55.661 68.6812 55.9863 70.6181 56.3192 69.9518L56.2103 65.3246C55.9369 65.4633 55.6479 65.5887 55.3432 65.7009Z" fill="url(#paint74_linear_1828_5539)"/>
<path d="M45.8786 69.9518V65.6793C45.55 65.5727 45.2247 65.4545 44.9027 65.3246V69.9518C45.2355 70.6181 45.5609 68.6812 45.8786 69.9518Z" fill="url(#paint75_linear_1828_5539)"/>
</g>
<defs>
<filter id="filter0_i_1828_5539" x="3.14298" y="3.14282" width="93.7143" height="96.0001" filterUnits="userSpaceOnUse" color-interpolation-filters="sRGB">
<feFlood flood-opacity="0" result="BackgroundImageFix"/>
<feBlend mode="normal" in="SourceGraphic" in2="BackgroundImageFix" result="shape"/>
<feColorMatrix in="SourceAlpha" type="matrix" values="0 0 0 0 0 0 0 0 0 0 0 0 0 0 0 0 0 0 127 0" result="hardAlpha"/>
<feOffset dy="2.28571"/>
<feGaussianBlur stdDeviation="1.14286"/>
<feComposite in2="hardAlpha" operator="arithmetic" k2="-1" k3="1"/>
<feColorMatrix type="matrix" values="0 0 0 0 0 0 0 0 0 0 0 0 0 0 0 0 0 0 0.25 0"/>
<feBlend mode="normal" in2="shape" result="effect1_innerShadow_1828_5539"/>
</filter>
<filter id="filter1_dd_1828_5539" x="34.5715" y="28.7614" width="30.2857" height="42.4771" filterUnits="userSpaceOnUse" color-interpolation-filters="sRGB">
<feFlood flood-opacity="0" result="BackgroundImageFix"/>
<feColorMatrix in="SourceAlpha" type="matrix" values="0 0 0 0 0 0 0 0 0 0 0 0 0 0 0 0 0 0 127 0" result="hardAlpha"/>
<feOffset dy="-0.571429"/>
<feGaussianBlur stdDeviation="0.285714"/>
<feComposite in2="hardAlpha" operator="out"/>
<feColorMatrix type="matrix" values="0 0 0 0 0 0 0 0 0 0 0 0 0 0 0 0 0 0 0.1 0"/>
<feBlend mode="normal" in2="BackgroundImageFix" result="effect1_dropShadow_1828_5539"/>
<feColorMatrix in="SourceAlpha" type="matrix" values="0 0 0 0 0 0 0 0 0 0 0 0 0 0 0 0 0 0 127 0" result="hardAlpha"/>
<feOffset dy="0.571429"/>
<feGaussianBlur stdDeviation="0.285714"/>
<feComposite in2="hardAlpha" operator="out"/>
<feColorMatrix type="matrix" values="0 0 0 0 0 0 0 0 0 0 0 0 0 0 0 0 0 0 0.2 0"/>
<feBlend mode="normal" in2="effect1_dropShadow_1828_5539" result="effect2_dropShadow_1828_5539"/>
<feBlend mode="normal" in="SourceGraphic" in2="effect2_dropShadow_1828_5539" result="shape"/>
</filter>
<linearGradient id="paint0_linear_1828_5539" x1="92.641" y1="25.4118" x2="8.90404" y2="79.6414" gradientUnits="userSpaceOnUse">
<stop stop-color="#846424"/>
<stop offset="0.234375" stop-color="#EDC452"/>
<stop offset="0.48922" stop-color="#FEF1CB"/>
<stop offset="0.776042" stop-color="#EDC452"/>
<stop offset="1" stop-color="#846424"/>
</linearGradient>
<linearGradient id="paint1_linear_1828_5539" x1="2.57813" y1="24.4622" x2="84.6593" y2="77.7967" gradientUnits="userSpaceOnUse">
<stop stop-color="#846424"/>
<stop offset="0.48922" stop-color="#EDC452"/>
<stop offset="1" stop-color="#846424"/>
</linearGradient>
<linearGradient id="paint2_linear_1828_5539" x1="51.0001" y1="35.3427" x2="49.4584" y2="35.3702" gradientUnits="userSpaceOnUse">
<stop stop-color="#EDC452"/>
<stop offset="0.50165" stop-color="#F3E0AA"/>
<stop offset="1" stop-color="#EDC452"/>
</linearGradient>
<linearGradient id="paint3_linear_1828_5539" x1="50.0394" y1="35.3087" x2="48.5028" y2="35.437" gradientUnits="userSpaceOnUse">
<stop stop-color="#EDC452"/>
<stop offset="0.50165" stop-color="#F3E0AA"/>
<stop offset="1" stop-color="#EDC452"/>
</linearGradient>
<linearGradient id="paint4_linear_1828_5539" x1="49.0784" y1="35.3376" x2="47.5535" y2="35.5661" gradientUnits="userSpaceOnUse">
<stop stop-color="#EDC452"/>
<stop offset="0.50165" stop-color="#F3E0AA"/>
<stop offset="1" stop-color="#EDC452"/>
</linearGradient>
<linearGradient id="paint5_linear_1828_5539" x1="48.1214" y1="35.4293" x2="46.6147" y2="35.757" gradientUnits="userSpaceOnUse">
<stop stop-color="#EDC452"/>
<stop offset="0.50165" stop-color="#F3E0AA"/>
<stop offset="1" stop-color="#EDC452"/>
</linearGradient>
<linearGradient id="paint6_linear_1828_5539" x1="47.1725" y1="35.5833" x2="45.6904" y2="36.0088" gradientUnits="userSpaceOnUse">
<stop stop-color="#EDC452"/>
<stop offset="0.50165" stop-color="#F3E0AA"/>
<stop offset="1" stop-color="#EDC452"/>
</linearGradient>
<linearGradient id="paint7_linear_1828_5539" x1="46.2356" y1="35.7991" x2="44.7846" y2="36.3207" gradientUnits="userSpaceOnUse">
<stop stop-color="#EDC452"/>
<stop offset="0.50165" stop-color="#F3E0AA"/>
<stop offset="1" stop-color="#EDC452"/>
</linearGradient>
<linearGradient id="paint8_linear_1828_5539" x1="45.3149" y1="36.0758" x2="43.9011" y2="36.6912" gradientUnits="userSpaceOnUse">
<stop stop-color="#EDC452"/>
<stop offset="0.50165" stop-color="#F3E0AA"/>
<stop offset="1" stop-color="#EDC452"/>
</linearGradient>
<linearGradient id="paint9_linear_1828_5539" x1="44.4143" y1="36.4121" x2="43.0438" y2="37.1186" gradientUnits="userSpaceOnUse">
<stop stop-color="#EDC452"/>
<stop offset="0.50165" stop-color="#F3E0AA"/>
<stop offset="1" stop-color="#EDC452"/>
</linearGradient>
<linearGradient id="paint10_linear_1828_5539" x1="43.5376" y1="36.8064" x2="42.2162" y2="37.6011" gradientUnits="userSpaceOnUse">
<stop stop-color="#EDC452"/>
<stop offset="0.50165" stop-color="#F3E0AA"/>
<stop offset="1" stop-color="#EDC452"/>
</linearGradient>
<linearGradient id="paint11_linear_1828_5539" x1="42.6885" y1="37.2574" x2="41.4219" y2="38.1368" gradientUnits="userSpaceOnUse">
<stop stop-color="#EDC452"/>
<stop offset="0.50165" stop-color="#F3E0AA"/>
<stop offset="1" stop-color="#EDC452"/>
</linearGradient>
<linearGradient id="paint12_linear_1828_5539" x1="41.8708" y1="37.7628" x2="40.6644" y2="38.7231" gradientUnits="userSpaceOnUse">
<stop stop-color="#EDC452"/>
<stop offset="0.50165" stop-color="#F3E0AA"/>
<stop offset="1" stop-color="#EDC452"/>
</linearGradient>
<linearGradient id="paint13_linear_1828_5539" x1="41.0879" y1="38.3205" x2="39.9469" y2="39.3577" gradientUnits="userSpaceOnUse">
<stop stop-color="#EDC452"/>
<stop offset="0.50165" stop-color="#F3E0AA"/>
<stop offset="1" stop-color="#EDC452"/>
</linearGradient>
<linearGradient id="paint14_linear_1828_5539" x1="40.3431" y1="38.9286" x2="39.2724" y2="40.0382" gradientUnits="userSpaceOnUse">
<stop stop-color="#EDC452"/>
<stop offset="0.50165" stop-color="#F3E0AA"/>
<stop offset="1" stop-color="#EDC452"/>
</linearGradient>
<linearGradient id="paint15_linear_1828_5539" x1="39.6397" y1="39.584" x2="38.6439" y2="40.7612" gradientUnits="userSpaceOnUse">
<stop stop-color="#EDC452"/>
<stop offset="0.50165" stop-color="#F3E0AA"/>
<stop offset="1" stop-color="#EDC452"/>
</linearGradient>
<linearGradient id="paint16_linear_1828_5539" x1="38.9806" y1="40.2838" x2="38.0639" y2="41.5237" gradientUnits="userSpaceOnUse">
<stop stop-color="#EDC452"/>
<stop offset="0.50165" stop-color="#F3E0AA"/>
<stop offset="1" stop-color="#EDC452"/>
</linearGradient>
<linearGradient id="paint17_linear_1828_5539" x1="38.3688" y1="41.0254" x2="37.5351" y2="42.3225" gradientUnits="userSpaceOnUse">
<stop stop-color="#EDC452"/>
<stop offset="0.50165" stop-color="#F3E0AA"/>
<stop offset="1" stop-color="#EDC452"/>
</linearGradient>
<linearGradient id="paint18_linear_1828_5539" x1="37.8067" y1="41.8053" x2="37.0597" y2="43.1542" gradientUnits="userSpaceOnUse">
<stop stop-color="#EDC452"/>
<stop offset="0.50165" stop-color="#F3E0AA"/>
<stop offset="1" stop-color="#EDC452"/>
</linearGradient>
<linearGradient id="paint19_linear_1828_5539" x1="37.2968" y1="42.6202" x2="36.6396" y2="44.015" gradientUnits="userSpaceOnUse">
<stop stop-color="#EDC452"/>
<stop offset="0.50165" stop-color="#F3E0AA"/>
<stop offset="1" stop-color="#EDC452"/>
</linearGradient>
<linearGradient id="paint20_linear_1828_5539" x1="36.8414" y1="43.4668" x2="36.2768" y2="44.9017" gradientUnits="userSpaceOnUse">
<stop stop-color="#EDC452"/>
<stop offset="0.50165" stop-color="#F3E0AA"/>
<stop offset="1" stop-color="#EDC452"/>
</linearGradient>
<linearGradient id="paint21_linear_1828_5539" x1="36.4423" y1="44.3416" x2="35.9728" y2="45.8103" gradientUnits="userSpaceOnUse">
<stop stop-color="#EDC452"/>
<stop offset="0.50165" stop-color="#F3E0AA"/>
<stop offset="1" stop-color="#EDC452"/>
</linearGradient>
<linearGradient id="paint22_linear_1828_5539" x1="36.1012" y1="45.2404" x2="35.7288" y2="46.7367" gradientUnits="userSpaceOnUse">
<stop stop-color="#EDC452"/>
<stop offset="0.50165" stop-color="#F3E0AA"/>
<stop offset="1" stop-color="#EDC452"/>
</linearGradient>
<linearGradient id="paint23_linear_1828_5539" x1="35.8197" y1="46.1596" x2="35.5459" y2="47.677" gradientUnits="userSpaceOnUse">
<stop stop-color="#EDC452"/>
<stop offset="0.50165" stop-color="#F3E0AA"/>
<stop offset="1" stop-color="#EDC452"/>
</linearGradient>
<linearGradient id="paint24_linear_1828_5539" x1="35.5989" y1="47.0953" x2="35.4249" y2="48.6274" gradientUnits="userSpaceOnUse">
<stop stop-color="#EDC452"/>
<stop offset="0.50165" stop-color="#F3E0AA"/>
<stop offset="1" stop-color="#EDC452"/>
</linearGradient>
<linearGradient id="paint25_linear_1828_5539" x1="35.4398" y1="48.0433" x2="35.3664" y2="49.5835" gradientUnits="userSpaceOnUse">
<stop stop-color="#EDC452"/>
<stop offset="0.50165" stop-color="#F3E0AA"/>
<stop offset="1" stop-color="#EDC452"/>
</linearGradient>
<linearGradient id="paint26_linear_1828_5539" x1="35.343" y1="48.9998" x2="35.3705" y2="50.5414" gradientUnits="userSpaceOnUse">
<stop stop-color="#EDC452"/>
<stop offset="0.50165" stop-color="#F3E0AA"/>
<stop offset="1" stop-color="#EDC452"/>
</linearGradient>
<linearGradient id="paint27_linear_1828_5539" x1="35.309" y1="49.9607" x2="35.4372" y2="51.4973" gradientUnits="userSpaceOnUse">
<stop stop-color="#EDC452"/>
<stop offset="0.50165" stop-color="#F3E0AA"/>
<stop offset="1" stop-color="#EDC452"/>
</linearGradient>
<linearGradient id="paint28_linear_1828_5539" x1="35.3378" y1="50.9216" x2="35.5663" y2="52.4465" gradientUnits="userSpaceOnUse">
<stop stop-color="#EDC452"/>
<stop offset="0.50165" stop-color="#F3E0AA"/>
<stop offset="1" stop-color="#EDC452"/>
</linearGradient>
<linearGradient id="paint29_linear_1828_5539" x1="35.4295" y1="51.8786" x2="35.7573" y2="53.3853" gradientUnits="userSpaceOnUse">
<stop stop-color="#EDC452"/>
<stop offset="0.50165" stop-color="#F3E0AA"/>
<stop offset="1" stop-color="#EDC452"/>
</linearGradient>
<linearGradient id="paint30_linear_1828_5539" x1="35.5836" y1="52.8275" x2="36.0092" y2="54.3095" gradientUnits="userSpaceOnUse">
<stop stop-color="#EDC452"/>
<stop offset="0.50165" stop-color="#F3E0AA"/>
<stop offset="1" stop-color="#EDC452"/>
</linearGradient>
<linearGradient id="paint31_linear_1828_5539" x1="35.7994" y1="53.7643" x2="36.321" y2="55.2153" gradientUnits="userSpaceOnUse">
<stop stop-color="#EDC452"/>
<stop offset="0.50165" stop-color="#F3E0AA"/>
<stop offset="1" stop-color="#EDC452"/>
</linearGradient>
<linearGradient id="paint32_linear_1828_5539" x1="36.076" y1="54.6852" x2="36.6914" y2="56.099" gradientUnits="userSpaceOnUse">
<stop stop-color="#EDC452"/>
<stop offset="0.50165" stop-color="#F3E0AA"/>
<stop offset="1" stop-color="#EDC452"/>
</linearGradient>
<linearGradient id="paint33_linear_1828_5539" x1="36.4122" y1="55.5856" x2="37.1188" y2="56.9561" gradientUnits="userSpaceOnUse">
<stop stop-color="#EDC452"/>
<stop offset="0.50165" stop-color="#F3E0AA"/>
<stop offset="1" stop-color="#EDC452"/>
</linearGradient>
<linearGradient id="paint34_linear_1828_5539" x1="36.8067" y1="56.4624" x2="37.6014" y2="57.7838" gradientUnits="userSpaceOnUse">
<stop stop-color="#EDC452"/>
<stop offset="0.50165" stop-color="#F3E0AA"/>
<stop offset="1" stop-color="#EDC452"/>
</linearGradient>
<linearGradient id="paint35_linear_1828_5539" x1="37.2576" y1="57.3114" x2="38.137" y2="58.578" gradientUnits="userSpaceOnUse">
<stop stop-color="#EDC452"/>
<stop offset="0.50165" stop-color="#F3E0AA"/>
<stop offset="1" stop-color="#EDC452"/>
</linearGradient>
<linearGradient id="paint36_linear_1828_5539" x1="37.7631" y1="58.1292" x2="38.7234" y2="59.3356" gradientUnits="userSpaceOnUse">
<stop stop-color="#EDC452"/>
<stop offset="0.50165" stop-color="#F3E0AA"/>
<stop offset="1" stop-color="#EDC452"/>
</linearGradient>
<linearGradient id="paint37_linear_1828_5539" x1="38.321" y1="58.9121" x2="39.3582" y2="60.0531" gradientUnits="userSpaceOnUse">
<stop stop-color="#EDC452"/>
<stop offset="0.50165" stop-color="#F3E0AA"/>
<stop offset="1" stop-color="#EDC452"/>
</linearGradient>
<linearGradient id="paint38_linear_1828_5539" x1="38.9289" y1="59.6569" x2="40.0384" y2="60.7276" gradientUnits="userSpaceOnUse">
<stop stop-color="#EDC452"/>
<stop offset="0.50165" stop-color="#F3E0AA"/>
<stop offset="1" stop-color="#EDC452"/>
</linearGradient>
<linearGradient id="paint39_linear_1828_5539" x1="39.5842" y1="60.3603" x2="40.7614" y2="61.3561" gradientUnits="userSpaceOnUse">
<stop stop-color="#EDC452"/>
<stop offset="0.50165" stop-color="#F3E0AA"/>
<stop offset="1" stop-color="#EDC452"/>
</linearGradient>
<linearGradient id="paint40_linear_1828_5539" x1="40.2841" y1="61.0194" x2="41.5239" y2="61.9361" gradientUnits="userSpaceOnUse">
<stop stop-color="#EDC452"/>
<stop offset="0.50165" stop-color="#F3E0AA"/>
<stop offset="1" stop-color="#EDC452"/>
</linearGradient>
<linearGradient id="paint41_linear_1828_5539" x1="41.0256" y1="61.6312" x2="42.3227" y2="62.4649" gradientUnits="userSpaceOnUse">
<stop stop-color="#EDC452"/>
<stop offset="0.50165" stop-color="#F3E0AA"/>
<stop offset="1" stop-color="#EDC452"/>
</linearGradient>
<linearGradient id="paint42_linear_1828_5539" x1="41.8055" y1="62.1933" x2="43.1544" y2="62.9404" gradientUnits="userSpaceOnUse">
<stop stop-color="#EDC452"/>
<stop offset="0.50165" stop-color="#F3E0AA"/>
<stop offset="1" stop-color="#EDC452"/>
</linearGradient>
<linearGradient id="paint43_linear_1828_5539" x1="42.6206" y1="62.7031" x2="44.0155" y2="63.3603" gradientUnits="userSpaceOnUse">
<stop stop-color="#EDC452"/>
<stop offset="0.50165" stop-color="#F3E0AA"/>
<stop offset="1" stop-color="#EDC452"/>
</linearGradient>
<linearGradient id="paint44_linear_1828_5539" x1="43.4672" y1="63.1585" x2="44.902" y2="63.7231" gradientUnits="userSpaceOnUse">
<stop stop-color="#EDC452"/>
<stop offset="0.50165" stop-color="#F3E0AA"/>
<stop offset="1" stop-color="#EDC452"/>
</linearGradient>
<linearGradient id="paint45_linear_1828_5539" x1="44.3418" y1="63.5578" x2="45.8105" y2="64.0273" gradientUnits="userSpaceOnUse">
<stop stop-color="#EDC452"/>
<stop offset="0.50165" stop-color="#F3E0AA"/>
<stop offset="1" stop-color="#EDC452"/>
</linearGradient>
<linearGradient id="paint46_linear_1828_5539" x1="45.2406" y1="63.8988" x2="46.7369" y2="64.2713" gradientUnits="userSpaceOnUse">
<stop stop-color="#EDC452"/>
<stop offset="0.50165" stop-color="#F3E0AA"/>
<stop offset="1" stop-color="#EDC452"/>
</linearGradient>
<linearGradient id="paint47_linear_1828_5539" x1="46.1599" y1="64.1803" x2="47.6773" y2="64.4541" gradientUnits="userSpaceOnUse">
<stop stop-color="#EDC452"/>
<stop offset="0.50165" stop-color="#F3E0AA"/>
<stop offset="1" stop-color="#EDC452"/>
</linearGradient>
<linearGradient id="paint48_linear_1828_5539" x1="47.0955" y1="64.4011" x2="48.6276" y2="64.575" gradientUnits="userSpaceOnUse">
<stop stop-color="#EDC452"/>
<stop offset="0.50165" stop-color="#F3E0AA"/>
<stop offset="1" stop-color="#EDC452"/>
</linearGradient>
<linearGradient id="paint49_linear_1828_5539" x1="48.0437" y1="64.5602" x2="49.5839" y2="64.6336" gradientUnits="userSpaceOnUse">
<stop stop-color="#EDC452"/>
<stop offset="0.50165" stop-color="#F3E0AA"/>
<stop offset="1" stop-color="#EDC452"/>
</linearGradient>
<linearGradient id="paint50_linear_1828_5539" x1="86.8571" y1="28.7714" x2="47.456" y2="89.8066" gradientUnits="userSpaceOnUse">
<stop stop-color="#EDC452"/>
<stop offset="0.50165" stop-color="#F3E0AA"/>
<stop offset="1" stop-color="#EDC452"/>
</linearGradient>
<linearGradient id="paint51_linear_1828_5539" x1="34.5715" y1="22.8571" x2="66.0001" y2="77.1428" gradientUnits="userSpaceOnUse">
<stop stop-color="#846424"/>
<stop offset="0.48922" stop-color="#EDC452"/>
<stop offset="1" stop-color="#846424"/>
</linearGradient>
<linearGradient id="paint52_linear_1828_5539" x1="34.5715" y1="22.8571" x2="66.0001" y2="77.1428" gradientUnits="userSpaceOnUse">
<stop stop-color="#846424"/>
<stop offset="0.48922" stop-color="#EDC452"/>
<stop offset="1" stop-color="#846424"/>
</linearGradient>
<linearGradient id="paint53_linear_1828_5539" x1="34.5715" y1="22.8571" x2="66.0001" y2="77.1428" gradientUnits="userSpaceOnUse">
<stop stop-color="#846424"/>
<stop offset="0.48922" stop-color="#EDC452"/>
<stop offset="1" stop-color="#846424"/>
</linearGradient>
<linearGradient id="paint54_linear_1828_5539" x1="34.5715" y1="22.8571" x2="66.0001" y2="77.1428" gradientUnits="userSpaceOnUse">
<stop stop-color="#846424"/>
<stop offset="0.48922" stop-color="#EDC452"/>
<stop offset="1" stop-color="#846424"/>
</linearGradient>
<linearGradient id="paint55_linear_1828_5539" x1="34.5715" y1="22.8571" x2="66.0001" y2="77.1428" gradientUnits="userSpaceOnUse">
<stop stop-color="#846424"/>
<stop offset="0.48922" stop-color="#EDC452"/>
<stop offset="1" stop-color="#846424"/>
</linearGradient>
<linearGradient id="paint56_linear_1828_5539" x1="34.5715" y1="22.8571" x2="66.0001" y2="77.1428" gradientUnits="userSpaceOnUse">
<stop stop-color="#846424"/>
<stop offset="0.48922" stop-color="#EDC452"/>
<stop offset="1" stop-color="#846424"/>
</linearGradient>
<linearGradient id="paint57_linear_1828_5539" x1="34.5715" y1="22.8571" x2="66.0001" y2="77.1428" gradientUnits="userSpaceOnUse">
<stop stop-color="#846424"/>
<stop offset="0.48922" stop-color="#EDC452"/>
<stop offset="1" stop-color="#846424"/>
</linearGradient>
<linearGradient id="paint58_linear_1828_5539" x1="34.5715" y1="22.8571" x2="66.0001" y2="77.1428" gradientUnits="userSpaceOnUse">
<stop stop-color="#846424"/>
<stop offset="0.48922" stop-color="#EDC452"/>
<stop offset="1" stop-color="#846424"/>
</linearGradient>
<linearGradient id="paint59_linear_1828_5539" x1="34.5715" y1="22.8571" x2="66.0001" y2="77.1428" gradientUnits="userSpaceOnUse">
<stop stop-color="#846424"/>
<stop offset="0.48922" stop-color="#EDC452"/>
<stop offset="1" stop-color="#846424"/>
</linearGradient>
<linearGradient id="paint60_linear_1828_5539" x1="34.5715" y1="22.8571" x2="66.0001" y2="77.1428" gradientUnits="userSpaceOnUse">
<stop stop-color="#846424"/>
<stop offset="0.48922" stop-color="#EDC452"/>
<stop offset="1" stop-color="#846424"/>
</linearGradient>
<linearGradient id="paint61_linear_1828_5539" x1="34.5715" y1="22.8571" x2="66.0001" y2="77.1428" gradientUnits="userSpaceOnUse">
<stop stop-color="#846424"/>
<stop offset="0.48922" stop-color="#EDC452"/>
<stop offset="1" stop-color="#846424"/>
</linearGradient>
<linearGradient id="paint62_linear_1828_5539" x1="34.5715" y1="22.8571" x2="66.0001" y2="77.1428" gradientUnits="userSpaceOnUse">
<stop stop-color="#846424"/>
<stop offset="0.48922" stop-color="#EDC452"/>
<stop offset="1" stop-color="#846424"/>
</linearGradient>
<linearGradient id="paint63_linear_1828_5539" x1="34.5715" y1="22.8571" x2="66.0001" y2="77.1428" gradientUnits="userSpaceOnUse">
<stop stop-color="#846424"/>
<stop offset="0.48922" stop-color="#EDC452"/>
<stop offset="1" stop-color="#846424"/>
</linearGradient>
<linearGradient id="paint64_linear_1828_5539" x1="34.5715" y1="22.8571" x2="66.0001" y2="77.1428" gradientUnits="userSpaceOnUse">
<stop stop-color="#846424"/>
<stop offset="0.48922" stop-color="#EDC452"/>
<stop offset="1" stop-color="#846424"/>
</linearGradient>
<linearGradient id="paint65_linear_1828_5539" x1="34.5715" y1="22.8571" x2="66.0001" y2="77.1428" gradientUnits="userSpaceOnUse">
<stop stop-color="#846424"/>
<stop offset="0.48922" stop-color="#EDC452"/>
<stop offset="1" stop-color="#846424"/>
</linearGradient>
<linearGradient id="paint66_linear_1828_5539" x1="82.2858" y1="31.7143" x2="18.2858" y2="68.2857" gradientUnits="userSpaceOnUse">
<stop stop-color="#846424"/>
<stop offset="0.48922" stop-color="#EDC452"/>
<stop offset="1" stop-color="#846424"/>
</linearGradient>
<linearGradient id="paint67_linear_1828_5539" x1="64.2858" y1="42.2857" x2="41.5322" y2="64.7556" gradientUnits="userSpaceOnUse">
<stop stop-color="#EDC452"/>
<stop offset="0.50165" stop-color="#F3E0AA"/>
<stop offset="1" stop-color="#EDC452"/>
</linearGradient>
<linearGradient id="paint68_linear_1828_5539" x1="64.2858" y1="42.2857" x2="41.5322" y2="64.7556" gradientUnits="userSpaceOnUse">
<stop stop-color="#EDC452"/>
<stop offset="0.50165" stop-color="#F3E0AA"/>
<stop offset="1" stop-color="#EDC452"/>
</linearGradient>
<linearGradient id="paint69_linear_1828_5539" x1="64.2858" y1="42.2857" x2="41.5322" y2="64.7556" gradientUnits="userSpaceOnUse">
<stop stop-color="#EDC452"/>
<stop offset="0.50165" stop-color="#F3E0AA"/>
<stop offset="1" stop-color="#EDC452"/>
</linearGradient>
<linearGradient id="paint70_linear_1828_5539" x1="64.2858" y1="42.2857" x2="41.5322" y2="64.7556" gradientUnits="userSpaceOnUse">
<stop stop-color="#EDC452"/>
<stop offset="0.50165" stop-color="#F3E0AA"/>
<stop offset="1" stop-color="#EDC452"/>
</linearGradient>
<linearGradient id="paint71_linear_1828_5539" x1="64.2858" y1="42.2857" x2="41.5322" y2="64.7556" gradientUnits="userSpaceOnUse">
<stop stop-color="#EDC452"/>
<stop offset="0.50165" stop-color="#F3E0AA"/>
<stop offset="1" stop-color="#EDC452"/>
</linearGradient>
<linearGradient id="paint72_linear_1828_5539" x1="64.2858" y1="42.2857" x2="41.5322" y2="64.7556" gradientUnits="userSpaceOnUse">
<stop stop-color="#EDC452"/>
<stop offset="0.50165" stop-color="#F3E0AA"/>
<stop offset="1" stop-color="#EDC452"/>
</linearGradient>
<linearGradient id="paint73_linear_1828_5539" x1="64.2858" y1="42.2857" x2="41.5322" y2="64.7556" gradientUnits="userSpaceOnUse">
<stop stop-color="#EDC452"/>
<stop offset="0.50165" stop-color="#F3E0AA"/>
<stop offset="1" stop-color="#EDC452"/>
</linearGradient>
<linearGradient id="paint74_linear_1828_5539" x1="64.2858" y1="42.2857" x2="41.5322" y2="64.7556" gradientUnits="userSpaceOnUse">
<stop stop-color="#EDC452"/>
<stop offset="0.50165" stop-color="#F3E0AA"/>
<stop offset="1" stop-color="#EDC452"/>
</linearGradient>
<linearGradient id="paint75_linear_1828_5539" x1="64.2858" y1="42.2857" x2="41.5322" y2="64.7556" gradientUnits="userSpaceOnUse">
<stop stop-color="#EDC452"/>
<stop offset="0.50165" stop-color="#F3E0AA"/>
<stop offset="1" stop-color="#EDC452"/>
</linearGradient>
</defs>
</svg>
