<svg width="19" height="24" viewBox="0 0 19 24" fill="none" xmlns="http://www.w3.org/2000/svg">
<path d="M17 20.4673H17.75V19.7173V13.7955V13.0455H17H15.8785H15.2722L15.1451 13.6384C15.0031 14.3014 14.715 14.9906 14.2636 15.7074C13.8304 16.3878 13.275 16.9516 12.5915 17.4027L12.5915 17.4027L12.5886 17.4047C11.9542 17.8276 11.2397 18.042 10.4229 18.042C10.0853 18.042 9.70191 17.9765 9.26777 17.8293C8.89978 17.6974 8.493 17.4379 8.05136 17.0079C7.6702 16.6297 7.30737 16.0274 6.99489 15.1428C6.69708 14.2921 6.53505 13.1877 6.53505 11.8062C6.53505 10.3964 6.7258 9.26955 7.07568 8.39903C7.43829 7.51632 7.91265 6.91745 8.47081 6.54095L8.47082 6.54097L8.47542 6.53781C9.05495 6.1406 9.70441 5.94053 10.4463 5.94053C11.1054 5.94053 11.7384 6.10843 12.3558 6.45672L12.3557 6.45677L12.364 6.46133C12.983 6.80034 13.5297 7.29878 14.0006 7.97749C14.4683 8.65168 14.7969 9.42776 14.9805 10.3157L15.1042 10.9139H15.715H16.8364H17.6111L17.5861 10.1396L17.3991 4.3682L17.3756 3.64248H16.6495H15.5981H15.0175L14.872 4.20466C14.8376 4.33763 14.8036 4.46149 14.77 4.57659C14.4129 4.31579 14.0354 4.09043 13.6379 3.90115L13.6495 2.07637L13.6507 1.8915L13.5658 1.72725C13.5345 1.66662 13.4862 1.58672 13.4127 1.50895C13.3375 1.4293 13.2212 1.33676 13.0578 1.28604C12.8869 1.23297 12.7206 1.24322 12.5819 1.28615C12.5482 1.29657 12.5169 1.30863 12.4881 1.32158H12.3972H11.2757H10.5257V2.07158V3.17408C10.4144 3.17021 10.3022 3.16828 10.1893 3.16828C9.92165 3.16828 9.65761 3.17828 9.3972 3.19838V2.07158V1.32158H8.6472H7.5257H7.43479C7.40596 1.30863 7.37469 1.29657 7.34101 1.28615C7.20227 1.24322 7.036 1.23297 6.86507 1.28604C6.7017 1.33676 6.58537 1.4293 6.51015 1.50895C6.43672 1.58672 6.38841 1.66663 6.35707 1.72725L6.27336 1.88924V2.07158V4.01298C5.30695 4.46901 4.45651 5.07299 3.7277 5.82525L3.72769 5.82524L3.72492 5.82813C2.93236 6.65498 2.31968 7.6124 1.88759 8.69444L1.88758 8.69443L1.88573 8.69916C1.46135 9.78314 1.25 10.9209 1.25 12.1069C1.25 13.7718 1.64254 15.2926 2.43967 16.6504L2.44072 16.6521C3.23047 17.9889 4.29459 19.0397 5.62648 19.792L5.62826 19.793C5.84014 19.9119 6.05518 20.0216 6.27336 20.1219V21.9284V22.1108L6.35707 22.2727C6.38841 22.3334 6.43672 22.4133 6.51015 22.491C6.58537 22.5707 6.7017 22.6632 6.86507 22.714C7.036 22.767 7.20228 22.7568 7.34101 22.7139C7.37469 22.7034 7.40596 22.6914 7.43479 22.6784H7.5257H8.6472H9.3972V21.9284V20.9012C9.58579 20.9126 9.77583 20.9184 9.96729 20.9184C10.1574 20.9184 10.3436 20.9139 10.5257 20.905V21.9284V22.6784H11.2757H12.3972H12.4881C12.5169 22.6914 12.5482 22.7034 12.5819 22.7139C12.7206 22.7568 12.8869 22.767 13.0578 22.714C13.2212 22.6632 13.3375 22.5707 13.4127 22.491C13.4862 22.4133 13.5345 22.3334 13.5658 22.2727L13.654 22.1021L13.6493 21.9102L13.6043 20.0609C14.0704 19.7811 14.5072 19.4702 14.9141 19.1282C15.02 19.3692 15.1067 19.6252 15.1737 19.8969L15.3144 20.4673H15.9019H17ZM13.3166 2.53149C13.3222 2.5237 13.3219 2.525 13.316 2.5323C13.3162 2.53202 13.3164 2.53175 13.3166 2.53149ZM12.0217 1.76718C12.0217 1.76711 12.0227 1.7658 12.0245 1.76349C12.0226 1.7661 12.0217 1.76726 12.0217 1.76718ZM7.90118 1.76718C7.9012 1.76726 7.90029 1.7661 7.89839 1.76349C7.90021 1.7658 7.90116 1.76711 7.90118 1.76718ZM6.60632 21.4685C6.6007 21.4763 6.60103 21.475 6.6069 21.4677C6.6067 21.468 6.60651 21.4682 6.60632 21.4685ZM7.90118 22.2328C7.90118 22.2329 7.90023 22.2342 7.89839 22.2365C7.90027 22.2339 7.90118 22.2328 7.90118 22.2328ZM12.0217 22.2328C12.0219 22.233 12.0228 22.2342 12.0245 22.2365C12.0225 22.234 12.0216 22.2326 12.0217 22.2328Z" stroke="white" stroke-width="1.5"/>
</svg>
