<svg width="12" height="16" viewBox="0 0 12 16" fill="none" xmlns="http://www.w3.org/2000/svg">
<path d="M4.35079 14.6186H5.09846V13.0585H4.35079V13.2012M4.35079 14.6186C4.24176 14.1971 4.13013 14.8397 4.0159 14.6186V13.0836M4.35079 14.6186V13.2012M7.59846 14.6186H6.85079V13.0585H7.59846V13.2084M7.59846 14.6186C7.70749 14.1971 7.81912 14.8397 7.93335 14.6186L7.89599 13.0836M7.59846 14.6186V13.2084M4.35079 1.38073H5.09846V2.94084H4.35079V2.88048M4.35079 1.38073C4.24176 1.80224 4.13013 1.15969 4.0159 1.38073V3.00174M4.35079 1.38073V2.88048M7.59846 1.38073H6.85079V2.94084H7.59846V2.81637M7.59846 1.38073C7.70749 1.80224 7.81912 1.15969 7.93335 1.38073L7.92346 2.928M7.59846 1.38073V2.81637M4.0159 3.00174C3.982 3.01536 3.94825 3.02933 3.91466 3.04365C3.24487 3.33152 2.66595 3.72733 2.1779 4.23109C1.69503 4.73484 1.3212 5.31828 1.0564 5.98139C0.796795 6.6445 0.666992 7.34102 0.666992 8.07096C0.666992 9.09904 0.908425 10.0243 1.39129 10.8468C1.87416 11.6641 2.52057 12.3015 3.33054 12.759C3.55393 12.8844 3.78238 12.9926 4.0159 13.0836M4.0159 3.00174C4.12591 2.95757 4.23754 2.91715 4.35079 2.88048M4.35079 2.88048C4.90393 2.7014 5.49583 2.61186 6.12649 2.61186C6.65365 2.61186 7.1443 2.68003 7.59846 2.81637M7.92346 2.928C8.47262 3.14131 8.96397 3.46259 9.39752 3.89182C9.51175 3.67078 9.62338 3.34951 9.73241 2.928H10.4333L10.558 6.77558H9.81029C9.6753 6.12275 9.43127 5.54189 9.07821 5.03299C8.72514 4.52409 8.30458 4.13599 7.81652 3.86869C7.33366 3.59625 6.82743 3.46003 6.29783 3.46003C5.70593 3.46003 5.17374 3.62195 4.70126 3.94579C4.22878 4.2645 3.85754 4.75284 3.58755 5.41081C3.32276 6.06878 3.19036 6.88867 3.19036 7.87049C3.19036 8.8266 3.30199 9.62336 3.52525 10.2608C3.74851 10.893 4.02369 11.3711 4.35079 11.6949C4.68309 12.0188 5.01538 12.2398 5.34768 12.3581C5.67997 12.4711 5.9915 12.5277 6.28226 12.5277C6.92089 12.5277 7.49461 12.358 8.00344 12.0188C8.51746 11.6795 8.93802 11.2529 9.26512 10.7388C9.59223 10.2196 9.81029 9.70561 9.91933 9.19671H10.667V13.1445H9.9349C9.82587 12.7025 9.64674 12.3066 9.39752 11.9571C9.00292 12.3632 8.55121 12.7127 8.04238 13.0057C7.99513 13.0329 7.94633 13.0589 7.89599 13.0836M7.92346 2.928C7.81729 2.88675 7.70895 2.84955 7.59846 2.81637M4.0159 13.0836C4.1264 13.1266 4.23803 13.1659 4.35079 13.2012M7.89599 13.0836C7.80218 13.1296 7.703 13.1712 7.59846 13.2084M7.59846 13.2084C7.155 13.3663 6.61502 13.4452 5.97852 13.4452C5.41194 13.4452 4.86937 13.3639 4.35079 13.2012" stroke="white"/>
</svg>
