<svg width="20" height="17" viewBox="0 0 20 17" fill="none" xmlns="http://www.w3.org/2000/svg">
<path d="M9.29368 0H2.39684V5.51863H0V7.49594H2.39684V9.571H0V11.5472H2.39684V17H9.29368C13.4411 17 16.5968 14.7741 17.8105 11.5483H20V9.57206H18.2905C18.3326 9.22144 18.3537 8.86231 18.3537 8.49894V8.45006C18.3537 8.12706 18.3368 7.80831 18.3042 7.49594H20V5.51969H17.8516C16.6684 2.24612 13.4884 0 9.29368 0ZM15.6979 11.5483C14.6379 13.753 12.36 15.2267 9.29368 15.2267H4.32526V11.5483H15.6979ZM16.2916 7.49594C16.3358 7.82212 16.3589 8.15681 16.3589 8.49894V8.54675C16.3589 8.89631 16.3347 9.23737 16.2884 9.571H4.32421V7.49594H16.2916ZM9.29474 1.77013C12.3747 1.77013 14.66 3.28313 15.7137 5.51863H4.32421V1.77013H9.29263H9.29474Z" fill="white"/>
</svg>
