<svg id="Layer_1" data-name="Layer 1" xmlns="http://www.w3.org/2000/svg" viewBox="0 0 144 144"><defs><style>.cls-1{fill:#efefef;}.cls-2{fill:#969696;}</style></defs><circle cx="72" cy="72" r="54.36"/><path class="cls-1" d="M92.23,72.68a3.69,3.69,0,0,1-2.2,3c-1.53.75-3.14,1.36-4.64,2.19a19.19,19.19,0,0,0-8.49,9.44l-.36.88c-.86,2.12-1.83,4.1-4.62,4s-3.61-2-4.42-4.06A19.75,19.75,0,0,0,55.9,76.58c-.59-.23-1.16-.52-1.73-.79a3.81,3.81,0,0,1-2.36-3.6,3.87,3.87,0,0,1,2.28-3.85A38.92,38.92,0,0,0,60.51,65a20.29,20.29,0,0,0,6.91-8.89c.29-.7.56-1.41.9-2.09A3.89,3.89,0,0,1,72,51.83a3.84,3.84,0,0,1,3.69,2.24c.59,1.26,1.07,2.59,1.71,3.82a19.82,19.82,0,0,0,10.63,9.59C90.17,68.31,92.24,69.2,92.23,72.68Z"/><path class="cls-2" d="M78.2,110.75c2.92-4.84,4.34-10.39,7.7-15a41.59,41.59,0,0,1,17.41-14c2.48-1.08,5.13-1.83,7.32-3.67C112,90.94,91.71,111.33,78.2,110.75Z"/><path class="cls-2" d="M78,33.24c16.93,2,31.29,17.22,32.77,32.65C106,63,100.58,61.62,96.05,58.4A41.93,41.93,0,0,1,81.2,39.56,27,27,0,0,0,78,33.24Z"/><path class="cls-2" d="M33.26,66C35,49.93,49.56,35.09,65.9,33.27c-2.84,4.71-4.24,10-7.38,14.54A41.73,41.73,0,0,1,39.23,63,25.15,25.15,0,0,0,33.26,66Z"/><path class="cls-2" d="M66,110.75C50.78,109.42,35,95,33.29,78.2,38,81,43.36,82.42,47.86,85.58A42.12,42.12,0,0,1,63.1,105.11,22.57,22.57,0,0,0,66,110.75Z"/></svg>