<svg xmlns="http://www.w3.org/2000/svg" width="22px" height="22px" viewBox="0 0 22 22" fill="none" transform="rotate(0) scale(1, 1)">
<path d="M21 9.9V3.1C21 1.6 20.36 1 18.77 1H14.73C13.14 1 12.5 1.6 12.5 3.1V9.9C12.5 11.4 13.14 12 14.73 12H18.77C20.36 12 21 11.4 21 9.9ZM21 18.9V17.1C21 15.6 20.36 15 18.77 15H14.73C13.14 15 12.5 15.6 12.5 17.1V18.9C12.5 20.4 13.14 21 14.73 21H18.77C20.36 21 21 20.4 21 18.9ZM9.5 12.1V18.9C9.5 20.4 8.86 21 7.27 21H3.23C1.64 21 1 20.4 1 18.9V12.1C1 10.6 1.64 10 3.23 10H7.27C8.86 10 9.5 10.6 9.5 12.1ZM9.5 3.1V4.9C9.5 6.4 8.86 7 7.27 7H3.23C1.64 7 1 6.4 1 4.9V3.1C1 1.6 1.64 1 3.23 1H7.27C8.86 1 9.5 1.6 9.5 3.1Z" stroke="#d6aded" stroke-width="1.5" stroke-linecap="round" stroke-linejoin="round" fill="#26252200"/>
</svg>