<svg width="35" height="32" viewBox="0 0 35 32" fill="none" xmlns="http://www.w3.org/2000/svg">
<path d="M17.1801 7.99219C17.4979 7.99219 17.8028 8.11846 18.0276 8.34323C18.2523 8.568 18.3786 8.87285 18.3786 9.19072V17.1809C18.3786 17.4988 18.2523 17.8036 18.0276 18.0284C17.8028 18.2532 17.4979 18.3794 17.1801 18.3794C16.8622 18.3794 16.5574 18.2532 16.3326 18.0284C16.1078 17.8036 15.9815 17.4988 15.9815 17.1809V9.19072C15.9815 8.87285 16.1078 8.568 16.3326 8.34323C16.5574 8.11846 16.8622 7.99219 17.1801 7.99219ZM17.1801 23.5731C17.6039 23.5731 18.0104 23.4047 18.3101 23.105C18.6097 22.8053 18.7781 22.3989 18.7781 21.975C18.7781 21.5512 18.6097 21.1447 18.3101 20.845C18.0104 20.5454 17.6039 20.377 17.1801 20.377C16.7562 20.377 16.3498 20.5454 16.0501 20.845C15.7504 21.1447 15.582 21.5512 15.582 21.975C15.582 22.3989 15.7504 22.8053 16.0501 23.105C16.3498 23.4047 16.7562 23.5731 17.1801 23.5731Z" fill="url(#paint0_linear_3619_4126)"/>
<path fill-rule="evenodd" clip-rule="evenodd" d="M11.2568 3.55723C12.9699 1.3823 14.7853 0 17.1792 0C19.573 0 21.3884 1.3823 23.1015 3.55723C24.7858 5.69861 26.5692 8.86272 28.8544 12.9137L29.5512 14.1474C31.4385 17.4953 32.931 20.1401 33.7141 22.2607C34.5131 24.4308 34.7048 26.3996 33.4935 28.1367C32.319 29.8226 30.3582 30.5114 27.8844 30.8374C25.4218 31.1618 22.1075 31.1618 17.8583 31.1618H16.5C12.2492 31.1618 8.93647 31.1618 6.4739 30.8374C4.00013 30.5114 2.03934 29.8226 0.864782 28.1367C-0.346532 26.3996 -0.156365 24.4292 0.644252 22.2607C1.42729 20.1385 2.91986 17.4953 4.80714 14.1474L5.50389 12.9137C7.78748 8.86272 9.57249 5.69701 11.2568 3.55723ZM13.1409 5.04021C11.5844 7.01699 9.88731 10.0197 7.53499 14.1906L6.95331 15.2213C4.99411 18.6955 3.60222 21.1724 2.89429 23.0917C2.19435 24.9869 2.29023 25.9905 2.83037 26.7671C3.40726 27.5917 4.48913 28.1574 6.78711 28.4611C9.0755 28.7615 12.23 28.7647 16.5991 28.7647H17.7608C22.1283 28.7647 25.2828 28.7615 27.5728 28.4611C29.8692 28.1574 30.9511 27.5917 31.5263 26.7671C32.0681 25.9905 32.1656 24.9869 31.4656 23.0917C30.7561 21.1724 29.3642 18.6955 27.405 15.2213L26.8233 14.1906C24.471 10.0197 22.7739 7.01699 21.2174 5.04021C19.6753 3.08421 18.4784 2.39706 17.1792 2.39706C15.88 2.39706 14.683 3.08262 13.1409 5.04021Z" fill="url(#paint1_linear_3619_4126)"/>
<defs>
<linearGradient id="paint0_linear_3619_4126" x1="17.1801" y1="7.99219" x2="17.1801" y2="23.5731" gradientUnits="userSpaceOnUse">
<stop stop-color="#846424"/>
<stop offset="1" stop-color="#EDC452"/>
</linearGradient>
<linearGradient id="paint1_linear_3619_4126" x1="17.1789" y1="0" x2="17.1789" y2="31.1618" gradientUnits="userSpaceOnUse">
<stop stop-color="#846424"/>
<stop offset="1" stop-color="#EDC452"/>
</linearGradient>
</defs>
</svg>
