<svg width="22" height="18" viewBox="0 0 22 18" fill="none" xmlns="http://www.w3.org/2000/svg">
<path d="M8.492 0.679443L7.90625 0.749943C7.90625 0.749943 5.27825 1.03719 3.359 2.57844H3.3365L3.3125 2.60094C2.882 2.99694 2.6945 3.48369 2.39825 4.19544C2.04904 5.05176 1.75175 5.92835 1.508 6.82044C0.9515 8.83269 0.5 11.2702 0.5 13.4999V13.6874L0.59375 13.8749C1.28825 15.0937 2.52125 15.8699 3.66425 16.4062C4.8065 16.9424 5.79425 17.2267 6.47675 17.2499L6.92225 17.2732L7.15625 16.8749L7.97675 15.4214C8.84675 15.6179 9.84875 15.7499 11 15.7499C12.1512 15.7499 13.1532 15.6179 14.0233 15.4214L14.8438 16.8749L15.0785 17.2732L15.5233 17.2499C16.2058 17.2267 17.1935 16.9424 18.3358 16.4062C19.4788 15.8699 20.7118 15.0937 21.4062 13.8749L21.5 13.6874V13.4999C21.5 11.2702 21.0485 8.83269 20.492 6.82044C20.2483 5.92835 19.951 5.05176 19.6017 4.19544C19.3055 3.48294 19.118 2.99694 18.6875 2.60169L18.6642 2.57769H18.6403C16.7225 1.03719 14.0938 0.749943 14.0938 0.749943L13.508 0.679443L13.2965 1.21869C13.2965 1.21869 13.0798 1.76619 12.9455 2.39094C12.3007 2.30198 11.6509 2.25488 11 2.24994C10.5988 2.24994 9.905 2.27619 9.0545 2.39094C8.96579 1.99219 8.84824 1.60041 8.70275 1.21869L8.492 0.679443ZM7.46075 2.39094C7.493 2.49594 7.52525 2.58669 7.5545 2.67219C6.58475 2.91219 5.5505 3.27819 4.60175 3.86694L5.39825 5.13294C7.34375 3.92544 10.1383 3.74994 11 3.74994C11.861 3.74994 14.6562 3.92544 16.6017 5.13294L17.3983 3.86694C16.4495 3.27819 15.4152 2.91219 14.4455 2.67144C14.4747 2.58669 14.507 2.49594 14.5392 2.39019C15.239 2.53119 16.5755 2.85369 17.6795 3.72669C17.6735 3.72969 17.9608 4.16319 18.2188 4.78119C18.4827 5.41719 18.7752 6.26394 19.0392 7.21869C19.5462 9.04944 19.9445 11.2792 19.9767 13.2419C19.5042 13.9627 18.629 14.6129 17.7028 15.0472C17.1219 15.3217 16.5073 15.5184 15.875 15.6322L15.5 14.9999C15.7227 14.9174 15.9425 14.8274 16.133 14.7419C17.2873 14.2349 17.9142 13.6874 17.9142 13.6874L16.9295 12.5624C16.9295 12.5624 16.508 12.9494 15.5233 13.3829C14.54 13.8164 13.0363 14.2499 11 14.2499C8.96375 14.2499 7.46075 13.8164 6.47675 13.3829C5.492 12.9494 5.0705 12.5624 5.0705 12.5624L4.08575 13.6874C4.08575 13.6874 4.71275 14.2349 5.867 14.7419C6.0575 14.8274 6.27725 14.9182 6.5 14.9999L6.125 15.6329C5.49236 15.5187 4.87755 15.3215 4.2965 15.0464C3.371 14.6129 2.495 13.9627 2.024 13.2419C2.0555 11.2792 2.45375 9.04944 2.9615 7.21869C3.18586 6.39056 3.4596 5.57661 3.78125 4.78119C4.03925 4.16319 4.3265 3.72969 4.3205 3.72669C5.4245 2.85369 6.761 2.53119 7.46075 2.39094ZM8.375 7.49994C7.79525 7.49994 7.28225 7.83069 6.96875 8.24994C6.65525 8.66919 6.5 9.18444 6.5 9.74994C6.5 10.3154 6.65525 10.8307 6.96875 11.2499C7.28225 11.6692 7.79525 11.9999 8.375 11.9999C8.95475 11.9999 9.46775 11.6692 9.78125 11.2499C10.0948 10.8307 10.25 10.3154 10.25 9.74994C10.25 9.18444 10.0948 8.66919 9.78125 8.24994C9.46775 7.83069 8.95475 7.49994 8.375 7.49994ZM13.625 7.49994C13.0452 7.49994 12.5323 7.83069 12.2188 8.24994C11.9052 8.66919 11.75 9.18444 11.75 9.74994C11.75 10.3154 11.9052 10.8307 12.2188 11.2499C12.5323 11.6692 13.0452 11.9999 13.625 11.9999C14.2048 11.9999 14.7177 11.6692 15.0312 11.2499C15.3448 10.8307 15.5 10.3154 15.5 9.74994C15.5 9.18444 15.3448 8.66919 15.0312 8.24994C14.7177 7.83069 14.2048 7.49994 13.625 7.49994ZM8.375 8.99994C8.41625 8.99994 8.46875 9.01494 8.5625 9.14094C8.65625 9.26619 8.75 9.48594 8.75 9.74994C8.75 10.0139 8.65625 10.2337 8.5625 10.3597C8.46875 10.4849 8.41625 10.4999 8.375 10.4999C8.33375 10.4999 8.28125 10.4849 8.1875 10.3589C8.06347 10.1802 7.99796 9.96746 8 9.74994C8 9.48594 8.09375 9.26619 8.1875 9.14019C8.28125 9.01494 8.33375 8.99994 8.375 8.99994ZM13.625 8.99994C13.6663 8.99994 13.7188 9.01494 13.8125 9.14094C13.9062 9.26619 14 9.48594 14 9.74994C14 10.0139 13.9062 10.2337 13.8125 10.3597C13.7188 10.4849 13.6663 10.4999 13.625 10.4999C13.5837 10.4999 13.5312 10.4849 13.4375 10.3589C13.3135 10.1802 13.248 9.96746 13.25 9.74994C13.25 9.48594 13.3438 9.26619 13.4375 9.14019C13.5312 9.01494 13.5837 8.99994 13.625 8.99994Z" fill="white"/>
</svg>
