<svg width="14" height="22" viewBox="0 0 14 22" fill="none" xmlns="http://www.w3.org/2000/svg">
<path d="M6.21476 1.24995L0.19751 10.6647L7.00301 14.0097L13.7005 10.6617L7.78976 1.24995L7.00001 0L6.21476 1.24995ZM6.25001 3.47V7.24095L3 8.5L6.25001 3.47ZM7.75001 3.5L11 8.5L7.75001 7.2537V3.5ZM6.25001 8.55045V12.1437L2 10L6.25001 8.55045ZM7.75001 8.5677L12 10L7.75001 12.1339V8.5677ZM0.25001 12.1339V14.0239L6.19601 20.6562L7.00001 21.4999L7.80401 20.6562L13.75 14.0232V12.1332L7.00001 15.5937L0.25001 12.1339ZM2.99201 15L6.25001 16.7373V18.6064L2.99201 15ZM10.9345 15L7.75001 18.6064V16.7373L10.9345 15Z" fill="white"/>
</svg>
