<svg width="10" height="15" viewBox="0 0 10 15" fill="none" xmlns="http://www.w3.org/2000/svg">
<path d="M4.47634 1.50029L0.464844 7.77679L5.00184 10.0068L9.46684 7.77479L5.52634 1.50029L4.99984 0.666992L4.47634 1.50029ZM4.49984 2.98033V5.49429L2.33317 6.33366L4.49984 2.98033ZM5.49984 3.00033L7.6665 6.33366L5.49984 5.50279V3.00033ZM4.49984 6.36729V8.76279L1.6665 7.33366L4.49984 6.36729ZM5.49984 6.37879L8.33317 7.33366L5.49984 8.75629V6.37879ZM0.499844 8.75629V10.0163L4.46384 14.4378L4.99984 15.0003L5.53584 14.4378L9.49984 10.0158V8.75579L4.99984 11.0628L0.499844 8.75629ZM2.32784 10.667L4.49984 11.8252V13.0713L2.32784 10.667ZM7.62284 10.667L5.49984 13.0713V11.8252L7.62284 10.667Z" fill="white"/>
</svg>
