<svg width="24px" height="24px" viewBox="0 0 24 24" fill="none" xmlns="http://www.w3.org/2000/svg" transform="rotate(0) scale(1, 1)">
<path d="M12.8762 22.1077V22.159L12.9273 22.1544C15.5415 21.9157 17.9631 20.6785 19.6883 18.7C21.4135 16.7215 22.3096 14.1541 22.1902 11.5317C22.0707 8.90942 20.9449 6.43408 19.047 4.62062C17.149 2.80716 14.625 1.79518 12 1.79518C9.37496 1.79518 6.85096 2.80716 4.95302 4.62062C3.05507 6.43408 1.92929 8.90942 1.80985 11.5317C1.69041 14.1541 2.58649 16.7215 4.31172 18.7C6.03694 20.6785 8.45849 21.9157 11.0727 22.1544L11.1238 22.159V22.1077V14.7692V14.7224H11.0769H8.3077C8.07531 14.7224 7.85245 14.63 7.68813 14.4657C7.52381 14.3014 7.43149 14.0785 7.43149 13.8462C7.43149 13.6138 7.52381 13.3909 7.68813 13.2266C7.85245 13.0623 8.07531 12.97 8.3077 12.97H11.0769H11.1238V12.9231V10.154C11.1268 9.18805 11.5119 8.26253 12.1949 7.5795C12.8779 6.89647 13.8034 6.51142 14.7694 6.50842H16.6154C16.8478 6.50842 17.0706 6.60073 17.235 6.76505C17.3993 6.92937 17.4916 7.15224 17.4916 7.38462C17.4916 7.617 17.3993 7.83987 17.235 8.00419C17.0706 8.16851 16.8478 8.26082 16.6154 8.26082H14.7692C14.2672 8.26082 13.7857 8.46026 13.4307 8.81528C13.0756 9.17029 12.8762 9.65179 12.8762 10.1538V12.9231V12.97H12.9231H15.6923C15.9247 12.97 16.1476 13.0623 16.3119 13.2266C16.4762 13.3909 16.5685 13.6138 16.5685 13.8462C16.5685 14.0785 16.4762 14.3014 16.3119 14.4657C16.1476 14.63 15.9247 14.7224 15.6923 14.7224H12.9231H12.8762V14.7692V22.1077ZM21.9387 5.3592C23.2521 7.32487 23.9531 9.63587 23.9531 12C23.9501 15.1692 22.6898 18.2078 20.4488 20.4488C18.2078 22.6898 15.1692 23.9501 12 23.9531C9.63587 23.9531 7.32487 23.2521 5.3592 21.9387C3.39352 20.6252 1.86146 18.7584 0.956758 16.5743C0.0520541 14.3901 -0.184658 11.9867 0.276556 9.66807C0.73777 7.34939 1.87619 5.21954 3.54787 3.54787C5.21954 1.87619 7.34939 0.73777 9.66807 0.276556C11.9867 -0.184658 14.3901 0.0520541 16.5743 0.956758C18.7584 1.86146 20.6252 3.39352 21.9387 5.3592Z" fill="#d6aded" stroke="#d6aded" stroke-width="0.09375"/>
</svg>