<svg width="24" height="24" viewBox="0 0 24 24" fill="none" xmlns="http://www.w3.org/2000/svg">
<path d="M24 12C24 9.62663 23.2962 7.30655 21.9776 5.33316C20.6591 3.35977 18.7849 1.8217 16.5922 0.913451C14.3995 0.00519941 11.9867 -0.232441 9.65892 0.230582C7.33115 0.693605 5.19295 1.83649 3.51472 3.51472C1.83649 5.19295 0.693605 7.33115 0.230582 9.65892C-0.232441 11.9867 0.00519941 14.3995 0.913451 16.5922C1.8217 18.7849 3.35977 20.6591 5.33316 21.9776C7.30655 23.2962 9.62663 24 12 24C15.1817 23.9969 18.2321 22.7317 20.4819 20.4819C22.7317 18.2321 23.9969 15.1817 24 12ZM12.9231 22.1077V14.7692H15.6923C15.9371 14.7692 16.1719 14.672 16.345 14.4989C16.5181 14.3258 16.6154 14.091 16.6154 13.8462C16.6154 13.6013 16.5181 13.3666 16.345 13.1934C16.1719 13.0203 15.9371 12.9231 15.6923 12.9231H12.9231V10.1538C12.9231 9.66422 13.1176 9.19464 13.4638 8.84842C13.81 8.5022 14.2796 8.3077 14.7692 8.3077H16.6154C16.8602 8.3077 17.095 8.21044 17.2681 8.03733C17.4412 7.86422 17.5385 7.62943 17.5385 7.38462C17.5385 7.1398 17.4412 6.90502 17.2681 6.73191C17.095 6.55879 16.8602 6.46154 16.6154 6.46154H14.7692C13.7909 6.46459 12.8535 6.85457 12.1617 7.54636C11.47 8.23814 11.08 9.17552 11.0769 10.1538V12.9231H8.3077C8.06288 12.9231 7.82809 13.0203 7.65498 13.1934C7.48187 13.3666 7.38462 13.6013 7.38462 13.8462C7.38462 14.091 7.48187 14.3258 7.65498 14.4989C7.82809 14.672 8.06288 14.7692 8.3077 14.7692H11.0769V22.1077C8.47477 21.8701 6.06435 20.6386 4.34705 18.6692C2.62975 16.6998 1.73778 14.1442 1.85668 11.5339C1.97557 8.9236 3.09618 6.45964 4.9854 4.65451C6.87462 2.84938 9.38702 1.84205 12 1.84205C14.613 1.84205 17.1254 2.84938 19.0146 4.65451C20.9038 6.45964 22.0244 8.9236 22.1433 11.5339C22.2622 14.1442 21.3703 16.6998 19.653 18.6692C17.9357 20.6386 15.5252 21.8701 12.9231 22.1077Z" fill="white"/>
</svg>
