<svg width="60" height="54" viewBox="0 0 60 54" fill="none" xmlns="http://www.w3.org/2000/svg">
<rect x="0.5" y="0.5" width="59" height="53" rx="6.5" stroke="url(#paint0_linear_3898_3546)"/>
<path d="M21.625 21.874H39.125C40.2986 21.874 41.25 22.8254 41.25 23.999V34.499C41.25 35.6726 40.2986 36.624 39.125 36.624H21.625C20.4514 36.624 19.5 35.6726 19.5 34.499V23.999C19.5 22.8254 20.4514 21.874 21.625 21.874Z" stroke="url(#paint1_linear_3898_3546)"/>
<mask id="path-3-inside-1_3898_3546" fill="white">
<path d="M38.8713 21.3741V19.7335C38.8711 19.3311 38.7822 18.9337 38.6108 18.5697C38.4394 18.2056 38.1897 17.8839 37.8797 17.6274C37.5696 17.3709 37.2068 17.186 36.817 17.0859C36.4273 16.9859 36.0203 16.973 35.625 17.0483L21.2225 19.5065C20.5971 19.6257 20.0328 19.9595 19.6271 20.4501C19.2213 20.9408 18.9996 21.5577 19 22.1944V24.8741"/>
</mask>
<path d="M38.8713 19.7335H39.8713V19.7332L38.8713 19.7335ZM35.625 17.0483L35.7932 18.0341L35.8027 18.0325L35.8122 18.0307L35.625 17.0483ZM21.2225 19.5065L21.0543 18.5208L21.0448 18.5224L21.0353 18.5242L21.2225 19.5065ZM19 22.1944H20L20 22.1938L19 22.1944ZM39.8713 21.3741V19.7335H37.8713V21.3741H39.8713ZM39.8713 19.7332C39.8711 19.1836 39.7496 18.6409 39.5155 18.1437L37.706 18.9956C37.8148 19.2265 37.8712 19.4786 37.8713 19.7338L39.8713 19.7332ZM39.5155 18.1437C39.2814 17.6465 38.9405 17.2071 38.5171 16.8568L37.2423 18.3979C37.439 18.5606 37.5973 18.7647 37.706 18.9956L39.5155 18.1437ZM38.5171 16.8568C38.0936 16.5066 37.5981 16.2541 37.0658 16.1174L36.5683 18.0545C36.8155 18.118 37.0456 18.2353 37.2423 18.3979L38.5171 16.8568ZM37.0658 16.1174C36.5335 15.9807 35.9776 15.9631 35.4378 16.066L35.8122 18.0307C36.0629 17.9829 36.3211 17.991 36.5683 18.0545L37.0658 16.1174ZM35.4568 16.0626L21.0543 18.5208L21.3907 20.4923L35.7932 18.0341L35.4568 16.0626ZM21.0353 18.5242C20.1811 18.687 19.4105 19.1428 18.8564 19.8129L20.3977 21.0874C20.6551 20.7761 21.013 20.5645 21.4097 20.4889L21.0353 18.5242ZM18.8564 19.8129C18.3023 20.4831 17.9994 21.3256 18 22.1951L20 22.1938C19.9997 21.7899 20.1404 21.3986 20.3977 21.0874L18.8564 19.8129ZM18 22.1944V24.8741H20V22.1944H18Z" fill="url(#paint2_linear_3898_3546)" mask="url(#path-3-inside-1_3898_3546)"/>
<path d="M36.5 30.499C36.2528 30.499 36.0111 30.4257 35.8055 30.2884C35.6 30.151 35.4398 29.9558 35.3452 29.7274C35.2505 29.499 35.2258 29.2476 35.274 29.0052C35.3223 28.7627 35.4413 28.54 35.6161 28.3651C35.7909 28.1903 36.0137 28.0713 36.2561 28.023C36.4986 27.9748 36.7499 27.9996 36.9784 28.0942C37.2068 28.1888 37.402 28.349 37.5393 28.5546C37.6767 28.7601 37.75 29.0018 37.75 29.249C37.75 29.5805 37.6183 29.8985 37.3839 30.1329C37.1495 30.3673 36.8315 30.499 36.5 30.499Z" stroke="url(#paint3_linear_3898_3546)"/>
<defs>
<linearGradient id="paint0_linear_3898_3546" x1="30" y1="0" x2="30" y2="54" gradientUnits="userSpaceOnUse">
<stop stop-color="#846424"/>
<stop offset="1" stop-color="#EDC452"/>
</linearGradient>
<linearGradient id="paint1_linear_3898_3546" x1="30.375" y1="21.374" x2="30.375" y2="37.124" gradientUnits="userSpaceOnUse">
<stop stop-color="#846424"/>
<stop offset="1" stop-color="#EDC452"/>
</linearGradient>
<linearGradient id="paint2_linear_3898_3546" x1="28.9356" y1="17" x2="28.9356" y2="24.8741" gradientUnits="userSpaceOnUse">
<stop stop-color="#846424"/>
<stop offset="1" stop-color="#EDC452"/>
</linearGradient>
<linearGradient id="paint3_linear_3898_3546" x1="36.5" y1="27.499" x2="36.5" y2="30.999" gradientUnits="userSpaceOnUse">
<stop stop-color="#846424"/>
<stop offset="1" stop-color="#EDC452"/>
</linearGradient>
</defs>
</svg>
