<svg width="22" height="22" viewBox="0 0 22 22" fill="none" xmlns="http://www.w3.org/2000/svg">
<path d="M5.26178 1.6148L7.73082 9.20573L7.81506 9.46474H8.08743H13.9119H14.1844L14.2686 9.20564L16.7355 1.61512L19.7716 9.71039L19.7716 9.71042L21.2007 13.5218L10.9997 20.9425L0.798001 13.5218L2.22779 9.71045L2.22824 9.70922L2.4093 9.22141L2.40974 9.22022L5.26178 1.6148ZM5.54377 4.90418L5.21223 3.88555L4.83606 4.88855L3.30981 8.95805L3.11978 9.46474H3.66093H6.51168H7.02809L6.86827 8.97368L5.54377 4.90418ZM17.1633 4.88855L16.787 3.88528L16.4556 4.90424L15.1318 8.97374L14.9721 9.46474H15.4884H18.3384H18.8796L18.6895 8.95805L17.1633 4.88855ZM3.09843 10.2147H2.83844L2.74725 10.4582L1.8015 12.9835L1.7015 13.2505L1.93205 13.4182L9.34955 18.8152L10.2835 19.4947L9.92686 18.3962L7.35511 10.474L7.27096 10.2147H6.99843H3.09843ZM8.57343 10.2147H8.05718L8.2168 10.7057L10.6431 18.1682L10.9997 19.2651L11.3563 18.1682L13.7826 10.7057L13.9422 10.2147H13.4259H8.57343ZM15.0009 10.2147H14.7285L14.6443 10.4738L12.0695 18.3961L11.7125 19.4947L12.6467 18.8153L20.068 13.4183L20.2989 13.2503L20.1984 12.983L19.2489 10.4578L19.1576 10.2147H18.8979H15.0009Z" fill="#846424" stroke="#846424" stroke-width="0.75"/>
</svg>
