<svg width="22" height="22" viewBox="0 0 22 22" fill="none" xmlns="http://www.w3.org/2000/svg">
<path d="M5.28693 0.479736L2.05818 9.08974L1.87668 9.57874L0.34668 13.6572L10.9997 21.4062L21.6519 13.6572L20.1227 9.57874L16.7102 0.479736L13.9119 9.08974H8.08743L5.28693 0.479736ZM5.18718 5.02024L6.51168 9.08974H3.66093L5.18718 5.02024ZM16.8122 5.02024L18.3384 9.08974H15.4884L16.8122 5.02024ZM3.09843 10.5897H6.99843L9.57018 18.512L2.15268 13.115L3.09843 10.5897ZM8.57343 10.5897H13.4259L10.9997 18.0522L8.57343 10.5897ZM15.0009 10.5897H18.8979L19.8474 13.115L12.4262 18.512L15.0009 10.5897Z" fill="white"/>
</svg>
