<svg width="440" height="440" viewBox="0 0 440 440" fill="none" xmlns="http://www.w3.org/2000/svg">
<circle cx="220" cy="220" r="220" fill="#384AFF"/>
<path d="M145 324.564C145 321.73 145.73 321 148.52 321H154.529C157.234 321.043 158.006 321.73 158.049 324.435V342.253C158.049 345.902 159.766 346.89 162.9 345.173C173.116 339.591 190.93 342.897 191.875 361.273V391.5C191.875 393.475 190.844 394.462 188.827 394.548C186.767 394.634 184.663 394.591 182.603 394.548C179.898 394.505 178.911 393.518 178.911 390.77V365.223C178.911 356.808 171.442 352.214 163.844 355.992C161.183 357.323 159.552 359.47 158.736 362.304C158.264 364.021 158.092 365.824 158.092 367.628V390.384C158.092 393.861 157.32 394.591 153.8 394.591H149.293C145.944 394.591 145.086 393.775 145.086 390.469V324.564H145ZM258.323 324.564C258.323 321.73 259.01 321.043 261.843 321.043C263.904 321.043 266.007 321 268.068 321.043C270.514 321.086 271.287 321.816 271.287 324.263V390.555C271.287 393.947 270.686 394.548 267.295 394.548C265.363 394.548 263.432 394.591 261.5 394.548C259.139 394.505 258.281 393.647 258.281 391.285C258.323 384.845 258.323 308.763 258.323 324.564V324.564ZM250.039 346.804C250.039 345.044 249.438 344.099 247.592 344.142C244.802 344.185 242.012 344.142 239.222 344.142C238.106 344.142 237.376 344.529 236.989 345.731C236.346 347.963 235.659 348.092 233.641 346.718C225.915 341.48 217.759 341.265 209.732 345.559C199.73 350.883 194.794 362.003 196.682 374.068C199.773 393.775 220.849 401.761 234.113 391.543C235.487 390.512 236.603 390.985 236.947 392.659C237.247 394.205 238.234 394.548 239.608 394.505H246.905C249.567 394.505 250.039 394.033 250.039 391.371V346.804V346.804ZM223.124 383.471C215.312 383.471 209.002 377.159 209.002 369.345C209.002 361.531 215.312 355.219 223.124 355.219C230.937 355.219 237.247 361.531 237.247 369.345C237.247 377.159 230.937 383.471 223.124 383.471Z" fill="white"/>
<path d="M286.611 394.076C291.139 394.076 294.81 390.404 294.81 385.875C294.81 381.346 291.139 377.675 286.611 377.675C282.083 377.675 278.413 381.346 278.413 385.875C278.413 390.404 282.083 394.076 286.611 394.076Z" fill="#F7ED45"/>
<path d="M322.62 245.362C322.049 230.407 316.686 215.853 307.366 204.12C303.122 198.778 299.828 192.793 297.572 186.326C295.32 179.887 294.179 173.153 294.179 166.311V154.393C294.179 119.898 270.63 90.8026 238.765 82.3293V45.1456C238.765 34.5881 230.177 26 219.62 26C209.063 26 200.474 34.5881 200.474 45.1456V82.3075C187.891 85.6286 176.35 92.2229 166.899 101.671C152.816 115.753 145.06 134.477 145.06 154.392V166.311C145.06 179.988 140.377 193.416 131.874 204.119C126.946 210.322 123.121 217.272 120.505 224.771C118.182 231.415 116.882 238.332 116.619 245.365C110.956 247.907 107 253.595 107 260.195C107 269.155 114.289 276.445 123.25 276.445H185.527C187.911 293.13 202.289 306 219.624 306C236.958 306 251.336 293.13 253.72 276.445H315.997C324.957 276.445 332.247 269.155 332.247 260.195C332.246 253.593 328.286 247.903 322.62 245.362ZM210.266 45.1456C210.266 39.9874 214.462 35.7907 219.62 35.7907C224.778 35.7907 228.975 39.9869 228.975 45.1456V80.4191C225.91 80.0341 222.788 79.8334 219.62 79.8334C216.468 79.8334 213.345 80.0292 210.266 80.4125V45.1456V45.1456ZM129.748 227.999C132.002 221.536 135.296 215.551 139.539 210.209C149.413 197.78 154.851 182.19 154.851 166.311V154.392C154.851 137.091 161.588 120.827 173.821 108.594C186.06 96.3605 202.325 89.6236 219.62 89.6236C255.334 89.6236 284.389 118.679 284.389 154.392V166.311C284.389 174.256 285.715 182.077 288.33 189.554C290.947 197.056 294.772 204.005 299.7 210.209C307.356 219.846 311.902 231.694 312.735 243.945H126.503C126.866 238.506 127.944 233.158 129.748 227.999ZM219.623 296.21C207.701 296.21 197.729 287.705 195.453 276.445H243.792C241.516 287.706 231.544 296.21 219.623 296.21ZM315.995 266.654H123.249C119.688 266.654 116.79 263.757 116.79 260.195C116.79 256.634 119.687 253.736 123.249 253.736H315.995C319.557 253.736 322.454 256.634 322.454 260.195C322.455 263.757 319.557 266.654 315.995 266.654Z" fill="white"/>
</svg>
