<svg width="336" height="336" viewBox="0 0 336 336" fill="none" xmlns="http://www.w3.org/2000/svg">
<rect x="208.5" y="0.5" width="127" height="127" rx="15.5" stroke="url(#paint0_linear_80_1384)"/>
<path d="M274.25 38.25L279.5 43.5M279.5 43.5L274.25 48.75M279.5 43.5H264.5M269.75 57.75L264.5 52.5M264.5 52.5L269.75 47.25M264.5 52.5H279.5" stroke="#846424" stroke-width="1.5" stroke-linecap="round" stroke-linejoin="round"/>
<path d="M252.354 85.14C251.598 85.14 250.865 85.0327 250.156 84.818C249.456 84.6033 248.901 84.3187 248.49 83.964L249.12 82.55C249.521 82.8673 250.011 83.1287 250.59 83.334C251.178 83.53 251.766 83.628 252.354 83.628C253.082 83.628 253.623 83.5113 253.978 83.278C254.342 83.0447 254.524 82.7367 254.524 82.354C254.524 82.074 254.421 81.8453 254.216 81.668C254.02 81.4813 253.768 81.3367 253.46 81.234C253.152 81.1313 252.732 81.0147 252.2 80.884C251.453 80.7067 250.847 80.5293 250.38 80.352C249.923 80.1747 249.526 79.8993 249.19 79.526C248.863 79.1433 248.7 78.63 248.7 77.986C248.7 77.4447 248.845 76.9547 249.134 76.516C249.433 76.068 249.876 75.7133 250.464 75.452C251.061 75.1907 251.789 75.06 252.648 75.06C253.245 75.06 253.833 75.1347 254.412 75.284C254.991 75.4333 255.49 75.648 255.91 75.928L255.336 77.342C254.907 77.09 254.459 76.8987 253.992 76.768C253.525 76.6373 253.073 76.572 252.634 76.572C251.915 76.572 251.379 76.6933 251.024 76.936C250.679 77.1787 250.506 77.5007 250.506 77.902C250.506 78.182 250.604 78.4107 250.8 78.588C251.005 78.7653 251.262 78.9053 251.57 79.008C251.878 79.1107 252.298 79.2273 252.83 79.358C253.558 79.526 254.155 79.7033 254.622 79.89C255.089 80.0673 255.485 80.3427 255.812 80.716C256.148 81.0893 256.316 81.5933 256.316 82.228C256.316 82.7693 256.167 83.2593 255.868 83.698C255.579 84.1367 255.135 84.4867 254.538 84.748C253.941 85.0093 253.213 85.14 252.354 85.14ZM273.443 75.2L270.195 85H268.263L265.841 77.748L263.377 85H261.431L258.183 75.2H260.073L262.509 82.648L265.043 75.2H266.723L269.201 82.69L271.707 75.2H273.443ZM281.967 82.732H277.067L276.101 85H274.225L278.635 75.2H280.427L284.851 85H282.947L281.967 82.732ZM281.365 81.304L279.517 77.02L277.683 81.304H281.365ZM291.129 75.2C291.979 75.2 292.716 75.34 293.341 75.62C293.976 75.9 294.461 76.3013 294.797 76.824C295.133 77.3467 295.301 77.9673 295.301 78.686C295.301 79.3953 295.133 80.016 294.797 80.548C294.461 81.0707 293.976 81.472 293.341 81.752C292.716 82.032 291.979 82.172 291.129 82.172H288.917V85H287.097V75.2H291.129ZM291.045 80.632C291.839 80.632 292.441 80.464 292.851 80.128C293.262 79.792 293.467 79.3113 293.467 78.686C293.467 78.0607 293.262 77.58 292.851 77.244C292.441 76.908 291.839 76.74 291.045 76.74H288.917V80.632H291.045Z" fill="#846424"/>
<rect x="0.5" y="0.5" width="127" height="127" rx="15.5" stroke="url(#paint1_linear_80_1384)"/>
<path d="M67.0885 44.0353C62.9218 41.3437 58.6093 43.2759 54.6249 39.0572C53.6968 38.0728 54.2359 50.0962 59.2234 54.6525C62.8698 57.9806 68.4999 57.6093 70.3984 54.375C72.2968 51.1406 71.2552 46.7264 67.0885 44.0353V44.0353Z" stroke="#846424" stroke-width="1.5" stroke-linecap="round" stroke-linejoin="round"/>
<path d="M60.1094 47.8594C64.1406 51.6562 68.3125 53.9062 73.7969 54.75" stroke="#846424" stroke-width="1.5" stroke-linecap="round" stroke-linejoin="round"/>
<path d="M53.818 85L53.804 78.504L50.584 83.88H49.772L46.552 78.588V85H44.816V75.2H46.314L50.206 81.696L54.028 75.2H55.526L55.54 85H53.818ZM59.1871 75.2H61.0071V85H59.1871V75.2ZM73.3658 75.2V85H71.8678L66.4638 78.364V85H64.6578V75.2H66.1558L71.5598 81.836V75.2H73.3658ZM78.9798 76.74H75.7318V75.2H84.0478V76.74H80.7998V85H78.9798V76.74Z" fill="#846424"/>
<rect x="208.5" y="208.5" width="127" height="127" rx="15.5" stroke="url(#paint2_linear_80_1384)"/>
<path d="M268.25 264.25C268.664 264.25 269 263.914 269 263.5C269 263.086 268.664 262.75 268.25 262.75C267.836 262.75 267.5 263.086 267.5 263.5C267.5 263.914 267.836 264.25 268.25 264.25Z" stroke="#846424" stroke-width="1.5" stroke-linecap="round" stroke-linejoin="round"/>
<path d="M278.75 264.25C279.164 264.25 279.5 263.914 279.5 263.5C279.5 263.086 279.164 262.75 278.75 262.75C278.336 262.75 278 263.086 278 263.5C278 263.914 278.336 264.25 278.75 264.25Z" stroke="#846424" stroke-width="1.5" stroke-linecap="round" stroke-linejoin="round"/>
<path d="M262.25 247.75H265.25L267.5 260.5H279.5" stroke="#846424" stroke-width="1.5" stroke-linecap="round" stroke-linejoin="round"/>
<path d="M267.5 257.5H279.193C279.279 257.5 279.363 257.47 279.43 257.415C279.497 257.36 279.543 257.284 279.56 257.199L280.91 250.449C280.921 250.394 280.92 250.338 280.907 250.284C280.893 250.23 280.868 250.18 280.833 250.137C280.797 250.094 280.753 250.06 280.703 250.036C280.653 250.012 280.598 250 280.542 250H266" stroke="#846424" stroke-width="1.5" stroke-linecap="round" stroke-linejoin="round"/>
<path d="M253.354 293.14C252.598 293.14 251.865 293.033 251.156 292.818C250.456 292.603 249.901 292.319 249.49 291.964L250.12 290.55C250.521 290.867 251.011 291.129 251.59 291.334C252.178 291.53 252.766 291.628 253.354 291.628C254.082 291.628 254.623 291.511 254.978 291.278C255.342 291.045 255.524 290.737 255.524 290.354C255.524 290.074 255.421 289.845 255.216 289.668C255.02 289.481 254.768 289.337 254.46 289.234C254.152 289.131 253.732 289.015 253.2 288.884C252.453 288.707 251.847 288.529 251.38 288.352C250.923 288.175 250.526 287.899 250.19 287.526C249.863 287.143 249.7 286.63 249.7 285.986C249.7 285.445 249.845 284.955 250.134 284.516C250.433 284.068 250.876 283.713 251.464 283.452C252.061 283.191 252.789 283.06 253.648 283.06C254.245 283.06 254.833 283.135 255.412 283.284C255.991 283.433 256.49 283.648 256.91 283.928L256.336 285.342C255.907 285.09 255.459 284.899 254.992 284.768C254.525 284.637 254.073 284.572 253.634 284.572C252.915 284.572 252.379 284.693 252.024 284.936C251.679 285.179 251.506 285.501 251.506 285.902C251.506 286.182 251.604 286.411 251.8 286.588C252.005 286.765 252.262 286.905 252.57 287.008C252.878 287.111 253.298 287.227 253.83 287.358C254.558 287.526 255.155 287.703 255.622 287.89C256.089 288.067 256.485 288.343 256.812 288.716C257.148 289.089 257.316 289.593 257.316 290.228C257.316 290.769 257.167 291.259 256.868 291.698C256.579 292.137 256.135 292.487 255.538 292.748C254.941 293.009 254.213 293.14 253.354 293.14ZM268.829 283.2V293H267.009V288.8H261.941V293H260.121V283.2H261.941V287.246H267.009V283.2H268.829ZM277.033 293.14C276.034 293.14 275.133 292.925 274.331 292.496C273.528 292.057 272.898 291.455 272.441 290.69C271.983 289.915 271.755 289.052 271.755 288.1C271.755 287.148 271.983 286.289 272.441 285.524C272.898 284.749 273.528 284.147 274.331 283.718C275.133 283.279 276.034 283.06 277.033 283.06C278.031 283.06 278.932 283.279 279.735 283.718C280.537 284.147 281.167 284.745 281.625 285.51C282.082 286.275 282.311 287.139 282.311 288.1C282.311 289.061 282.082 289.925 281.625 290.69C281.167 291.455 280.537 292.057 279.735 292.496C278.932 292.925 278.031 293.14 277.033 293.14ZM277.033 291.544C277.686 291.544 278.274 291.399 278.797 291.11C279.319 290.811 279.73 290.401 280.029 289.878C280.327 289.346 280.477 288.753 280.477 288.1C280.477 287.447 280.327 286.859 280.029 286.336C279.73 285.804 279.319 285.393 278.797 285.104C278.274 284.805 277.686 284.656 277.033 284.656C276.379 284.656 275.791 284.805 275.269 285.104C274.746 285.393 274.335 285.804 274.037 286.336C273.738 286.859 273.589 287.447 273.589 288.1C273.589 288.753 273.738 289.346 274.037 289.878C274.335 290.401 274.746 290.811 275.269 291.11C275.791 291.399 276.379 291.544 277.033 291.544ZM289.272 283.2C290.121 283.2 290.858 283.34 291.484 283.62C292.118 283.9 292.604 284.301 292.94 284.824C293.276 285.347 293.444 285.967 293.444 286.686C293.444 287.395 293.276 288.016 292.94 288.548C292.604 289.071 292.118 289.472 291.484 289.752C290.858 290.032 290.121 290.172 289.272 290.172H287.06V293H285.24V283.2H289.272ZM289.188 288.632C289.981 288.632 290.583 288.464 290.994 288.128C291.404 287.792 291.61 287.311 291.61 286.686C291.61 286.061 291.404 285.58 290.994 285.244C290.583 284.908 289.981 284.74 289.188 284.74H287.06V288.632H289.188Z" fill="#846424"/>
<rect x="0.5" y="208.5" width="127" height="127" rx="15.5" stroke="url(#paint3_linear_80_1384)"/>
<path d="M64 256.75V264.25C64 264.648 63.842 265.029 63.5607 265.311C63.2794 265.592 62.8978 265.75 62.5 265.75C62.1022 265.75 61.7206 265.592 61.4393 265.311C61.158 265.029 61 264.648 61 264.25M64 256.75L63.5458 256.409C62.8392 255.879 61.9652 255.622 61.0843 255.685C60.2034 255.747 59.3746 256.126 58.75 256.75C58.4545 256.455 58.1038 256.22 57.7177 256.06C57.3316 255.9 56.9179 255.818 56.5 255.818C56.0821 255.818 55.6684 255.9 55.2823 256.06C54.8962 256.22 54.5455 256.455 54.25 256.75C54.25 251.365 58.615 247 64 247M64 256.75L64.4542 256.409C65.1608 255.879 66.0348 255.622 66.9157 255.685C67.7966 255.747 68.6254 256.126 69.25 256.75C69.5455 256.455 69.8962 256.22 70.2823 256.06C70.6684 255.9 71.0821 255.818 71.5 255.818C71.9179 255.818 72.3316 255.9 72.7177 256.06C73.1038 256.22 73.4545 256.455 73.75 256.75C73.75 251.365 69.385 247 64 247M64 247V246.25" stroke="#846424" stroke-width="1.5" stroke-linecap="round" stroke-linejoin="round"/>
<path d="M42.816 283.2H44.636V291.46H49.76V293H42.816V283.2ZM56.5971 293.14C55.5985 293.14 54.6978 292.925 53.8951 292.496C53.0925 292.057 52.4625 291.455 52.0051 290.69C51.5478 289.915 51.3191 289.052 51.3191 288.1C51.3191 287.148 51.5478 286.289 52.0051 285.524C52.4625 284.749 53.0925 284.147 53.8951 283.718C54.6978 283.279 55.5985 283.06 56.5971 283.06C57.5958 283.06 58.4965 283.279 59.2991 283.718C60.1018 284.147 60.7318 284.745 61.1891 285.51C61.6465 286.275 61.8751 287.139 61.8751 288.1C61.8751 289.061 61.6465 289.925 61.1891 290.69C60.7318 291.455 60.1018 292.057 59.2991 292.496C58.4965 292.925 57.5958 293.14 56.5971 293.14ZM56.5971 291.544C57.2505 291.544 57.8385 291.399 58.3611 291.11C58.8838 290.811 59.2945 290.401 59.5931 289.878C59.8918 289.346 60.0411 288.753 60.0411 288.1C60.0411 287.447 59.8918 286.859 59.5931 286.336C59.2945 285.804 58.8838 285.393 58.3611 285.104C57.8385 284.805 57.2505 284.656 56.5971 284.656C55.9438 284.656 55.3558 284.805 54.8331 285.104C54.3105 285.393 53.8998 285.804 53.6011 286.336C53.3025 286.859 53.1531 287.447 53.1531 288.1C53.1531 288.753 53.3025 289.346 53.6011 289.878C53.8998 290.401 54.3105 290.811 54.8331 291.11C55.3558 291.399 55.9438 291.544 56.5971 291.544ZM71.0236 290.732H66.1236L65.1576 293H63.2816L67.6916 283.2H69.4836L73.9076 293H72.0036L71.0236 290.732ZM70.4216 289.304L68.5736 285.02L66.7396 289.304H70.4216ZM84.8619 283.2V293H83.3639L77.9599 286.364V293H76.1539V283.2H77.6519L83.0559 289.836V283.2H84.8619Z" fill="#846424"/>
<mask id="mask0_80_1384" style="mask-type:alpha" maskUnits="userSpaceOnUse" x="39" y="39" width="258" height="258">
<path fill-rule="evenodd" clip-rule="evenodd" d="M166.643 40.5C165.657 40.5 164.857 41.2995 164.857 42.2857C164.857 42.609 164.943 42.9109 165.092 43.1715C165.401 43.7102 165.98 44.0714 166.643 44.0714C167.306 44.0714 167.885 43.7102 168.194 43.1715C168.343 42.9109 168.429 42.609 168.429 42.2857C168.429 41.2995 167.629 40.5 166.643 40.5ZM163.857 42.2857C163.857 40.7472 165.105 39.5 166.643 39.5C168.182 39.5 169.429 40.7472 169.429 42.2857C169.429 42.7879 169.295 43.2605 169.062 43.6684C168.661 44.3676 167.965 44.8776 167.143 45.0267L167.143 123L168.123 159.496L175.113 159.165L174.143 123.008V78.2857C174.143 69.173 181.53 61.7857 190.643 61.7857L205.973 61.7857C206.209 60.4858 207.346 59.5 208.714 59.5C210.253 59.5 211.5 60.7472 211.5 62.2857C211.5 62.788 211.367 63.2605 211.133 63.6684C210.654 64.5056 209.75 65.0714 208.714 65.0714C207.678 65.0714 206.775 64.5056 206.296 63.6684C206.141 63.399 206.031 63.1014 205.973 62.7857L190.643 62.7857C182.083 62.7857 175.143 69.7253 175.143 78.2857V123L176.112 159.135L212.992 158.143H257.714C266.275 158.143 273.214 151.203 273.214 142.643V127.429H274.214V142.643C274.214 151.756 266.827 159.143 257.714 159.143H213L176.142 160.134L176.474 167.124L212.992 166.143L290.973 166.143C291.122 165.321 291.632 164.625 292.332 164.224C292.739 163.991 293.212 163.857 293.714 163.857C295.253 163.857 296.5 165.105 296.5 166.643C296.5 168.182 295.253 169.429 293.714 169.429C293.212 169.429 292.739 169.295 292.332 169.062C291.632 168.661 291.122 167.965 290.973 167.143L213 167.143L176.504 168.123L176.835 175.113L212.992 174.143H257.714C266.827 174.143 274.214 181.53 274.214 190.643V205.973C275.514 206.209 276.5 207.346 276.5 208.714C276.5 210.253 275.253 211.5 273.714 211.5C273.212 211.5 272.739 211.367 272.332 211.133C271.494 210.654 270.929 209.75 270.929 208.714C270.929 207.678 271.494 206.775 272.332 206.296C272.601 206.141 272.899 206.031 273.214 205.973V190.643C273.214 182.083 266.275 175.143 257.714 175.143H213L176.865 176.112L177.857 212.992V257.714C177.857 266.275 184.797 273.214 193.357 273.214H208.571V274.214H193.357C184.244 274.214 176.857 266.827 176.857 257.714V213L175.866 176.142L168.876 176.474L169.857 212.992L169.857 290.973C170.679 291.122 171.375 291.632 171.776 292.332C172.009 292.739 172.143 293.212 172.143 293.714C172.143 295.253 170.895 296.5 169.357 296.5C167.818 296.5 166.571 295.253 166.571 293.714C166.571 293.212 166.705 292.739 166.938 292.332C167.339 291.632 168.035 291.122 168.857 290.973L168.857 213L167.877 176.504L160.887 176.835L161.857 212.992V257.714C161.857 266.827 154.47 274.214 145.357 274.214H130.027C129.791 275.514 128.654 276.5 127.286 276.5C125.747 276.5 124.5 275.253 124.5 273.714C124.5 273.212 124.633 272.739 124.867 272.332C125.346 271.494 126.25 270.929 127.286 270.929C128.322 270.929 129.225 271.494 129.704 272.332C129.859 272.601 129.969 272.899 130.027 273.214H145.357C153.917 273.214 160.857 266.275 160.857 257.714V213L159.888 176.865L123.008 177.857H78.2857C69.7253 177.857 62.7857 184.797 62.7857 193.357V208.571H61.7857V193.357C61.7857 184.244 69.173 176.857 78.2857 176.857H123L159.858 175.866L159.526 168.876L123.008 169.857L45.0267 169.857C44.8776 170.679 44.3676 171.375 43.6684 171.776C43.2605 172.009 42.7879 172.143 42.2857 172.143C40.7472 172.143 39.5 170.895 39.5 169.357C39.5 167.818 40.7472 166.571 42.2857 166.571C42.7879 166.571 43.2605 166.705 43.6684 166.938C44.3676 167.339 44.8776 168.035 45.0267 168.857L123 168.857L159.496 167.877L159.165 160.887L123.008 161.857H78.2857C69.173 161.857 61.7857 154.47 61.7857 145.357V130.027C60.4858 129.791 59.5 128.654 59.5 127.286C59.5 125.747 60.7472 124.5 62.2857 124.5C62.7879 124.5 63.2605 124.633 63.6684 124.867C64.5056 125.346 65.0714 126.25 65.0714 127.286C65.0714 128.322 64.5056 129.225 63.6684 129.704C63.399 129.859 63.1014 129.969 62.7857 130.027V145.357C62.7857 153.917 69.7253 160.857 78.2857 160.857H123L159.135 159.888L158.143 123.008V78.2857C158.143 69.7253 151.203 62.7857 142.643 62.7857L127.429 62.7857V61.7857L142.643 61.7857C151.756 61.7857 159.143 69.173 159.143 78.2857V123L160.134 159.858L167.124 159.526L166.143 123.008L166.143 45.0267C165.321 44.8776 164.625 44.3676 164.224 43.6684C163.991 43.2605 163.857 42.7879 163.857 42.2857ZM167.154 160.526L160.164 160.857L160.496 167.847L167.485 167.515L167.154 160.526ZM167.515 168.515L160.526 168.846L160.857 175.836L167.847 175.504L167.515 168.515ZM168.846 175.474L168.515 168.485L175.504 168.153L175.836 175.143L168.846 175.474ZM175.474 167.154L168.485 167.485L168.153 160.496L175.143 160.164L175.474 167.154ZM208.714 60.5C207.728 60.5 206.929 61.2995 206.929 62.2857C206.929 62.6091 207.014 62.9109 207.163 63.1715C207.472 63.7102 208.051 64.0714 208.714 64.0714C209.377 64.0714 209.957 63.7102 210.265 63.1715C210.415 62.9109 210.5 62.609 210.5 62.2857C210.5 61.2995 209.701 60.5 208.714 60.5ZM62.2857 125.5C61.2995 125.5 60.5 126.299 60.5 127.286C60.5 128.272 61.2995 129.071 62.2857 129.071C62.6091 129.071 62.9109 128.986 63.1715 128.837C63.7102 128.528 64.0714 127.949 64.0714 127.286C64.0714 126.623 63.7102 126.043 63.1715 125.735C62.9109 125.585 62.609 125.5 62.2857 125.5ZM293.714 164.857C293.391 164.857 293.089 164.943 292.829 165.092C292.29 165.401 291.929 165.98 291.929 166.643C291.929 167.306 292.29 167.886 292.829 168.194C293.089 168.343 293.391 168.429 293.714 168.429C294.701 168.429 295.5 167.629 295.5 166.643C295.5 165.657 294.701 164.857 293.714 164.857ZM42.2857 167.571C41.2995 167.571 40.5 168.371 40.5 169.357C40.5 170.343 41.2995 171.143 42.2857 171.143C42.609 171.143 42.9109 171.057 43.1715 170.908C43.7102 170.599 44.0714 170.02 44.0714 169.357C44.0714 168.694 43.7102 168.114 43.1715 167.806C42.9109 167.657 42.609 167.571 42.2857 167.571ZM273.714 206.929C273.391 206.929 273.089 207.014 272.829 207.163C272.29 207.472 271.929 208.051 271.929 208.714C271.929 209.377 272.29 209.957 272.829 210.265C273.089 210.415 273.391 210.5 273.714 210.5C274.701 210.5 275.5 209.701 275.5 208.714C275.5 207.728 274.701 206.929 273.714 206.929ZM127.286 271.929C126.623 271.929 126.043 272.29 125.735 272.829C125.585 273.089 125.5 273.391 125.5 273.714C125.5 274.701 126.299 275.5 127.286 275.5C128.272 275.5 129.071 274.701 129.071 273.714C129.071 273.391 128.986 273.089 128.837 272.829C128.528 272.29 127.949 271.929 127.286 271.929ZM169.357 291.929C168.694 291.929 168.114 292.29 167.806 292.829C167.657 293.089 167.571 293.391 167.571 293.714C167.571 294.701 168.371 295.5 169.357 295.5C170.343 295.5 171.143 294.701 171.143 293.714C171.143 293.391 171.057 293.089 170.908 292.829C170.599 292.29 170.02 291.929 169.357 291.929Z" fill="black"/>
<path d="M60.5 127.286C60.5 126.299 61.2995 125.5 62.2857 125.5C62.609 125.5 62.9109 125.585 63.1715 125.735C63.7102 126.043 64.0714 126.623 64.0714 127.286C64.0714 127.949 63.7102 128.528 63.1715 128.837C62.9109 128.986 62.6091 129.071 62.2857 129.071C61.2995 129.071 60.5 128.272 60.5 127.286Z" fill="black"/>
<path d="M206.929 62.2857C206.929 61.2995 207.728 60.5 208.714 60.5C209.701 60.5 210.5 61.2995 210.5 62.2857C210.5 62.609 210.415 62.9109 210.265 63.1715C209.957 63.7102 209.377 64.0714 208.714 64.0714C208.051 64.0714 207.472 63.7102 207.163 63.1715C207.014 62.9109 206.929 62.6091 206.929 62.2857Z" fill="black"/>
<path d="M164.857 42.2857C164.857 41.2995 165.657 40.5 166.643 40.5C167.629 40.5 168.429 41.2995 168.429 42.2857C168.429 42.609 168.343 42.9109 168.194 43.1715C167.885 43.7102 167.306 44.0714 166.643 44.0714C165.98 44.0714 165.401 43.7102 165.092 43.1715C164.943 42.9109 164.857 42.609 164.857 42.2857Z" fill="black"/>
<path d="M292.829 165.092C293.089 164.943 293.391 164.857 293.714 164.857C294.701 164.857 295.5 165.657 295.5 166.643C295.5 167.629 294.701 168.429 293.714 168.429C293.391 168.429 293.089 168.343 292.829 168.194C292.29 167.886 291.929 167.306 291.929 166.643C291.929 165.98 292.29 165.401 292.829 165.092Z" fill="black"/>
<path d="M272.829 207.163C273.089 207.014 273.391 206.929 273.714 206.929C274.701 206.929 275.5 207.728 275.5 208.714C275.5 209.701 274.701 210.5 273.714 210.5C273.391 210.5 273.089 210.415 272.829 210.265C272.29 209.957 271.929 209.377 271.929 208.714C271.929 208.051 272.29 207.472 272.829 207.163Z" fill="black"/>
<path d="M167.806 292.829C168.114 292.29 168.694 291.929 169.357 291.929C170.02 291.929 170.599 292.29 170.908 292.829C171.057 293.089 171.143 293.391 171.143 293.714C171.143 294.701 170.343 295.5 169.357 295.5C168.371 295.5 167.571 294.701 167.571 293.714C167.571 293.391 167.657 293.089 167.806 292.829Z" fill="black"/>
<path d="M125.735 272.829C126.043 272.29 126.623 271.929 127.286 271.929C127.949 271.929 128.528 272.29 128.837 272.829C128.986 273.089 129.071 273.391 129.071 273.714C129.071 274.701 128.272 275.5 127.286 275.5C126.299 275.5 125.5 274.701 125.5 273.714C125.5 273.391 125.585 273.089 125.735 272.829Z" fill="black"/>
<path d="M40.5 169.357C40.5 168.371 41.2995 167.571 42.2857 167.571C42.609 167.571 42.9109 167.657 43.1715 167.806C43.7102 168.114 44.0714 168.694 44.0714 169.357C44.0714 170.02 43.7102 170.599 43.1715 170.908C42.9109 171.057 42.609 171.143 42.2857 171.143C41.2995 171.143 40.5 170.343 40.5 169.357Z" fill="black"/>
</mask>
<g mask="url(#mask0_80_1384)">
<path d="M42.2857 171.643C41.0233 171.643 40 170.619 40 169.357C40 168.095 41.0233 167.071 42.2857 167.071C42.6985 167.071 43.0857 167.181 43.4199 167.372C44.1079 167.766 44.5714 168.507 44.5714 169.357C44.5714 170.207 44.1079 170.948 43.4199 171.342C43.0857 171.533 42.6985 171.643 42.2857 171.643Z" fill="url(#paint4_linear_80_1384)"/>
<path d="M62.2857 129.571C61.0233 129.571 60 128.548 60 127.286C60 126.023 61.0233 125 62.2857 125C62.6985 125 63.0857 125.109 63.4199 125.301C64.1079 125.695 64.5714 126.436 64.5714 127.286C64.5714 128.135 64.1079 128.877 63.4199 129.271C63.0857 129.462 62.6985 129.571 62.2857 129.571Z" fill="url(#paint5_linear_80_1384)"/>
<path d="M123 169.357L44.5714 169.357M44.5714 169.357C44.5714 170.207 44.1079 170.948 43.4199 171.342C43.0857 171.533 42.6985 171.643 42.2857 171.643C41.0233 171.643 40 170.619 40 169.357C40 168.095 41.0233 167.071 42.2857 167.071C42.6985 167.071 43.0857 167.181 43.4199 167.372C44.1079 167.766 44.5714 168.507 44.5714 169.357ZM123 177.357H78.2857C69.4492 177.357 62.2857 184.52 62.2857 193.357V208.571M123 161.357H78.2857C69.4492 161.357 62.2857 154.194 62.2857 145.357V129.571M62.2857 129.571C61.0233 129.571 60 128.548 60 127.286C60 126.023 61.0233 125 62.2857 125C62.6985 125 63.0857 125.109 63.4199 125.301C64.1079 125.695 64.5714 126.436 64.5714 127.286C64.5714 128.135 64.1079 128.877 63.4199 129.271C63.0857 129.462 62.6985 129.571 62.2857 129.571Z" stroke="url(#paint6_linear_80_1384)"/>
<path d="M164.357 42.2857C164.357 41.0233 165.381 40 166.643 40C167.905 40 168.929 41.0233 168.929 42.2857C168.929 42.6985 168.819 43.0857 168.628 43.4199C168.234 44.1079 167.493 44.5714 166.643 44.5714C165.793 44.5714 165.052 44.1079 164.658 43.4199C164.467 43.0857 164.357 42.6985 164.357 42.2857Z" fill="url(#paint7_linear_80_1384)"/>
<path d="M206.429 62.2857C206.429 61.0233 207.452 60 208.714 60C209.977 60 211 61.0233 211 62.2857C211 62.6985 210.891 63.0857 210.699 63.4199C210.305 64.1079 209.564 64.5714 208.714 64.5714C207.865 64.5714 207.123 64.1079 206.729 63.4199C206.538 63.0857 206.429 62.6985 206.429 62.2857Z" fill="url(#paint8_linear_80_1384)"/>
<path d="M166.643 123L166.643 44.5714M166.643 44.5714C165.793 44.5714 165.052 44.1079 164.658 43.4199C164.467 43.0857 164.357 42.6985 164.357 42.2857C164.357 41.0233 165.381 40 166.643 40C167.905 40 168.929 41.0233 168.929 42.2857C168.929 42.6985 168.819 43.0857 168.628 43.4199C168.234 44.1079 167.493 44.5714 166.643 44.5714ZM158.643 123L158.643 78.2857C158.643 69.4492 151.48 62.2857 142.643 62.2857L127.429 62.2857M174.643 123L174.643 78.2857C174.643 69.4492 181.806 62.2857 190.643 62.2857L206.429 62.2857M206.429 62.2857C206.429 61.0233 207.452 60 208.714 60C209.977 60 211 61.0233 211 62.2857C211 62.6985 210.891 63.0857 210.699 63.4199C210.305 64.1079 209.564 64.5714 208.714 64.5714C207.865 64.5714 207.123 64.1079 206.729 63.4199C206.538 63.0857 206.429 62.6985 206.429 62.2857Z" stroke="url(#paint9_linear_80_1384)"/>
<path d="M293.714 164.357C294.977 164.357 296 165.381 296 166.643C296 167.905 294.977 168.929 293.714 168.929C293.302 168.929 292.914 168.819 292.58 168.628C291.892 168.234 291.429 167.493 291.429 166.643C291.429 165.793 291.892 165.052 292.58 164.658C292.914 164.467 293.302 164.357 293.714 164.357Z" fill="url(#paint10_linear_80_1384)"/>
<path d="M273.714 206.429C274.977 206.429 276 207.452 276 208.714C276 209.977 274.977 211 273.714 211C273.302 211 272.914 210.891 272.58 210.699C271.892 210.305 271.429 209.564 271.429 208.714C271.429 207.865 271.892 207.123 272.58 206.729C272.914 206.538 273.302 206.429 273.714 206.429Z" fill="url(#paint11_linear_80_1384)"/>
<path d="M213 166.643L291.429 166.643M291.429 166.643C291.429 165.793 291.892 165.052 292.58 164.658C292.914 164.467 293.302 164.357 293.714 164.357C294.977 164.357 296 165.381 296 166.643C296 167.905 294.977 168.929 293.714 168.929C293.302 168.929 292.914 168.819 292.58 168.628C291.892 168.234 291.429 167.493 291.429 166.643ZM213 158.643H257.714C266.551 158.643 273.714 151.48 273.714 142.643V127.429M213 174.643H257.714C266.551 174.643 273.714 181.806 273.714 190.643V206.429M273.714 206.429C274.977 206.429 276 207.452 276 208.714C276 209.977 274.977 211 273.714 211C273.302 211 272.914 210.891 272.58 210.699C271.892 210.305 271.429 209.564 271.429 208.714C271.429 207.865 271.892 207.123 272.58 206.729C272.914 206.538 273.302 206.429 273.714 206.429Z" stroke="url(#paint12_linear_80_1384)"/>
<path d="M171.643 293.714C171.643 294.977 170.619 296 169.357 296C168.095 296 167.071 294.977 167.071 293.714C167.071 293.302 167.181 292.914 167.372 292.58C167.766 291.892 168.507 291.429 169.357 291.429C170.207 291.429 170.948 291.892 171.342 292.58C171.533 292.914 171.643 293.302 171.643 293.714Z" fill="url(#paint13_linear_80_1384)"/>
<path d="M129.571 273.714C129.571 274.977 128.548 276 127.286 276C126.023 276 125 274.977 125 273.714C125 273.302 125.109 272.914 125.301 272.58C125.695 271.892 126.436 271.429 127.286 271.429C128.135 271.429 128.877 271.892 129.271 272.58C129.462 272.914 129.571 273.302 129.571 273.714Z" fill="url(#paint14_linear_80_1384)"/>
<path d="M169.357 213L169.357 291.429M169.357 291.429C170.207 291.429 170.948 291.892 171.342 292.58C171.533 292.914 171.643 293.302 171.643 293.714C171.643 294.977 170.619 296 169.357 296C168.095 296 167.071 294.977 167.071 293.714C167.071 293.302 167.181 292.914 167.372 292.58C167.766 291.892 168.507 291.429 169.357 291.429ZM177.357 213L177.357 257.714C177.357 266.551 184.52 273.714 193.357 273.714L208.571 273.714M161.357 213L161.357 257.714C161.357 266.551 154.194 273.714 145.357 273.714L129.571 273.714M129.571 273.714C129.571 274.977 128.548 276 127.286 276C126.023 276 125 274.977 125 273.714C125 273.302 125.109 272.914 125.301 272.58C125.695 271.892 126.436 271.429 127.286 271.429C128.135 271.429 128.877 271.892 129.271 272.58C129.462 272.914 129.571 273.302 129.571 273.714Z" stroke="url(#paint15_linear_80_1384)"/>
</g>
<circle cx="48" cy="48" r="48" transform="matrix(-1 0 0 1 216 120)" stroke="url(#paint16_linear_80_1384)" stroke-width="2.28571" stroke-linecap="round"/>
<g filter="url(#filter0_i_80_1384)">
<circle cx="46.8571" cy="46.8571" r="46.8571" transform="matrix(-1 0 0 1 214.857 121.143)" fill="url(#paint17_linear_80_1384)"/>
</g>
<path d="M168 124.571V211.429" stroke="url(#paint18_linear_80_1384)" stroke-width="0.571429" stroke-dasharray="0.57 0.57"/>
<path d="M165.16 124.664L170.84 211.336" stroke="url(#paint19_linear_80_1384)" stroke-width="0.571429" stroke-dasharray="0.57 0.57"/>
<path d="M162.332 124.943L173.669 211.057" stroke="url(#paint20_linear_80_1384)" stroke-width="0.571429" stroke-dasharray="0.57 0.57"/>
<path d="M159.528 125.406L176.473 210.594" stroke="url(#paint21_linear_80_1384)" stroke-width="0.571429" stroke-dasharray="0.57 0.57"/>
<path d="M156.76 126.051L179.24 209.949" stroke="url(#paint22_linear_80_1384)" stroke-width="0.571429" stroke-dasharray="0.57 0.57"/>
<path d="M154.04 126.876L181.96 209.124" stroke="url(#paint23_linear_80_1384)" stroke-width="0.571429" stroke-dasharray="0.57 0.57"/>
<path d="M151.381 127.877L184.619 208.123" stroke="url(#paint24_linear_80_1384)" stroke-width="0.571429" stroke-dasharray="0.57 0.57"/>
<path d="M148.792 129.05L187.208 206.95" stroke="url(#paint25_linear_80_1384)" stroke-width="0.571429" stroke-dasharray="0.57 0.57"/>
<path d="M146.286 130.39L189.714 205.61" stroke="url(#paint26_linear_80_1384)" stroke-width="0.571429" stroke-dasharray="0.57 0.57"/>
<path d="M143.872 131.891L192.128 204.11" stroke="url(#paint27_linear_80_1384)" stroke-width="0.571429" stroke-dasharray="0.57 0.57"/>
<path d="M141.562 133.546L194.438 202.454" stroke="url(#paint28_linear_80_1384)" stroke-width="0.571429" stroke-dasharray="0.57 0.57"/>
<path d="M139.365 135.349L196.634 200.651" stroke="url(#paint29_linear_80_1384)" stroke-width="0.571429" stroke-dasharray="0.57 0.57"/>
<path d="M137.291 137.291L198.709 198.709" stroke="url(#paint30_linear_80_1384)" stroke-width="0.571429" stroke-dasharray="0.57 0.57"/>
<path d="M135.349 139.366L200.651 196.634" stroke="url(#paint31_linear_80_1384)" stroke-width="0.571429" stroke-dasharray="0.57 0.57"/>
<path d="M133.546 141.562L202.454 194.438" stroke="url(#paint32_linear_80_1384)" stroke-width="0.571429" stroke-dasharray="0.57 0.57"/>
<path d="M131.89 143.872L204.109 192.128" stroke="url(#paint33_linear_80_1384)" stroke-width="0.571429" stroke-dasharray="0.57 0.57"/>
<path d="M130.39 146.286L205.61 189.714" stroke="url(#paint34_linear_80_1384)" stroke-width="0.571429" stroke-dasharray="0.57 0.57"/>
<path d="M129.05 148.792L206.95 187.208" stroke="url(#paint35_linear_80_1384)" stroke-width="0.571429" stroke-dasharray="0.57 0.57"/>
<path d="M127.877 151.381L208.123 184.619" stroke="url(#paint36_linear_80_1384)" stroke-width="0.571429" stroke-dasharray="0.57 0.57"/>
<path d="M126.876 154.04L209.124 181.96" stroke="url(#paint37_linear_80_1384)" stroke-width="0.571429" stroke-dasharray="0.57 0.57"/>
<path d="M126.051 156.76L209.949 179.24" stroke="url(#paint38_linear_80_1384)" stroke-width="0.571429" stroke-dasharray="0.57 0.57"/>
<path d="M125.406 159.527L210.594 176.472" stroke="url(#paint39_linear_80_1384)" stroke-width="0.571429" stroke-dasharray="0.57 0.57"/>
<path d="M124.943 162.331L211.057 173.669" stroke="url(#paint40_linear_80_1384)" stroke-width="0.571429" stroke-dasharray="0.57 0.57"/>
<path d="M124.664 165.16L211.335 170.84" stroke="url(#paint41_linear_80_1384)" stroke-width="0.571429" stroke-dasharray="0.57 0.57"/>
<path d="M124.572 168H211.429" stroke="url(#paint42_linear_80_1384)" stroke-width="0.571429" stroke-dasharray="0.57 0.57"/>
<path d="M124.664 170.84L211.335 165.16" stroke="url(#paint43_linear_80_1384)" stroke-width="0.571429" stroke-dasharray="0.57 0.57"/>
<path d="M124.943 173.669L211.057 162.331" stroke="url(#paint44_linear_80_1384)" stroke-width="0.571429" stroke-dasharray="0.57 0.57"/>
<path d="M125.406 176.473L210.594 159.528" stroke="url(#paint45_linear_80_1384)" stroke-width="0.571429" stroke-dasharray="0.57 0.57"/>
<path d="M126.051 179.24L209.949 156.76" stroke="url(#paint46_linear_80_1384)" stroke-width="0.571429" stroke-dasharray="0.57 0.57"/>
<path d="M126.876 181.96L209.124 154.04" stroke="url(#paint47_linear_80_1384)" stroke-width="0.571429" stroke-dasharray="0.57 0.57"/>
<path d="M127.877 184.619L208.123 151.381" stroke="url(#paint48_linear_80_1384)" stroke-width="0.571429" stroke-dasharray="0.57 0.57"/>
<path d="M129.05 187.208L206.95 148.792" stroke="url(#paint49_linear_80_1384)" stroke-width="0.571429" stroke-dasharray="0.57 0.57"/>
<path d="M130.39 189.714L205.61 146.286" stroke="url(#paint50_linear_80_1384)" stroke-width="0.571429" stroke-dasharray="0.57 0.57"/>
<path d="M131.89 192.128L204.109 143.872" stroke="url(#paint51_linear_80_1384)" stroke-width="0.571429" stroke-dasharray="0.57 0.57"/>
<path d="M133.546 194.438L202.454 141.562" stroke="url(#paint52_linear_80_1384)" stroke-width="0.571429" stroke-dasharray="0.57 0.57"/>
<path d="M135.349 196.634L200.651 139.366" stroke="url(#paint53_linear_80_1384)" stroke-width="0.571429" stroke-dasharray="0.57 0.57"/>
<path d="M137.291 198.709L198.709 137.291" stroke="url(#paint54_linear_80_1384)" stroke-width="0.571429" stroke-dasharray="0.57 0.57"/>
<path d="M139.365 200.651L196.634 135.349" stroke="url(#paint55_linear_80_1384)" stroke-width="0.571429" stroke-dasharray="0.57 0.57"/>
<path d="M141.562 202.454L194.438 133.546" stroke="url(#paint56_linear_80_1384)" stroke-width="0.571429" stroke-dasharray="0.57 0.57"/>
<path d="M143.872 204.109L192.128 131.89" stroke="url(#paint57_linear_80_1384)" stroke-width="0.571429" stroke-dasharray="0.57 0.57"/>
<path d="M146.286 205.61L189.714 130.39" stroke="url(#paint58_linear_80_1384)" stroke-width="0.571429" stroke-dasharray="0.57 0.57"/>
<path d="M148.792 206.95L187.208 129.05" stroke="url(#paint59_linear_80_1384)" stroke-width="0.571429" stroke-dasharray="0.57 0.57"/>
<path d="M151.381 208.123L184.619 127.877" stroke="url(#paint60_linear_80_1384)" stroke-width="0.571429" stroke-dasharray="0.57 0.57"/>
<path d="M154.04 209.124L181.96 126.876" stroke="url(#paint61_linear_80_1384)" stroke-width="0.571429" stroke-dasharray="0.57 0.57"/>
<path d="M156.76 209.949L179.24 126.051" stroke="url(#paint62_linear_80_1384)" stroke-width="0.571429" stroke-dasharray="0.57 0.57"/>
<path d="M159.528 210.594L176.473 125.406" stroke="url(#paint63_linear_80_1384)" stroke-width="0.571429" stroke-dasharray="0.57 0.57"/>
<path d="M162.332 211.057L173.669 124.943" stroke="url(#paint64_linear_80_1384)" stroke-width="0.571429" stroke-dasharray="0.57 0.57"/>
<path d="M165.16 211.336L170.84 124.664" stroke="url(#paint65_linear_80_1384)" stroke-width="0.571429" stroke-dasharray="0.57 0.57"/>
<circle cx="43.4286" cy="43.4286" r="43.4286" transform="matrix(-1 0 0 1 211.428 124.571)" stroke="url(#paint66_linear_80_1384)" stroke-width="2.28571" stroke-linecap="round" stroke-dasharray="2.29 2.29"/>
<path d="M168.399 138.743L181.199 146.057V160.686L168.399 168L155.599 160.686V146.057L168.399 138.743Z" fill="url(#paint67_linear_80_1384)"/>
<path d="M181.199 160.686L193.999 168V182.629L181.199 189.943L168.399 182.629L168.399 168L181.199 160.686Z" fill="url(#paint68_linear_80_1384)"/>
<path d="M155.599 160.686L168.399 168L168.399 182.629L155.599 189.943L142.799 182.629L142.799 168L155.599 160.686Z" fill="url(#paint69_linear_80_1384)"/>
<path d="M170.685 131.429C170.685 131.841 170.576 132.229 170.384 132.563C169.99 133.251 169.249 133.714 168.399 133.714C167.55 133.714 166.808 133.251 166.414 132.563C166.223 132.229 166.114 131.841 166.114 131.429C166.114 130.166 167.137 129.143 168.399 129.143C169.662 129.143 170.685 130.166 170.685 131.429Z" fill="url(#paint70_linear_80_1384)"/>
<path d="M202.685 149.714C202.685 150.977 201.662 152 200.399 152C199.55 152 198.808 151.536 198.414 150.848C198.223 150.514 198.114 150.127 198.114 149.714C198.114 149.301 198.223 148.914 198.414 148.58C198.808 147.892 199.55 147.429 200.399 147.429C201.662 147.429 202.685 148.452 202.685 149.714Z" fill="url(#paint71_linear_80_1384)"/>
<path d="M202.685 186.286C202.685 187.548 201.662 188.571 200.399 188.571C199.55 188.571 198.808 188.108 198.414 187.42C198.223 187.086 198.114 186.698 198.114 186.286C198.114 185.873 198.223 185.486 198.414 185.151C198.808 184.463 199.55 184 200.399 184C201.662 184 202.685 185.023 202.685 186.286Z" fill="url(#paint72_linear_80_1384)"/>
<path d="M170.685 204.571C170.685 205.834 169.662 206.857 168.399 206.857C167.137 206.857 166.114 205.834 166.114 204.571C166.114 204.159 166.223 203.771 166.414 203.437C166.808 202.749 167.55 202.286 168.399 202.286C169.249 202.286 169.99 202.749 170.384 203.437C170.576 203.771 170.685 204.159 170.685 204.571Z" fill="url(#paint73_linear_80_1384)"/>
<path d="M138.685 186.286C138.685 186.698 138.576 187.086 138.384 187.42C137.99 188.108 137.249 188.571 136.399 188.571C135.137 188.571 134.114 187.548 134.114 186.286C134.114 185.023 135.137 184 136.399 184C137.249 184 137.99 184.463 138.384 185.151C138.576 185.486 138.685 185.873 138.685 186.286Z" fill="url(#paint74_linear_80_1384)"/>
<path d="M138.685 149.714C138.685 150.127 138.576 150.514 138.384 150.848C137.99 151.536 137.249 152 136.399 152C135.137 152 134.114 150.977 134.114 149.714C134.114 148.452 135.137 147.429 136.399 147.429C137.249 147.429 137.99 147.892 138.384 148.58C138.576 148.914 138.685 149.301 138.685 149.714Z" fill="url(#paint75_linear_80_1384)"/>
<path d="M181.199 160.686L193.999 168V182.629L198.414 185.151C198.808 184.463 199.55 184 200.399 184V152C199.55 152 198.808 151.536 198.414 150.848L181.199 160.686Z" fill="url(#paint76_linear_80_1384)"/>
<path d="M193.999 182.629L181.199 189.943L168.399 182.629L168.399 202.286C169.249 202.286 169.99 202.749 170.384 203.437L198.414 187.42C198.223 187.086 198.114 186.698 198.114 186.286C198.114 185.873 198.223 185.486 198.414 185.151L193.999 182.629Z" fill="url(#paint77_linear_80_1384)"/>
<path d="M168.399 182.629L155.599 189.943L142.799 182.629L138.384 185.151C138.576 185.486 138.685 185.873 138.685 186.286C138.685 186.698 138.576 187.086 138.384 187.42L166.414 203.437C166.808 202.749 167.55 202.286 168.399 202.286L168.399 182.629Z" fill="url(#paint78_linear_80_1384)"/>
<path d="M142.799 168L155.599 160.686L138.384 150.848C137.99 151.536 137.249 152 136.399 152V184C137.249 184 137.99 184.463 138.384 185.151L142.799 182.629L142.799 168Z" fill="url(#paint79_linear_80_1384)"/>
<path d="M155.599 160.686V146.057L168.399 138.743L168.399 133.714C167.55 133.714 166.808 133.251 166.414 132.563L138.384 148.58C138.576 148.914 138.685 149.301 138.685 149.714C138.685 150.127 138.576 150.514 138.384 150.848L155.599 160.686Z" fill="url(#paint80_linear_80_1384)"/>
<path d="M168.399 138.743L181.199 146.057V160.686L198.414 150.848C198.223 150.514 198.114 150.127 198.114 149.714C198.114 149.301 198.223 148.914 198.414 148.58L170.384 132.563C169.99 133.251 169.249 133.714 168.399 133.714L168.399 138.743Z" fill="url(#paint81_linear_80_1384)"/>
<path d="M168.399 138.743L181.199 146.057M168.399 138.743L155.599 146.057M168.399 138.743L168.399 133.714M181.199 146.057V160.686M181.199 146.057L168.399 153.371M181.199 160.686L168.399 168M181.199 160.686L193.999 168M181.199 160.686L198.414 150.848M168.399 168L155.599 160.686M168.399 168V153.371M168.399 168L168.399 182.629M168.399 168L181.199 175.314M168.399 168L155.599 175.314M155.599 160.686V146.057M155.599 160.686L142.799 168M155.599 160.686L138.384 150.848M155.599 146.057L168.399 153.371M193.999 168V182.629M193.999 168L181.199 175.314M193.999 182.629L181.199 189.943M193.999 182.629L198.414 185.151M181.199 189.943L168.399 182.629M181.199 189.943V175.314M168.399 182.629L155.599 189.943M168.399 182.629L168.399 202.286M142.799 168L142.799 182.629M142.799 168L155.599 175.314M155.599 189.943L142.799 182.629M155.599 189.943V175.314M142.799 182.629L138.384 185.151M168.399 133.714C167.55 133.714 166.808 133.251 166.414 132.563M168.399 133.714C169.249 133.714 169.99 133.251 170.384 132.563M200.399 152C201.662 152 202.685 150.977 202.685 149.714C202.685 148.452 201.662 147.429 200.399 147.429C199.55 147.429 198.808 147.892 198.414 148.58M200.399 152C199.55 152 198.808 151.536 198.414 150.848M200.399 152V184M200.399 184C201.662 184 202.685 185.023 202.685 186.286C202.685 187.548 201.662 188.571 200.399 188.571C199.55 188.571 198.808 188.108 198.414 187.42M200.399 184C199.55 184 198.808 184.463 198.414 185.151M168.399 202.286C169.249 202.286 169.99 202.749 170.384 203.437M168.399 202.286C167.55 202.286 166.808 202.749 166.414 203.437M136.399 184C135.137 184 134.114 185.023 134.114 186.286C134.114 187.548 135.137 188.571 136.399 188.571C137.249 188.571 137.99 188.108 138.384 187.42M136.399 184C137.249 184 137.99 184.463 138.384 185.151M136.399 184V152M136.399 152C135.137 152 134.114 150.977 134.114 149.714C134.114 148.452 135.137 147.429 136.399 147.429C137.249 147.429 137.99 147.892 138.384 148.58M136.399 152C137.249 152 137.99 151.536 138.384 150.848M166.414 132.563C166.223 132.229 166.114 131.841 166.114 131.429C166.114 130.166 167.137 129.143 168.399 129.143C169.662 129.143 170.685 130.166 170.685 131.429C170.685 131.841 170.576 132.229 170.384 132.563M166.414 132.563L138.384 148.58M170.384 132.563L198.414 148.58M198.414 150.848C198.223 150.514 198.114 150.127 198.114 149.714C198.114 149.301 198.223 148.914 198.414 148.58M198.414 185.151C198.223 185.486 198.114 185.873 198.114 186.286C198.114 186.698 198.223 187.086 198.414 187.42M198.414 187.42L170.384 203.437M170.384 203.437C170.576 203.771 170.685 204.159 170.685 204.571C170.685 205.834 169.662 206.857 168.399 206.857C167.137 206.857 166.114 205.834 166.114 204.571C166.114 204.159 166.223 203.771 166.414 203.437M166.414 203.437L138.384 187.42M138.384 148.58C138.576 148.914 138.685 149.301 138.685 149.714C138.685 150.127 138.576 150.514 138.384 150.848M138.384 185.151C138.576 185.486 138.685 185.873 138.685 186.286C138.685 186.698 138.576 187.086 138.384 187.42" stroke="url(#paint82_linear_80_1384)" stroke-width="0.857143"/>
<g filter="url(#filter1_dd_80_1384)">
<path d="M182.286 183.508H180.152C179.834 182.176 179.312 180.983 178.586 179.929C177.436 181.153 176.12 182.207 174.637 183.09C174.499 183.172 174.357 183.25 174.21 183.325C173.937 183.463 173.648 183.589 173.343 183.701C172.051 184.177 170.477 184.415 168.622 184.415C166.971 184.415 165.39 184.17 163.878 183.679C163.55 183.573 163.225 183.454 162.903 183.325C162.222 183.05 161.556 182.724 160.905 182.346C158.545 180.967 156.661 179.046 155.254 176.582C153.846 174.103 153.143 171.314 153.143 168.215C153.143 166.015 153.521 163.915 154.278 161.916C155.049 159.917 156.139 158.159 157.546 156.64C158.968 155.122 160.656 153.929 162.607 153.061C162.705 153.018 162.804 152.975 162.903 152.934C163.223 152.801 163.548 152.679 163.878 152.569C165.49 152.029 167.215 151.759 169.053 151.759C170.59 151.759 172.02 151.965 173.343 152.376C173.665 152.476 173.981 152.588 174.29 152.712C175.891 153.355 177.323 154.324 178.586 155.617C178.919 154.951 179.244 153.983 179.562 152.712H181.605L181.968 164.31H179.789C179.396 162.342 178.684 160.591 177.656 159.057C176.627 157.523 175.401 156.353 173.979 155.548C172.571 154.726 171.096 154.316 169.553 154.316C167.828 154.316 166.277 154.804 164.9 155.78C163.523 156.741 162.441 158.213 161.654 160.196C160.882 162.18 160.497 164.651 160.497 167.611C160.497 170.493 160.822 172.894 161.473 174.816C162.123 176.722 162.925 178.163 163.878 179.139C164.847 180.115 165.815 180.781 166.784 181.138C167.752 181.479 168.66 181.649 169.507 181.649C171.368 181.649 173.04 181.138 174.523 180.115C176.021 179.092 177.247 177.806 178.2 176.257C179.154 174.692 179.789 173.142 180.107 171.608H182.286V183.508Z" fill="url(#paint83_linear_80_1384)"/>
<path d="M166.057 187.952H163.878V183.679V183.249H166.057V187.952Z" fill="url(#paint84_linear_80_1384)"/>
<path d="M173.343 187.952H171.164V183.249H173.343V183.701V187.952Z" fill="url(#paint85_linear_80_1384)"/>
<path d="M166.057 152.751H163.878V152.569V148.048H166.057V152.751Z" fill="url(#paint86_linear_80_1384)"/>
<path d="M173.343 152.751H171.164V148.048H173.343V152.376V152.751Z" fill="url(#paint87_linear_80_1384)"/>
<path d="M163.878 152.569V148.048C163.561 149.319 163.235 147.382 162.903 148.048V152.934C163.223 152.801 163.548 152.679 163.878 152.569Z" fill="url(#paint88_linear_80_1384)"/>
<path d="M173.343 148.048V152.376C173.665 152.476 173.981 152.588 174.29 152.712L174.319 148.048C173.986 147.382 173.661 149.319 173.343 148.048Z" fill="url(#paint89_linear_80_1384)"/>
<path d="M173.343 183.701V187.952C173.661 186.681 173.986 188.618 174.319 187.952L174.21 183.325C173.937 183.463 173.648 183.589 173.343 183.701Z" fill="url(#paint90_linear_80_1384)"/>
<path d="M163.878 187.952V183.679C163.55 183.573 163.225 183.454 162.903 183.325V187.952C163.235 188.618 163.561 186.681 163.878 187.952Z" fill="url(#paint91_linear_80_1384)"/>
</g>
<defs>
<filter id="filter0_i_80_1384" x="121.143" y="121.143" width="93.7144" height="95.9999" filterUnits="userSpaceOnUse" color-interpolation-filters="sRGB">
<feFlood flood-opacity="0" result="BackgroundImageFix"/>
<feBlend mode="normal" in="SourceGraphic" in2="BackgroundImageFix" result="shape"/>
<feColorMatrix in="SourceAlpha" type="matrix" values="0 0 0 0 0 0 0 0 0 0 0 0 0 0 0 0 0 0 127 0" result="hardAlpha"/>
<feOffset dy="2.28571"/>
<feGaussianBlur stdDeviation="1.14286"/>
<feComposite in2="hardAlpha" operator="arithmetic" k2="-1" k3="1"/>
<feColorMatrix type="matrix" values="0 0 0 0 0 0 0 0 0 0 0 0 0 0 0 0 0 0 0.25 0"/>
<feBlend mode="normal" in2="shape" result="effect1_innerShadow_80_1384"/>
</filter>
<filter id="filter1_dd_80_1384" x="152.571" y="146.761" width="30.2857" height="42.4771" filterUnits="userSpaceOnUse" color-interpolation-filters="sRGB">
<feFlood flood-opacity="0" result="BackgroundImageFix"/>
<feColorMatrix in="SourceAlpha" type="matrix" values="0 0 0 0 0 0 0 0 0 0 0 0 0 0 0 0 0 0 127 0" result="hardAlpha"/>
<feOffset dy="-0.571429"/>
<feGaussianBlur stdDeviation="0.285714"/>
<feComposite in2="hardAlpha" operator="out"/>
<feColorMatrix type="matrix" values="0 0 0 0 0 0 0 0 0 0 0 0 0 0 0 0 0 0 0.1 0"/>
<feBlend mode="normal" in2="BackgroundImageFix" result="effect1_dropShadow_80_1384"/>
<feColorMatrix in="SourceAlpha" type="matrix" values="0 0 0 0 0 0 0 0 0 0 0 0 0 0 0 0 0 0 127 0" result="hardAlpha"/>
<feOffset dy="0.571429"/>
<feGaussianBlur stdDeviation="0.285714"/>
<feComposite in2="hardAlpha" operator="out"/>
<feColorMatrix type="matrix" values="0 0 0 0 0 0 0 0 0 0 0 0 0 0 0 0 0 0 0.2 0"/>
<feBlend mode="normal" in2="effect1_dropShadow_80_1384" result="effect2_dropShadow_80_1384"/>
<feBlend mode="normal" in="SourceGraphic" in2="effect2_dropShadow_80_1384" result="shape"/>
</filter>
<linearGradient id="paint0_linear_80_1384" x1="240.344" y1="16.5001" x2="291.478" y2="117.439" gradientUnits="userSpaceOnUse">
<stop stop-color="#846424"/>
<stop offset="0.48922" stop-color="#EDC452"/>
<stop offset="1" stop-color="#846424"/>
</linearGradient>
<linearGradient id="paint1_linear_80_1384" x1="32.3442" y1="16.5001" x2="83.4777" y2="117.439" gradientUnits="userSpaceOnUse">
<stop stop-color="#846424"/>
<stop offset="0.48922" stop-color="#EDC452"/>
<stop offset="1" stop-color="#846424"/>
</linearGradient>
<linearGradient id="paint2_linear_80_1384" x1="240.344" y1="224.5" x2="291.478" y2="325.439" gradientUnits="userSpaceOnUse">
<stop stop-color="#846424"/>
<stop offset="0.48922" stop-color="#EDC452"/>
<stop offset="1" stop-color="#846424"/>
</linearGradient>
<linearGradient id="paint3_linear_80_1384" x1="32.3442" y1="224.5" x2="83.4777" y2="325.439" gradientUnits="userSpaceOnUse">
<stop stop-color="#846424"/>
<stop offset="0.48922" stop-color="#EDC452"/>
<stop offset="1" stop-color="#846424"/>
</linearGradient>
<linearGradient id="paint4_linear_80_1384" x1="106" y1="141.529" x2="51.7143" y2="172.958" gradientUnits="userSpaceOnUse">
<stop stop-color="#846424"/>
<stop offset="0.48922" stop-color="#EDC452"/>
<stop offset="1" stop-color="#846424"/>
</linearGradient>
<linearGradient id="paint5_linear_80_1384" x1="106" y1="141.529" x2="51.7143" y2="172.958" gradientUnits="userSpaceOnUse">
<stop stop-color="#846424"/>
<stop offset="0.48922" stop-color="#EDC452"/>
<stop offset="1" stop-color="#846424"/>
</linearGradient>
<linearGradient id="paint6_linear_80_1384" x1="97.1428" y1="189.243" x2="60.5714" y2="125.243" gradientUnits="userSpaceOnUse">
<stop stop-color="#846424"/>
<stop offset="0.48922" stop-color="#EDC452"/>
<stop offset="1" stop-color="#846424"/>
</linearGradient>
<linearGradient id="paint7_linear_80_1384" x1="194.471" y1="106" x2="163.042" y2="51.7143" gradientUnits="userSpaceOnUse">
<stop stop-color="#846424"/>
<stop offset="0.48922" stop-color="#EDC452"/>
<stop offset="1" stop-color="#846424"/>
</linearGradient>
<linearGradient id="paint8_linear_80_1384" x1="194.471" y1="106" x2="163.042" y2="51.7143" gradientUnits="userSpaceOnUse">
<stop stop-color="#846424"/>
<stop offset="0.48922" stop-color="#EDC452"/>
<stop offset="1" stop-color="#846424"/>
</linearGradient>
<linearGradient id="paint9_linear_80_1384" x1="146.757" y1="97.1428" x2="210.757" y2="60.5714" gradientUnits="userSpaceOnUse">
<stop stop-color="#846424"/>
<stop offset="0.48922" stop-color="#EDC452"/>
<stop offset="1" stop-color="#846424"/>
</linearGradient>
<linearGradient id="paint10_linear_80_1384" x1="230" y1="194.471" x2="284.286" y2="163.042" gradientUnits="userSpaceOnUse">
<stop stop-color="#846424"/>
<stop offset="0.48922" stop-color="#EDC452"/>
<stop offset="1" stop-color="#846424"/>
</linearGradient>
<linearGradient id="paint11_linear_80_1384" x1="230" y1="194.471" x2="284.286" y2="163.042" gradientUnits="userSpaceOnUse">
<stop stop-color="#846424"/>
<stop offset="0.48922" stop-color="#EDC452"/>
<stop offset="1" stop-color="#846424"/>
</linearGradient>
<linearGradient id="paint12_linear_80_1384" x1="238.857" y1="146.757" x2="275.429" y2="210.757" gradientUnits="userSpaceOnUse">
<stop stop-color="#846424"/>
<stop offset="0.48922" stop-color="#EDC452"/>
<stop offset="1" stop-color="#846424"/>
</linearGradient>
<linearGradient id="paint13_linear_80_1384" x1="141.529" y1="230" x2="172.958" y2="284.286" gradientUnits="userSpaceOnUse">
<stop stop-color="#846424"/>
<stop offset="0.48922" stop-color="#EDC452"/>
<stop offset="1" stop-color="#846424"/>
</linearGradient>
<linearGradient id="paint14_linear_80_1384" x1="141.529" y1="230" x2="172.958" y2="284.286" gradientUnits="userSpaceOnUse">
<stop stop-color="#846424"/>
<stop offset="0.48922" stop-color="#EDC452"/>
<stop offset="1" stop-color="#846424"/>
</linearGradient>
<linearGradient id="paint15_linear_80_1384" x1="189.243" y1="238.857" x2="125.243" y2="275.429" gradientUnits="userSpaceOnUse">
<stop stop-color="#846424"/>
<stop offset="0.48922" stop-color="#EDC452"/>
<stop offset="1" stop-color="#846424"/>
</linearGradient>
<linearGradient id="paint16_linear_80_1384" x1="92.641" y1="25.4118" x2="8.90404" y2="79.6414" gradientUnits="userSpaceOnUse">
<stop stop-color="#846424"/>
<stop offset="0.234375" stop-color="#EDC452"/>
<stop offset="0.48922" stop-color="#FEF1CB"/>
<stop offset="0.776042" stop-color="#EDC452"/>
<stop offset="1" stop-color="#846424"/>
</linearGradient>
<linearGradient id="paint17_linear_80_1384" x1="2.57813" y1="24.4622" x2="84.6593" y2="77.7967" gradientUnits="userSpaceOnUse">
<stop stop-color="#846424"/>
<stop offset="0.48922" stop-color="#EDC452"/>
<stop offset="1" stop-color="#846424"/>
</linearGradient>
<linearGradient id="paint18_linear_80_1384" x1="169" y1="153.343" x2="167.458" y2="153.37" gradientUnits="userSpaceOnUse">
<stop stop-color="#EDC452"/>
<stop offset="0.50165" stop-color="#F3E0AA"/>
<stop offset="1" stop-color="#EDC452"/>
</linearGradient>
<linearGradient id="paint19_linear_80_1384" x1="168.039" y1="153.309" x2="166.503" y2="153.437" gradientUnits="userSpaceOnUse">
<stop stop-color="#EDC452"/>
<stop offset="0.50165" stop-color="#F3E0AA"/>
<stop offset="1" stop-color="#EDC452"/>
</linearGradient>
<linearGradient id="paint20_linear_80_1384" x1="167.078" y1="153.338" x2="165.554" y2="153.566" gradientUnits="userSpaceOnUse">
<stop stop-color="#EDC452"/>
<stop offset="0.50165" stop-color="#F3E0AA"/>
<stop offset="1" stop-color="#EDC452"/>
</linearGradient>
<linearGradient id="paint21_linear_80_1384" x1="166.121" y1="153.429" x2="164.615" y2="153.757" gradientUnits="userSpaceOnUse">
<stop stop-color="#EDC452"/>
<stop offset="0.50165" stop-color="#F3E0AA"/>
<stop offset="1" stop-color="#EDC452"/>
</linearGradient>
<linearGradient id="paint22_linear_80_1384" x1="165.173" y1="153.583" x2="163.69" y2="154.009" gradientUnits="userSpaceOnUse">
<stop stop-color="#EDC452"/>
<stop offset="0.50165" stop-color="#F3E0AA"/>
<stop offset="1" stop-color="#EDC452"/>
</linearGradient>
<linearGradient id="paint23_linear_80_1384" x1="164.235" y1="153.799" x2="162.784" y2="154.321" gradientUnits="userSpaceOnUse">
<stop stop-color="#EDC452"/>
<stop offset="0.50165" stop-color="#F3E0AA"/>
<stop offset="1" stop-color="#EDC452"/>
</linearGradient>
<linearGradient id="paint24_linear_80_1384" x1="163.315" y1="154.076" x2="161.901" y2="154.691" gradientUnits="userSpaceOnUse">
<stop stop-color="#EDC452"/>
<stop offset="0.50165" stop-color="#F3E0AA"/>
<stop offset="1" stop-color="#EDC452"/>
</linearGradient>
<linearGradient id="paint25_linear_80_1384" x1="162.414" y1="154.412" x2="161.044" y2="155.119" gradientUnits="userSpaceOnUse">
<stop stop-color="#EDC452"/>
<stop offset="0.50165" stop-color="#F3E0AA"/>
<stop offset="1" stop-color="#EDC452"/>
</linearGradient>
<linearGradient id="paint26_linear_80_1384" x1="161.537" y1="154.807" x2="160.216" y2="155.601" gradientUnits="userSpaceOnUse">
<stop stop-color="#EDC452"/>
<stop offset="0.50165" stop-color="#F3E0AA"/>
<stop offset="1" stop-color="#EDC452"/>
</linearGradient>
<linearGradient id="paint27_linear_80_1384" x1="160.688" y1="155.258" x2="159.422" y2="156.137" gradientUnits="userSpaceOnUse">
<stop stop-color="#EDC452"/>
<stop offset="0.50165" stop-color="#F3E0AA"/>
<stop offset="1" stop-color="#EDC452"/>
</linearGradient>
<linearGradient id="paint28_linear_80_1384" x1="159.871" y1="155.763" x2="158.664" y2="156.723" gradientUnits="userSpaceOnUse">
<stop stop-color="#EDC452"/>
<stop offset="0.50165" stop-color="#F3E0AA"/>
<stop offset="1" stop-color="#EDC452"/>
</linearGradient>
<linearGradient id="paint29_linear_80_1384" x1="159.088" y1="156.321" x2="157.947" y2="157.358" gradientUnits="userSpaceOnUse">
<stop stop-color="#EDC452"/>
<stop offset="0.50165" stop-color="#F3E0AA"/>
<stop offset="1" stop-color="#EDC452"/>
</linearGradient>
<linearGradient id="paint30_linear_80_1384" x1="158.343" y1="156.929" x2="157.272" y2="158.038" gradientUnits="userSpaceOnUse">
<stop stop-color="#EDC452"/>
<stop offset="0.50165" stop-color="#F3E0AA"/>
<stop offset="1" stop-color="#EDC452"/>
</linearGradient>
<linearGradient id="paint31_linear_80_1384" x1="157.639" y1="157.584" x2="156.644" y2="158.761" gradientUnits="userSpaceOnUse">
<stop stop-color="#EDC452"/>
<stop offset="0.50165" stop-color="#F3E0AA"/>
<stop offset="1" stop-color="#EDC452"/>
</linearGradient>
<linearGradient id="paint32_linear_80_1384" x1="156.98" y1="158.284" x2="156.064" y2="159.524" gradientUnits="userSpaceOnUse">
<stop stop-color="#EDC452"/>
<stop offset="0.50165" stop-color="#F3E0AA"/>
<stop offset="1" stop-color="#EDC452"/>
</linearGradient>
<linearGradient id="paint33_linear_80_1384" x1="156.369" y1="159.025" x2="155.535" y2="160.323" gradientUnits="userSpaceOnUse">
<stop stop-color="#EDC452"/>
<stop offset="0.50165" stop-color="#F3E0AA"/>
<stop offset="1" stop-color="#EDC452"/>
</linearGradient>
<linearGradient id="paint34_linear_80_1384" x1="155.807" y1="159.805" x2="155.06" y2="161.154" gradientUnits="userSpaceOnUse">
<stop stop-color="#EDC452"/>
<stop offset="0.50165" stop-color="#F3E0AA"/>
<stop offset="1" stop-color="#EDC452"/>
</linearGradient>
<linearGradient id="paint35_linear_80_1384" x1="155.297" y1="160.621" x2="154.639" y2="162.015" gradientUnits="userSpaceOnUse">
<stop stop-color="#EDC452"/>
<stop offset="0.50165" stop-color="#F3E0AA"/>
<stop offset="1" stop-color="#EDC452"/>
</linearGradient>
<linearGradient id="paint36_linear_80_1384" x1="154.841" y1="161.467" x2="154.277" y2="162.902" gradientUnits="userSpaceOnUse">
<stop stop-color="#EDC452"/>
<stop offset="0.50165" stop-color="#F3E0AA"/>
<stop offset="1" stop-color="#EDC452"/>
</linearGradient>
<linearGradient id="paint37_linear_80_1384" x1="154.442" y1="162.342" x2="153.973" y2="163.81" gradientUnits="userSpaceOnUse">
<stop stop-color="#EDC452"/>
<stop offset="0.50165" stop-color="#F3E0AA"/>
<stop offset="1" stop-color="#EDC452"/>
</linearGradient>
<linearGradient id="paint38_linear_80_1384" x1="154.101" y1="163.241" x2="153.729" y2="164.737" gradientUnits="userSpaceOnUse">
<stop stop-color="#EDC452"/>
<stop offset="0.50165" stop-color="#F3E0AA"/>
<stop offset="1" stop-color="#EDC452"/>
</linearGradient>
<linearGradient id="paint39_linear_80_1384" x1="153.819" y1="164.16" x2="153.546" y2="165.677" gradientUnits="userSpaceOnUse">
<stop stop-color="#EDC452"/>
<stop offset="0.50165" stop-color="#F3E0AA"/>
<stop offset="1" stop-color="#EDC452"/>
</linearGradient>
<linearGradient id="paint40_linear_80_1384" x1="153.599" y1="165.095" x2="153.425" y2="166.627" gradientUnits="userSpaceOnUse">
<stop stop-color="#EDC452"/>
<stop offset="0.50165" stop-color="#F3E0AA"/>
<stop offset="1" stop-color="#EDC452"/>
</linearGradient>
<linearGradient id="paint41_linear_80_1384" x1="153.44" y1="166.043" x2="153.366" y2="167.584" gradientUnits="userSpaceOnUse">
<stop stop-color="#EDC452"/>
<stop offset="0.50165" stop-color="#F3E0AA"/>
<stop offset="1" stop-color="#EDC452"/>
</linearGradient>
<linearGradient id="paint42_linear_80_1384" x1="153.343" y1="167" x2="153.37" y2="168.542" gradientUnits="userSpaceOnUse">
<stop stop-color="#EDC452"/>
<stop offset="0.50165" stop-color="#F3E0AA"/>
<stop offset="1" stop-color="#EDC452"/>
</linearGradient>
<linearGradient id="paint43_linear_80_1384" x1="153.309" y1="167.961" x2="153.437" y2="169.497" gradientUnits="userSpaceOnUse">
<stop stop-color="#EDC452"/>
<stop offset="0.50165" stop-color="#F3E0AA"/>
<stop offset="1" stop-color="#EDC452"/>
</linearGradient>
<linearGradient id="paint44_linear_80_1384" x1="153.338" y1="168.922" x2="153.566" y2="170.447" gradientUnits="userSpaceOnUse">
<stop stop-color="#EDC452"/>
<stop offset="0.50165" stop-color="#F3E0AA"/>
<stop offset="1" stop-color="#EDC452"/>
</linearGradient>
<linearGradient id="paint45_linear_80_1384" x1="153.429" y1="169.879" x2="153.757" y2="171.385" gradientUnits="userSpaceOnUse">
<stop stop-color="#EDC452"/>
<stop offset="0.50165" stop-color="#F3E0AA"/>
<stop offset="1" stop-color="#EDC452"/>
</linearGradient>
<linearGradient id="paint46_linear_80_1384" x1="153.584" y1="170.828" x2="154.009" y2="172.31" gradientUnits="userSpaceOnUse">
<stop stop-color="#EDC452"/>
<stop offset="0.50165" stop-color="#F3E0AA"/>
<stop offset="1" stop-color="#EDC452"/>
</linearGradient>
<linearGradient id="paint47_linear_80_1384" x1="153.799" y1="171.765" x2="154.321" y2="173.216" gradientUnits="userSpaceOnUse">
<stop stop-color="#EDC452"/>
<stop offset="0.50165" stop-color="#F3E0AA"/>
<stop offset="1" stop-color="#EDC452"/>
</linearGradient>
<linearGradient id="paint48_linear_80_1384" x1="154.076" y1="172.685" x2="154.691" y2="174.099" gradientUnits="userSpaceOnUse">
<stop stop-color="#EDC452"/>
<stop offset="0.50165" stop-color="#F3E0AA"/>
<stop offset="1" stop-color="#EDC452"/>
</linearGradient>
<linearGradient id="paint49_linear_80_1384" x1="154.412" y1="173.586" x2="155.119" y2="174.956" gradientUnits="userSpaceOnUse">
<stop stop-color="#EDC452"/>
<stop offset="0.50165" stop-color="#F3E0AA"/>
<stop offset="1" stop-color="#EDC452"/>
</linearGradient>
<linearGradient id="paint50_linear_80_1384" x1="154.807" y1="174.462" x2="155.601" y2="175.784" gradientUnits="userSpaceOnUse">
<stop stop-color="#EDC452"/>
<stop offset="0.50165" stop-color="#F3E0AA"/>
<stop offset="1" stop-color="#EDC452"/>
</linearGradient>
<linearGradient id="paint51_linear_80_1384" x1="155.257" y1="175.312" x2="156.137" y2="176.578" gradientUnits="userSpaceOnUse">
<stop stop-color="#EDC452"/>
<stop offset="0.50165" stop-color="#F3E0AA"/>
<stop offset="1" stop-color="#EDC452"/>
</linearGradient>
<linearGradient id="paint52_linear_80_1384" x1="155.763" y1="176.129" x2="156.723" y2="177.336" gradientUnits="userSpaceOnUse">
<stop stop-color="#EDC452"/>
<stop offset="0.50165" stop-color="#F3E0AA"/>
<stop offset="1" stop-color="#EDC452"/>
</linearGradient>
<linearGradient id="paint53_linear_80_1384" x1="156.321" y1="176.912" x2="157.358" y2="178.053" gradientUnits="userSpaceOnUse">
<stop stop-color="#EDC452"/>
<stop offset="0.50165" stop-color="#F3E0AA"/>
<stop offset="1" stop-color="#EDC452"/>
</linearGradient>
<linearGradient id="paint54_linear_80_1384" x1="156.929" y1="177.657" x2="158.038" y2="178.728" gradientUnits="userSpaceOnUse">
<stop stop-color="#EDC452"/>
<stop offset="0.50165" stop-color="#F3E0AA"/>
<stop offset="1" stop-color="#EDC452"/>
</linearGradient>
<linearGradient id="paint55_linear_80_1384" x1="157.584" y1="178.36" x2="158.761" y2="179.356" gradientUnits="userSpaceOnUse">
<stop stop-color="#EDC452"/>
<stop offset="0.50165" stop-color="#F3E0AA"/>
<stop offset="1" stop-color="#EDC452"/>
</linearGradient>
<linearGradient id="paint56_linear_80_1384" x1="158.284" y1="179.02" x2="159.524" y2="179.936" gradientUnits="userSpaceOnUse">
<stop stop-color="#EDC452"/>
<stop offset="0.50165" stop-color="#F3E0AA"/>
<stop offset="1" stop-color="#EDC452"/>
</linearGradient>
<linearGradient id="paint57_linear_80_1384" x1="159.025" y1="179.631" x2="160.323" y2="180.465" gradientUnits="userSpaceOnUse">
<stop stop-color="#EDC452"/>
<stop offset="0.50165" stop-color="#F3E0AA"/>
<stop offset="1" stop-color="#EDC452"/>
</linearGradient>
<linearGradient id="paint58_linear_80_1384" x1="159.805" y1="180.193" x2="161.154" y2="180.94" gradientUnits="userSpaceOnUse">
<stop stop-color="#EDC452"/>
<stop offset="0.50165" stop-color="#F3E0AA"/>
<stop offset="1" stop-color="#EDC452"/>
</linearGradient>
<linearGradient id="paint59_linear_80_1384" x1="160.62" y1="180.703" x2="162.015" y2="181.361" gradientUnits="userSpaceOnUse">
<stop stop-color="#EDC452"/>
<stop offset="0.50165" stop-color="#F3E0AA"/>
<stop offset="1" stop-color="#EDC452"/>
</linearGradient>
<linearGradient id="paint60_linear_80_1384" x1="161.467" y1="181.159" x2="162.902" y2="181.723" gradientUnits="userSpaceOnUse">
<stop stop-color="#EDC452"/>
<stop offset="0.50165" stop-color="#F3E0AA"/>
<stop offset="1" stop-color="#EDC452"/>
</linearGradient>
<linearGradient id="paint61_linear_80_1384" x1="162.342" y1="181.558" x2="163.81" y2="182.027" gradientUnits="userSpaceOnUse">
<stop stop-color="#EDC452"/>
<stop offset="0.50165" stop-color="#F3E0AA"/>
<stop offset="1" stop-color="#EDC452"/>
</linearGradient>
<linearGradient id="paint62_linear_80_1384" x1="163.241" y1="181.899" x2="164.737" y2="182.271" gradientUnits="userSpaceOnUse">
<stop stop-color="#EDC452"/>
<stop offset="0.50165" stop-color="#F3E0AA"/>
<stop offset="1" stop-color="#EDC452"/>
</linearGradient>
<linearGradient id="paint63_linear_80_1384" x1="164.16" y1="182.18" x2="165.677" y2="182.454" gradientUnits="userSpaceOnUse">
<stop stop-color="#EDC452"/>
<stop offset="0.50165" stop-color="#F3E0AA"/>
<stop offset="1" stop-color="#EDC452"/>
</linearGradient>
<linearGradient id="paint64_linear_80_1384" x1="165.096" y1="182.401" x2="166.628" y2="182.575" gradientUnits="userSpaceOnUse">
<stop stop-color="#EDC452"/>
<stop offset="0.50165" stop-color="#F3E0AA"/>
<stop offset="1" stop-color="#EDC452"/>
</linearGradient>
<linearGradient id="paint65_linear_80_1384" x1="166.044" y1="182.56" x2="167.584" y2="182.634" gradientUnits="userSpaceOnUse">
<stop stop-color="#EDC452"/>
<stop offset="0.50165" stop-color="#F3E0AA"/>
<stop offset="1" stop-color="#EDC452"/>
</linearGradient>
<linearGradient id="paint66_linear_80_1384" x1="86.8571" y1="28.7714" x2="47.456" y2="89.8066" gradientUnits="userSpaceOnUse">
<stop stop-color="#EDC452"/>
<stop offset="0.50165" stop-color="#F3E0AA"/>
<stop offset="1" stop-color="#EDC452"/>
</linearGradient>
<linearGradient id="paint67_linear_80_1384" x1="152.571" y1="140.857" x2="184" y2="195.143" gradientUnits="userSpaceOnUse">
<stop stop-color="#846424"/>
<stop offset="0.48922" stop-color="#EDC452"/>
<stop offset="1" stop-color="#846424"/>
</linearGradient>
<linearGradient id="paint68_linear_80_1384" x1="152.571" y1="140.857" x2="184" y2="195.143" gradientUnits="userSpaceOnUse">
<stop stop-color="#846424"/>
<stop offset="0.48922" stop-color="#EDC452"/>
<stop offset="1" stop-color="#846424"/>
</linearGradient>
<linearGradient id="paint69_linear_80_1384" x1="152.571" y1="140.857" x2="184" y2="195.143" gradientUnits="userSpaceOnUse">
<stop stop-color="#846424"/>
<stop offset="0.48922" stop-color="#EDC452"/>
<stop offset="1" stop-color="#846424"/>
</linearGradient>
<linearGradient id="paint70_linear_80_1384" x1="152.571" y1="140.857" x2="184" y2="195.143" gradientUnits="userSpaceOnUse">
<stop stop-color="#846424"/>
<stop offset="0.48922" stop-color="#EDC452"/>
<stop offset="1" stop-color="#846424"/>
</linearGradient>
<linearGradient id="paint71_linear_80_1384" x1="152.571" y1="140.857" x2="184" y2="195.143" gradientUnits="userSpaceOnUse">
<stop stop-color="#846424"/>
<stop offset="0.48922" stop-color="#EDC452"/>
<stop offset="1" stop-color="#846424"/>
</linearGradient>
<linearGradient id="paint72_linear_80_1384" x1="152.571" y1="140.857" x2="184" y2="195.143" gradientUnits="userSpaceOnUse">
<stop stop-color="#846424"/>
<stop offset="0.48922" stop-color="#EDC452"/>
<stop offset="1" stop-color="#846424"/>
</linearGradient>
<linearGradient id="paint73_linear_80_1384" x1="152.571" y1="140.857" x2="184" y2="195.143" gradientUnits="userSpaceOnUse">
<stop stop-color="#846424"/>
<stop offset="0.48922" stop-color="#EDC452"/>
<stop offset="1" stop-color="#846424"/>
</linearGradient>
<linearGradient id="paint74_linear_80_1384" x1="152.571" y1="140.857" x2="184" y2="195.143" gradientUnits="userSpaceOnUse">
<stop stop-color="#846424"/>
<stop offset="0.48922" stop-color="#EDC452"/>
<stop offset="1" stop-color="#846424"/>
</linearGradient>
<linearGradient id="paint75_linear_80_1384" x1="152.571" y1="140.857" x2="184" y2="195.143" gradientUnits="userSpaceOnUse">
<stop stop-color="#846424"/>
<stop offset="0.48922" stop-color="#EDC452"/>
<stop offset="1" stop-color="#846424"/>
</linearGradient>
<linearGradient id="paint76_linear_80_1384" x1="152.571" y1="140.857" x2="184" y2="195.143" gradientUnits="userSpaceOnUse">
<stop stop-color="#846424"/>
<stop offset="0.48922" stop-color="#EDC452"/>
<stop offset="1" stop-color="#846424"/>
</linearGradient>
<linearGradient id="paint77_linear_80_1384" x1="152.571" y1="140.857" x2="184" y2="195.143" gradientUnits="userSpaceOnUse">
<stop stop-color="#846424"/>
<stop offset="0.48922" stop-color="#EDC452"/>
<stop offset="1" stop-color="#846424"/>
</linearGradient>
<linearGradient id="paint78_linear_80_1384" x1="152.571" y1="140.857" x2="184" y2="195.143" gradientUnits="userSpaceOnUse">
<stop stop-color="#846424"/>
<stop offset="0.48922" stop-color="#EDC452"/>
<stop offset="1" stop-color="#846424"/>
</linearGradient>
<linearGradient id="paint79_linear_80_1384" x1="152.571" y1="140.857" x2="184" y2="195.143" gradientUnits="userSpaceOnUse">
<stop stop-color="#846424"/>
<stop offset="0.48922" stop-color="#EDC452"/>
<stop offset="1" stop-color="#846424"/>
</linearGradient>
<linearGradient id="paint80_linear_80_1384" x1="152.571" y1="140.857" x2="184" y2="195.143" gradientUnits="userSpaceOnUse">
<stop stop-color="#846424"/>
<stop offset="0.48922" stop-color="#EDC452"/>
<stop offset="1" stop-color="#846424"/>
</linearGradient>
<linearGradient id="paint81_linear_80_1384" x1="152.571" y1="140.857" x2="184" y2="195.143" gradientUnits="userSpaceOnUse">
<stop stop-color="#846424"/>
<stop offset="0.48922" stop-color="#EDC452"/>
<stop offset="1" stop-color="#846424"/>
</linearGradient>
<linearGradient id="paint82_linear_80_1384" x1="200.286" y1="149.714" x2="136.286" y2="186.286" gradientUnits="userSpaceOnUse">
<stop stop-color="#846424"/>
<stop offset="0.48922" stop-color="#EDC452"/>
<stop offset="1" stop-color="#846424"/>
</linearGradient>
<linearGradient id="paint83_linear_80_1384" x1="182.286" y1="160.286" x2="159.532" y2="182.756" gradientUnits="userSpaceOnUse">
<stop stop-color="#EDC452"/>
<stop offset="0.50165" stop-color="#F3E0AA"/>
<stop offset="1" stop-color="#EDC452"/>
</linearGradient>
<linearGradient id="paint84_linear_80_1384" x1="182.286" y1="160.286" x2="159.532" y2="182.756" gradientUnits="userSpaceOnUse">
<stop stop-color="#EDC452"/>
<stop offset="0.50165" stop-color="#F3E0AA"/>
<stop offset="1" stop-color="#EDC452"/>
</linearGradient>
<linearGradient id="paint85_linear_80_1384" x1="182.286" y1="160.286" x2="159.532" y2="182.756" gradientUnits="userSpaceOnUse">
<stop stop-color="#EDC452"/>
<stop offset="0.50165" stop-color="#F3E0AA"/>
<stop offset="1" stop-color="#EDC452"/>
</linearGradient>
<linearGradient id="paint86_linear_80_1384" x1="182.286" y1="160.286" x2="159.532" y2="182.756" gradientUnits="userSpaceOnUse">
<stop stop-color="#EDC452"/>
<stop offset="0.50165" stop-color="#F3E0AA"/>
<stop offset="1" stop-color="#EDC452"/>
</linearGradient>
<linearGradient id="paint87_linear_80_1384" x1="182.286" y1="160.286" x2="159.532" y2="182.756" gradientUnits="userSpaceOnUse">
<stop stop-color="#EDC452"/>
<stop offset="0.50165" stop-color="#F3E0AA"/>
<stop offset="1" stop-color="#EDC452"/>
</linearGradient>
<linearGradient id="paint88_linear_80_1384" x1="182.286" y1="160.286" x2="159.532" y2="182.756" gradientUnits="userSpaceOnUse">
<stop stop-color="#EDC452"/>
<stop offset="0.50165" stop-color="#F3E0AA"/>
<stop offset="1" stop-color="#EDC452"/>
</linearGradient>
<linearGradient id="paint89_linear_80_1384" x1="182.286" y1="160.286" x2="159.532" y2="182.756" gradientUnits="userSpaceOnUse">
<stop stop-color="#EDC452"/>
<stop offset="0.50165" stop-color="#F3E0AA"/>
<stop offset="1" stop-color="#EDC452"/>
</linearGradient>
<linearGradient id="paint90_linear_80_1384" x1="182.286" y1="160.286" x2="159.532" y2="182.756" gradientUnits="userSpaceOnUse">
<stop stop-color="#EDC452"/>
<stop offset="0.50165" stop-color="#F3E0AA"/>
<stop offset="1" stop-color="#EDC452"/>
</linearGradient>
<linearGradient id="paint91_linear_80_1384" x1="182.286" y1="160.286" x2="159.532" y2="182.756" gradientUnits="userSpaceOnUse">
<stop stop-color="#EDC452"/>
<stop offset="0.50165" stop-color="#F3E0AA"/>
<stop offset="1" stop-color="#EDC452"/>
</linearGradient>
</defs>
</svg>
