<svg width="24" height="22" viewBox="0 0 24 22" fill="none" xmlns="http://www.w3.org/2000/svg">
<path d="M12 11.4423V18.1731C12 18.5301 11.842 18.8725 11.5607 19.1249C11.2794 19.3774 10.8978 19.5192 10.5 19.5192C10.1022 19.5192 9.72064 19.3774 9.43934 19.1249C9.15804 18.8725 9 18.5301 9 18.1731M12 11.4423L11.5458 11.1365C10.8392 10.661 9.96524 10.4301 9.0843 10.4863C8.20336 10.5425 7.37455 10.8819 6.75 11.4423C6.45453 11.1771 6.10376 10.9668 5.7177 10.8233C5.33164 10.6797 4.91787 10.6059 4.5 10.6059C4.08213 10.6059 3.66836 10.6797 3.2823 10.8233C2.89624 10.9668 2.54547 11.1771 2.25 11.4423C2.25 6.60961 6.615 2.6923 12 2.6923M12 11.4423L12.4542 11.1365C13.1608 10.661 14.0348 10.4301 14.9157 10.4863C15.7966 10.5425 16.6254 10.8819 17.25 11.4423C17.5455 11.1771 17.8962 10.9668 18.2823 10.8233C18.6684 10.6797 19.0821 10.6059 19.5 10.6059C19.9179 10.6059 20.3316 10.6797 20.7177 10.8233C21.1038 10.9668 21.4545 11.1771 21.75 11.4423C21.75 6.60961 17.385 2.6923 12 2.6923M12 2.6923V2.01923" stroke="#262522" stroke-width="1.5" stroke-linecap="round" stroke-linejoin="round"/>
</svg>
