<svg width="92" height="92" viewBox="0 0 92 92" fill="none" xmlns="http://www.w3.org/2000/svg">
<circle cx="46" cy="46" r="46" fill="#D9D9D9"/>
<path d="M48.6437 28.6429C49.2688 28.018 50.1164 27.667 51.0003 27.667C51.8842 27.667 52.7319 28.018 53.357 28.6429L68.357 43.6429C68.9819 44.268 69.3329 45.1157 69.3329 45.9996C69.3329 46.8835 68.9819 47.7312 68.357 48.3563L53.357 63.3563C52.7283 63.9635 51.8863 64.2995 51.0123 64.2919C50.1383 64.2843 49.3023 63.9337 48.6843 63.3157C48.0662 62.6976 47.7157 61.8616 47.7081 60.9876C47.7005 60.1136 48.0365 59.2716 48.6437 58.6429L57.667 49.3329H26.0003C25.1163 49.3329 24.2684 48.9818 23.6433 48.3566C23.0182 47.7315 22.667 46.8837 22.667 45.9996C22.667 45.1156 23.0182 44.2677 23.6433 43.6426C24.2684 43.0175 25.1163 42.6663 26.0003 42.6663H57.667L48.6437 33.3563C48.0188 32.7312 47.6677 31.8835 47.6677 30.9996C47.6677 30.1157 48.0188 29.268 48.6437 28.6429Z" fill="#222222"/>
</svg>
