<svg width="29px" height="29px" viewBox="0 0 29 29" fill="none" xmlns="http://www.w3.org/2000/svg" transform="rotate(0) scale(1, 1)">
<path d="M16.0413 12.0814C16.508 11.3579 17.1176 10.7373 17.8327 10.2578C18.5477 9.77823 19.3531 9.44982 20.1996 9.29269C21.9597 8.91896 23.793 9.11321 25.4358 9.84748C26.841 10.4836 27.7155 11.6173 28.2332 13.0449C28.6148 14.1074 28.8275 15.2231 28.8637 16.3515C29.0301 20.4199 28.8952 24.4773 28.9414 28.5402C28.9414 28.8361 28.8304 28.9285 28.5494 28.9267C26.7874 28.9267 25.0364 28.9156 23.2651 28.9267C22.8953 28.9267 22.8547 28.7418 22.8547 28.4403C22.8547 25.2213 22.8547 22.0029 22.8547 18.7851C22.876 17.9869 22.7826 17.1897 22.5773 16.418C22.1243 14.8646 20.9891 14.3949 19.5654 14.4393C19.342 14.4489 19.1199 14.478 18.9016 14.5262C17.5556 14.8036 16.7568 15.6894 16.4684 17.1651C16.3248 18.0334 16.2629 18.9132 16.2835 19.793C16.2632 22.6705 16.2835 25.5499 16.2835 28.4274C16.2835 28.9396 16.2835 28.9415 15.788 28.9415C14.0851 28.9415 12.3822 28.9415 10.6794 28.9415C10.3447 28.9415 10.2338 28.8472 10.2356 28.5032C10.243 22.3487 10.243 16.1943 10.2356 10.0398C10.2356 9.68104 10.3484 9.57748 10.6997 9.58118C12.344 9.59597 13.9877 9.59597 15.6308 9.58118C15.947 9.58118 16.0727 9.67549 16.0635 10.0028C16.0284 10.7 16.0413 11.3916 16.0413 12.0814Z" fill="#d6aded"/>
<path d="M6.53776 19.2733V28.4347C6.53776 28.9396 6.53776 28.9414 6.033 28.9414C4.33197 28.9414 2.62909 28.9414 0.926212 28.9414C0.580459 28.9414 0.452881 28.8527 0.452881 28.4884C0.461509 22.3475 0.461509 16.2059 0.452881 10.0638C0.452881 9.60704 0.475069 9.58669 0.929909 9.58669H6.03669C6.52851 9.58669 6.53036 9.58669 6.53036 10.0731L6.53776 19.2733Z" fill="#d6aded"/>
<path d="M3.53316 7.02728C2.839 7.03126 2.15923 6.82947 1.57964 6.44737C1.00006 6.06527 0.546646 5.51999 0.276641 4.88036C0.00663506 4.24074 -0.0678585 3.53544 0.0625632 2.85351C0.192985 2.17158 0.522475 1.54358 1.00944 1.04878C1.49641 0.553986 2.11902 0.214579 2.79868 0.073404C3.47835 -0.0677705 4.18459 -0.00438358 4.82827 0.255563C5.47194 0.515509 6.02419 0.960362 6.4153 1.53397C6.80642 2.10757 7.01886 2.78421 7.02581 3.47847C7.02688 4.41043 6.661 5.30533 6.00734 5.96949C5.35369 6.63366 4.46484 7.01366 3.53316 7.02728Z" fill="#d6aded"/>
</svg>