<svg version="1.1" xmlns="http://www.w3.org/2000/svg" xmlns:xlink="http://www.w3.org/1999/xlink" width="29.000000pt" height="29.000000pt" viewBox="0,0,256,256"><g fill="#7c6503" fill-rule="nonzero" stroke="none" stroke-width="1" stroke-linecap="butt" stroke-linejoin="miter" stroke-miterlimit="10" stroke-dasharray="" stroke-dashoffset="0" font-family="none" font-weight="none" font-size="none" text-anchor="none" style="mix-blend-mode: normal"><g transform="translate(1.21982,-2.92671) scale(8.82759,8.82759)"><g transform="translate(0,29) scale(0.1,-0.1)"><path d="M15,274c-18,-19 -16,-33 7,-48c12,-7 21,-6 32,3c22,18 20,38 -3,51c-15,7 -24,6 -36,-6z"></path><path d="M188,185c-16,-7 -28,-10 -28,-4c0,5 -11,9 -25,9c-25,0 -25,0 -25,-95c0,-95 0,-95 25,-95c24,0 25,2 25,64c0,69 14,92 50,81c18,-6 20,-15 20,-76v-70l28,3c27,3 27,3 26,81c0,80 -8,99 -49,111c-11,3 -32,-1 -47,-9z"></path><path d="M10,95c0,-95 0,-95 25,-95c25,0 25,0 25,95c0,95 0,95 -25,95c-25,0 -25,0 -25,-95z"></path></g></g></g></svg>