<svg viewBox="71.5998 128.5998 159 39.6" data-name="Layer 1" id="Layer_1" xmlns="http://www.w3.org/2000/svg" style="max-height: 500px" width="159" height="39.6"><defs fill="#000000"><style>.cls-1{fill:#fff;}.cls-2{fill:#ac40ea;}.cls-3{fill:none;stroke:#ac40ea;stroke-miterlimit:10;stroke-width:0.5px;}</style></defs><rect fill="#000000" height="300" width="300" class="cls-1"/><path fill="#000000" d="M90.76,156.16a6.19,6.19,0,0,1-3.87,2.43V137.91h1v-1H84.59v1h1v20.73a5.8,5.8,0,0,1-3.74-2.41A4.54,4.54,0,0,0,85.55,160v2.43h-1v1H88v-1H86.89V160A4.55,4.55,0,0,0,90.76,156.16Z" class="cls-2"/><path fill="#000000" d="M82.41,145.53c.4-.05,6.12-.83,6.11-1.81S82.74,142,82.41,142" class="cls-3"/><path fill="#000000" d="M90.25,145.53c-.43-.05-6.61-.83-6.61-1.81S89.89,142,90.25,142" class="cls-3"/><rect fill="#000000" height="1.71" width="0.64" y="141.12" x="90.06" class="cls-2"/><path fill="#000000" d="M82.51,146.24h-.64v-1.71h.64v1.71Z" class="cls-2"/><path fill="#000000" d="M82.54,142.83h-.65v-1.71h.65v1.71Z" class="cls-2"/><rect fill="#000000" height="1.71" width="0.64" y="144.53" x="90.06" class="cls-2"/><path fill="#000000" d="M78.82,136.89a1.56,1.56,0,1,0-1.51,2,1.6,1.6,0,0,0,.62-.13v21.76a1.6,1.6,0,0,0-.62-.13,1.57,1.57,0,1,0,1.51,2,1.6,1.6,0,0,0,.05-.39V137.29A1.75,1.75,0,0,0,78.82,136.89Z" class="cls-2"/><path fill="#000000" d="M95.14,160.35a1.65,1.65,0,0,0-.63.13V138.72a1.65,1.65,0,0,0,.63.13,1.57,1.57,0,1,0-1.51-2,1.76,1.76,0,0,0-.06.4v24.62a1.59,1.59,0,0,0,.06.39,1.56,1.56,0,1,0,1.51-2Z" class="cls-2"/><path fill="#000000" d="M104.87,154.66V147q0-5.29-.26-8.79a13.07,13.07,0,0,1,2-.18c1.7,0,2.56.48,2.56,1.45,0,.15,0,.66-.08,1.54s-.1,2-.15,3.28-.07,2.56-.07,3.74v7.66a28.47,28.47,0,0,0,.72,7.5,7.26,7.26,0,0,1-2.36.37,2.8,2.8,0,0,1-1.93-.5,2.26,2.26,0,0,1-.52-1.68c0-.4,0-1.4,0-3S104.87,155.55,104.87,154.66Z" class="cls-2"/><path fill="#000000" d="M114.15,154.66V147c0-3.53-.08-6.46-.26-8.79a13.09,13.09,0,0,1,2-.18c1.7,0,2.55.48,2.55,1.45,0,.13,0,.58-.07,1.35s-.1,1.84-.15,3.19-.08,2.78-.08,4.28a52.87,52.87,0,0,0,5.54-5,23.31,23.31,0,0,0,4-5.19,5.82,5.82,0,0,1,1.67.77,1.41,1.41,0,0,1,.58,1.22,3,3,0,0,1-.59,1.46,16.1,16.1,0,0,1-2.06,2.35c-1,1-1.82,1.77-2.52,2.43s-1.82,1.66-3.35,3c.34.58.81,1.41,1.42,2.49l1.39,2.47c.31.57.73,1.27,1.26,2.11a16.28,16.28,0,0,0,1.3,1.88c.35.42.74.86,1.17,1.34a4.2,4.2,0,0,0,1.24,1,2.58,2.58,0,0,0,1.19.29,4.2,4.2,0,0,0,1-.11,2.76,2.76,0,0,1,.34,1.21,1.48,1.48,0,0,1-.78,1.35,4,4,0,0,1-2.11.48,5,5,0,0,1-3.45-1.54A16.29,16.29,0,0,1,122.7,159c-.74-1.19-2-3.41-3.7-6.64a1,1,0,0,0-.13-.22,1.12,1.12,0,0,1-.11-.22,1.46,1.46,0,0,0-.13-.25l-.47.35v3.73a28,28,0,0,0,.73,7.5,7.36,7.36,0,0,1-2.37.37,2.81,2.81,0,0,1-1.93-.5,2.27,2.27,0,0,1-.51-1.68c0-.4,0-1.4,0-3S114.15,155.55,114.15,154.66Z" class="cls-2"/><path fill="#000000" d="M138.31,141.22q.15,1.49.15,7.14h2.87a43.1,43.1,0,0,0,4.35-.15,3,3,0,0,1,.17,1.21,2.12,2.12,0,0,1-.39,1.48,1.69,1.69,0,0,1-1.22.44c-.64,0-1.5,0-2.57,0h-3.21a81,81,0,0,0,.28,9.11c1.07,0,1.95.08,2.63.08,4.08,0,6.71-.28,7.91-.84a6.54,6.54,0,0,1,.29,2,1.7,1.7,0,0,1-.33,1.21c-.49.39-2.66.58-6.53.58-3.46,0-5.58,0-6.34-.07a2.15,2.15,0,0,1-1.59-.52,2.59,2.59,0,0,1-.4-1.66c0-.49,0-1.53,0-3.14s0-2.83,0-3.69v-7.42a58,58,0,0,0-.52-8.67c2.77-.22,5.61-.33,8.5-.33,3.77,0,5.89.19,6.38.58a1.61,1.61,0,0,1,.35,1.21,6.34,6.34,0,0,1-.31,2.07,19.92,19.92,0,0,0-6.64-.8C141,141.11,139.69,141.14,138.31,141.22Z" class="cls-2"/><path fill="#000000" d="M177.91,146.83v8.89a28.25,28.25,0,0,0,.73,7.57,4.69,4.69,0,0,1-2,.3,3.22,3.22,0,0,1-2.11-.5,2.18,2.18,0,0,1-.54-1.68V144.24q-2.52,6.25-6.41,19.16a5.83,5.83,0,0,1-1.4.15c-1.33,0-2.15-.33-2.44-1-.78-1.67-1.91-4.69-3.42-9s-2.63-7.46-3.39-9.37v11.56a28.25,28.25,0,0,0,.73,7.57,7.14,7.14,0,0,1-2,.3,2.5,2.5,0,0,1-1.8-.5,2.41,2.41,0,0,1-.47-1.68c0-.4,0-1.4,0-3s0-2.86,0-3.75V145a24.81,24.81,0,0,0-.72-6.73,14.24,14.24,0,0,1,2.7-.3,3.68,3.68,0,0,1,3.32,1.83,36.78,36.78,0,0,1,2.85,5.82q1.4,3.5,2.13,5.9c.5,1.61,1.19,3.91,2.08,6.92q3.21-12.06,7.11-18.72a3.45,3.45,0,0,1,3.24-1.75,8.71,8.71,0,0,1,2.48.3A34.64,34.64,0,0,0,177.91,146.83Z" class="cls-2"/><path fill="#000000" d="M183,161.44a98.25,98.25,0,0,0,.61-12.75,79,79,0,0,0-.5-10.46,43.65,43.65,0,0,1,6.37-.44,14.65,14.65,0,0,1,7.12,1.53,5.94,5.94,0,0,1-.55,10.34,6.53,6.53,0,0,1,4.25,6.53,6.91,6.91,0,0,1-2.47,5.64,9.18,9.18,0,0,1-6,2Q186.09,163.85,183,161.44Zm8.05-.52a5,5,0,0,0,3.48-1.27,4.53,4.53,0,0,0,1.4-3.5,4.67,4.67,0,0,0-1.54-3.78,5.77,5.77,0,0,0-3.84-1.31,15.46,15.46,0,0,0-3,.21c0,1.09-.05,2.59-.17,4.5s-.23,3.16-.33,3.77a5,5,0,0,0,1.78,1A6.79,6.79,0,0,0,191.09,160.92Zm-1.53-20.21a19.61,19.61,0,0,0-2.11.17c.12,1.93.17,4.51.17,7.74.66,0,1.23.07,1.72.07q5.72,0,5.72-3.93T189.56,140.71Z" class="cls-2"/><path fill="#000000" d="M212.49,155.87c-.66,0-2,0-4.12-.07-1.65,4.25-2.67,7.07-3.06,8.48-2.26-.25-3.39-.77-3.39-1.57a24.09,24.09,0,0,1,1.62-4.33q1.62-3.8,4-9.68t3.67-10.43a14.92,14.92,0,0,1,2-.11,2.61,2.61,0,0,1,1.56.4,3.25,3.25,0,0,1,1,1.63c2,6.1,3.39,10.31,4.29,12.6q2.85,7.44,4.3,10.31a5.59,5.59,0,0,1-2.44.75,2.36,2.36,0,0,1-2.22-1c-.29-.78-.72-1.94-1.26-3.48s-1-2.72-1.29-3.54C214.54,155.85,213,155.87,212.49,155.87Zm3.56-2.85c-.38-1.05-.76-2.13-1.13-3.26l-1.16-3.65-.84-2.67q-1.83,5.76-3.36,9.54c1.63.05,2.87.08,3.73.08C214.62,153.06,215.54,153,216.05,153Z" class="cls-2"/></svg>