<svg version="1.1" id="Layer_1" xmlns="http://www.w3.org/2000/svg" xmlns:xlink="http://www.w3.org/1999/xlink" x="0px" y="0px" viewBox="0 0 50 50" style="enable-background:new 0 0 50 50;" xml:space="preserve" height="100px" width="100px" transform="rotate(0) scale(1, 1)">
<style type="text/css">.st0 { stroke: #ac40ea; stroke-width: 2; stroke-miterlimit: 10; }</style>
<g>
	<path class="st0" d="M35.15,38.15H14.04c-1,0-1.82-0.82-1.82-1.82V19.69c0-1,0.82-1.82,1.82-1.82h21.11c1,0,1.82,0.82,1.82,1.82&#10;&#9;&#9;v16.63C36.97,37.33,36.15,38.15,35.15,38.15z"/>
	<path class="st0" d="M13.22,18.06l15.08-5.79c0,0,2.66-1.47,3.82,1.1v3.56"/>
	<path class="st0" d="M37.78,32.4h-6.14c-1.25,0-2.28-1.02-2.28-2.28v-4.23c0-1.25,1.02-2.28,2.28-2.28h6.14"/>
</g>
</svg>