<svg width="1196" height="864" viewBox="0 0 1196 864" fill="none" xmlns="http://www.w3.org/2000/svg">
<rect width="221.86" height="6.96197" transform="matrix(-0.715479 -0.698634 -0.698634 0.715479 473.102 155.204)" fill="white"/>
<path d="M0 7L314 7V1.19209e-07L0 1.19209e-07L0 7Z" fill="white"/>
<rect x="722" y="155.204" width="221.86" height="6.96197" transform="rotate(-44.3175 722 155.204)" fill="white"/>
<path d="M1195.1 7L881.102 7V1.19209e-07L1195.1 1.19209e-07V7Z" fill="white"/>
<rect x="478.102" y="708.981" width="221.86" height="6.96197" transform="rotate(135.682 478.102 708.981)" fill="white"/>
<path d="M0 857L319 857V864L0 864L0 857Z" fill="white"/>
<rect width="221.86" height="6.96197" transform="matrix(0.715479 0.698634 0.698634 -0.715479 727 708.981)" fill="white"/>
<path d="M1195 857L886 857V864L1195 864V857Z" fill="white"/>
<g filter="url(#filter0_b_55_541)">
<ellipse cx="611.224" cy="431.713" rx="312.831" ry="309.471" fill="#BD7FEC"/>
</g>
<g filter="url(#filter1_i_55_541)">
<path d="M907.213 430.994C907.213 592.915 774.526 724.177 610.847 724.177C447.169 724.177 314.481 592.915 314.481 430.994C314.481 269.073 447.169 137.81 610.847 137.81C774.526 137.81 907.213 269.073 907.213 430.994Z" fill="url(#paint0_linear_55_541)"/>
</g>
<g filter="url(#filter2_d_55_541)">
<path d="M895.849 432.586C895.849 587.955 768.524 713.939 611.421 713.939C454.318 713.939 326.994 587.955 326.994 432.586C326.994 277.217 454.318 151.232 611.421 151.232C768.524 151.232 895.849 277.217 895.849 432.586Z" stroke="#BD7FEC" stroke-width="3.57521" shape-rendering="crispEdges"/>
</g>
<g filter="url(#filter3_d_55_541)">
<path d="M885.302 431.497C885.302 581.544 762.34 703.213 610.617 703.213C458.895 703.213 335.932 581.544 335.932 431.497C335.932 281.451 458.895 159.781 610.617 159.781C762.34 159.781 885.302 281.451 885.302 431.497Z" stroke="#BD7FEC" stroke-width="3.57521" shape-rendering="crispEdges"/>
</g>
<rect x="615.234" y="176.42" width="13.6872" height="5.35585" rx="2.67793" fill="#BD7FEC"/>
<line x1="622.232" y1="411.5" x2="622.232" y2="181.756" stroke="#BD7FEC" stroke-width="0.892642" stroke-dasharray="1.79 1.79"/>
<rect x="629.834" y="177.015" width="13.6872" height="5.35585" rx="2.67793" transform="rotate(3.26997 629.834 177.015)" fill="#BD7FEC"/>
<line x1="623.411" y1="412.112" x2="636.516" y2="182.742" stroke="#BD7FEC" stroke-width="0.892642" stroke-dasharray="1.79 1.79"/>
<rect x="644.375" y="178.442" width="13.6872" height="5.35585" rx="2.67793" transform="rotate(6.53994 644.375 178.442)" fill="#BD7FEC"/>
<line x1="624.553" y1="412.79" x2="650.72" y2="184.541" stroke="#BD7FEC" stroke-width="0.892642" stroke-dasharray="1.79 1.79"/>
<rect x="658.812" y="180.696" width="13.6872" height="5.35585" rx="2.67793" transform="rotate(9.80991 658.812 180.696)" fill="#BD7FEC"/>
<line x1="625.655" y1="413.532" x2="664.799" y2="187.147" stroke="#BD7FEC" stroke-width="0.892642" stroke-dasharray="1.79 1.79"/>
<rect x="673.096" y="183.77" width="13.6872" height="5.35585" rx="2.67793" transform="rotate(13.0799 673.096 183.77)" fill="#BD7FEC"/>
<line x1="626.712" y1="414.335" x2="678.705" y2="190.552" stroke="#BD7FEC" stroke-width="0.892642" stroke-dasharray="1.79 1.79"/>
<rect x="687.183" y="187.653" width="13.6872" height="5.35585" rx="2.67793" transform="rotate(16.3499 687.183 187.653)" fill="#BD7FEC"/>
<line x1="627.722" y1="415.198" x2="692.395" y2="194.744" stroke="#BD7FEC" stroke-width="0.892642" stroke-dasharray="1.79 1.79"/>
<rect x="701.024" y="192.334" width="13.6872" height="5.35585" rx="2.67793" transform="rotate(19.6198 701.024 192.334)" fill="#BD7FEC"/>
<line x1="628.681" y1="416.116" x2="705.824" y2="199.711" stroke="#BD7FEC" stroke-width="0.892642" stroke-dasharray="1.79 1.79"/>
<rect x="714.576" y="197.797" width="13.6872" height="5.35585" rx="2.67793" transform="rotate(22.8898 714.576 197.797)" fill="#BD7FEC"/>
<line x1="629.586" y1="417.088" x2="718.947" y2="205.436" stroke="#BD7FEC" stroke-width="0.892642" stroke-dasharray="1.79 1.79"/>
<rect x="727.794" y="204.024" width="13.6872" height="5.35585" rx="2.67793" transform="rotate(26.1598 727.794 204.024)" fill="#BD7FEC"/>
<line x1="630.433" y1="418.11" x2="731.722" y2="211.899" stroke="#BD7FEC" stroke-width="0.892642" stroke-dasharray="1.79 1.79"/>
<rect x="740.636" y="210.994" width="13.6872" height="5.35585" rx="2.67793" transform="rotate(29.4297 740.636 210.994)" fill="#BD7FEC"/>
<line x1="631.222" y1="419.178" x2="744.109" y2="219.081" stroke="#BD7FEC" stroke-width="0.892642" stroke-dasharray="1.79 1.79"/>
<rect x="753.059" y="218.686" width="13.6872" height="5.35585" rx="2.67793" transform="rotate(32.6997 753.059 218.686)" fill="#BD7FEC"/>
<line x1="631.948" y1="420.291" x2="756.065" y2="226.958" stroke="#BD7FEC" stroke-width="0.892642" stroke-dasharray="1.79 1.79"/>
<rect x="765.023" y="227.074" width="13.6872" height="5.35585" rx="2.67793" transform="rotate(35.9697 765.023 227.074)" fill="#BD7FEC"/>
<line x1="632.61" y1="421.442" x2="767.552" y2="235.504" stroke="#BD7FEC" stroke-width="0.892642" stroke-dasharray="1.79 1.79"/>
<rect x="776.489" y="236.131" width="13.6872" height="5.35585" rx="2.67793" transform="rotate(39.2396 776.489 236.131)" fill="#BD7FEC"/>
<line x1="633.205" y1="422.629" x2="778.533" y2="244.691" stroke="#BD7FEC" stroke-width="0.892642" stroke-dasharray="1.79 1.79"/>
<rect x="787.42" y="245.827" width="13.6872" height="5.35585" rx="2.67793" transform="rotate(42.5096 787.42 245.827)" fill="#BD7FEC"/>
<line x1="633.731" y1="423.848" x2="788.973" y2="254.489" stroke="#BD7FEC" stroke-width="0.892642" stroke-dasharray="1.79 1.79"/>
<rect x="797.78" y="256.13" width="13.6872" height="5.35585" rx="2.67793" transform="rotate(45.7796 797.78 256.13)" fill="#BD7FEC"/>
<line x1="634.187" y1="425.096" x2="798.836" y2="264.868" stroke="#BD7FEC" stroke-width="0.892642" stroke-dasharray="1.79 1.79"/>
<rect x="807.536" y="267.008" width="13.6872" height="5.35585" rx="2.67793" transform="rotate(49.0496 807.536 267.008)" fill="#BD7FEC"/>
<line x1="634.571" y1="426.367" x2="808.091" y2="275.791" stroke="#BD7FEC" stroke-width="0.892642" stroke-dasharray="1.79 1.79"/>
<rect x="816.655" y="278.425" width="13.6872" height="5.35585" rx="2.67793" transform="rotate(52.3195 816.655 278.425)" fill="#BD7FEC"/>
<line x1="634.881" y1="427.659" x2="816.708" y2="287.226" stroke="#BD7FEC" stroke-width="0.892642" stroke-dasharray="1.79 1.79"/>
<rect x="825.108" y="290.343" width="13.6872" height="5.35585" rx="2.67793" transform="rotate(55.5895 825.108 290.343)" fill="#BD7FEC"/>
<line x1="635.118" y1="428.964" x2="824.659" y2="299.132" stroke="#BD7FEC" stroke-width="0.892642" stroke-dasharray="1.79 1.79"/>
<rect x="832.867" y="302.724" width="13.6872" height="5.35585" rx="2.67793" transform="rotate(58.8595 832.867 302.724)" fill="#BD7FEC"/>
<line x1="635.28" y1="430.283" x2="831.918" y2="311.473" stroke="#BD7FEC" stroke-width="0.892642" stroke-dasharray="1.79 1.79"/>
<rect x="839.908" y="315.528" width="13.6872" height="5.35585" rx="2.67793" transform="rotate(62.1294 839.908 315.528)" fill="#BD7FEC"/>
<line x1="635.366" y1="431.608" x2="838.461" y2="324.208" stroke="#BD7FEC" stroke-width="0.892642" stroke-dasharray="1.79 1.79"/>
<rect x="846.207" y="328.712" width="13.6872" height="5.35585" rx="2.67793" transform="rotate(65.3994 846.207 328.712)" fill="#BD7FEC"/>
<line x1="635.376" y1="432.936" x2="844.267" y2="337.296" stroke="#BD7FEC" stroke-width="0.892642" stroke-dasharray="1.79 1.79"/>
<rect x="851.743" y="342.234" width="13.6872" height="5.35585" rx="2.67793" transform="rotate(68.6694 851.743 342.234)" fill="#BD7FEC"/>
<line x1="635.312" y1="434.262" x2="849.318" y2="350.693" stroke="#BD7FEC" stroke-width="0.892642" stroke-dasharray="1.79 1.79"/>
<rect x="856.5" y="356.049" width="13.6872" height="5.35585" rx="2.67793" transform="rotate(71.9394 856.5 356.049)" fill="#BD7FEC"/>
<line x1="635.171" y1="435.583" x2="853.595" y2="364.357" stroke="#BD7FEC" stroke-width="0.892642" stroke-dasharray="1.79 1.79"/>
<rect x="860.46" y="370.114" width="13.6872" height="5.35585" rx="2.67793" transform="rotate(75.2093 860.46 370.114)" fill="#BD7FEC"/>
<line x1="634.954" y1="436.893" x2="857.086" y2="378.242" stroke="#BD7FEC" stroke-width="0.892642" stroke-dasharray="1.79 1.79"/>
<rect x="863.612" y="384.381" width="13.6872" height="5.35585" rx="2.67793" transform="rotate(78.4793 863.612 384.381)" fill="#BD7FEC"/>
<line x1="634.665" y1="438.189" x2="859.78" y2="392.304" stroke="#BD7FEC" stroke-width="0.892642" stroke-dasharray="1.79 1.79"/>
<rect x="865.945" y="398.806" width="13.6872" height="5.35585" rx="2.67793" transform="rotate(81.7493 865.945 398.806)" fill="#BD7FEC"/>
<line x1="634.301" y1="439.467" x2="861.667" y2="406.497" stroke="#BD7FEC" stroke-width="0.892642" stroke-dasharray="1.79 1.79"/>
<rect x="867.451" y="413.339" width="13.6872" height="5.35585" rx="2.67793" transform="rotate(85.0192 867.451 413.339)" fill="#BD7FEC"/>
<line x1="633.864" y1="440.721" x2="862.741" y2="420.774" stroke="#BD7FEC" stroke-width="0.892642" stroke-dasharray="1.79 1.79"/>
<rect x="868.125" y="427.935" width="13.6872" height="5.35585" rx="2.67793" transform="rotate(88.2892 868.125 427.935)" fill="#BD7FEC"/>
<line x1="633.357" y1="441.948" x2="862.999" y2="435.089" stroke="#BD7FEC" stroke-width="0.892642" stroke-dasharray="1.79 1.79"/>
<rect x="867.966" y="442.546" width="13.6872" height="5.35585" rx="2.67793" transform="rotate(91.5592 867.966 442.546)" fill="#BD7FEC"/>
<line x1="632.781" y1="443.145" x2="862.441" y2="449.396" stroke="#BD7FEC" stroke-width="0.892642" stroke-dasharray="1.79 1.79"/>
<rect x="866.974" y="457.124" width="13.6872" height="5.35585" rx="2.67793" transform="rotate(94.8291 866.974 457.124)" fill="#BD7FEC"/>
<line x1="632.138" y1="444.306" x2="861.067" y2="463.647" stroke="#BD7FEC" stroke-width="0.892642" stroke-dasharray="1.79 1.79"/>
<rect x="865.152" y="471.621" width="13.6872" height="5.35585" rx="2.67793" transform="rotate(98.0991 865.152 471.621)" fill="#BD7FEC"/>
<line x1="631.43" y1="445.43" x2="858.882" y2="477.797" stroke="#BD7FEC" stroke-width="0.892642" stroke-dasharray="1.79 1.79"/>
<rect x="862.506" y="485.991" width="13.6872" height="5.35585" rx="2.67793" transform="rotate(101.369 862.506 485.991)" fill="#BD7FEC"/>
<line x1="630.659" y1="446.511" x2="855.895" y2="491.8" stroke="#BD7FEC" stroke-width="0.892642" stroke-dasharray="1.79 1.79"/>
<rect x="859.045" y="500.187" width="13.6872" height="5.35585" rx="2.67793" transform="rotate(104.639 859.045 500.187)" fill="#BD7FEC"/>
<line x1="629.827" y1="447.546" x2="852.113" y2="505.609" stroke="#BD7FEC" stroke-width="0.892642" stroke-dasharray="1.79 1.79"/>
<rect x="854.779" y="514.162" width="13.6872" height="5.35585" rx="2.67793" transform="rotate(107.909 854.779 514.162)" fill="#BD7FEC"/>
<line x1="628.937" y1="448.532" x2="847.549" y2="519.18" stroke="#BD7FEC" stroke-width="0.892642" stroke-dasharray="1.79 1.79"/>
<rect x="849.724" y="527.871" width="13.6872" height="5.35585" rx="2.67793" transform="rotate(111.179 849.724 527.871)" fill="#BD7FEC"/>
<line x1="627.993" y1="449.465" x2="842.219" y2="532.468" stroke="#BD7FEC" stroke-width="0.892642" stroke-dasharray="1.79 1.79"/>
<rect x="843.894" y="541.269" width="13.6872" height="5.35585" rx="2.67793" transform="rotate(114.449 843.894 541.269)" fill="#BD7FEC"/>
<line x1="626.997" y1="450.344" x2="836.14" y2="545.431" stroke="#BD7FEC" stroke-width="0.892642" stroke-dasharray="1.79 1.79"/>
<rect x="837.31" y="554.314" width="13.6872" height="5.35585" rx="2.67793" transform="rotate(117.719 837.31 554.314)" fill="#BD7FEC"/>
<line x1="625.952" y1="451.164" x2="829.331" y2="558.026" stroke="#BD7FEC" stroke-width="0.892642" stroke-dasharray="1.79 1.79"/>
<rect x="829.992" y="566.96" width="13.6872" height="5.35585" rx="2.67793" transform="rotate(120.989 829.992 566.96)" fill="#BD7FEC"/>
<line x1="624.862" y1="451.923" x2="821.814" y2="570.212" stroke="#BD7FEC" stroke-width="0.892642" stroke-dasharray="1.79 1.79"/>
<rect x="821.966" y="579.17" width="13.6872" height="5.35585" rx="2.67793" transform="rotate(124.259 821.966 579.17)" fill="#BD7FEC"/>
<line x1="623.731" y1="452.619" x2="813.615" y2="581.949" stroke="#BD7FEC" stroke-width="0.892642" stroke-dasharray="1.79 1.79"/>
<rect x="813.255" y="590.901" width="13.6872" height="5.35585" rx="2.67793" transform="rotate(127.529 813.255 590.901)" fill="#BD7FEC"/>
<line x1="622.562" y1="453.249" x2="804.76" y2="593.2" stroke="#BD7FEC" stroke-width="0.892642" stroke-dasharray="1.79 1.79"/>
<rect x="803.89" y="602.117" width="13.6872" height="5.35585" rx="2.67793" transform="rotate(130.799 803.89 602.117)" fill="#BD7FEC"/>
<line x1="621.359" y1="453.811" x2="795.277" y2="603.927" stroke="#BD7FEC" stroke-width="0.892642" stroke-dasharray="1.79 1.79"/>
<rect x="793.9" y="612.779" width="13.6872" height="5.35585" rx="2.67793" transform="rotate(134.069 793.9 612.779)" fill="#BD7FEC"/>
<line x1="620.126" y1="454.304" x2="785.198" y2="614.096" stroke="#BD7FEC" stroke-width="0.892642" stroke-dasharray="1.79 1.79"/>
<rect x="783.318" y="622.856" width="13.6872" height="5.35585" rx="2.67793" transform="rotate(137.339 783.318 622.856)" fill="#BD7FEC"/>
<line x1="618.866" y1="454.725" x2="774.555" y2="623.673" stroke="#BD7FEC" stroke-width="0.892642" stroke-dasharray="1.79 1.79"/>
<rect x="772.179" y="632.312" width="13.6872" height="5.35585" rx="2.67793" transform="rotate(140.609 772.179 632.312)" fill="#BD7FEC"/>
<line x1="617.586" y1="455.075" x2="763.384" y2="632.628" stroke="#BD7FEC" stroke-width="0.892642" stroke-dasharray="1.79 1.79"/>
<rect x="760.518" y="641.117" width="13.6872" height="5.35585" rx="2.67793" transform="rotate(143.879 760.518 641.117)" fill="#BD7FEC"/>
<line x1="616.286" y1="455.35" x2="751.719" y2="640.931" stroke="#BD7FEC" stroke-width="0.892642" stroke-dasharray="1.79 1.79"/>
<rect x="748.374" y="649.242" width="13.6872" height="5.35585" rx="2.67793" transform="rotate(147.149 748.374 649.242)" fill="#BD7FEC"/>
<line x1="614.973" y1="455.551" x2="739.601" y2="648.554" stroke="#BD7FEC" stroke-width="0.892642" stroke-dasharray="1.79 1.79"/>
<rect x="735.787" y="656.662" width="13.6872" height="5.35585" rx="2.67793" transform="rotate(150.419 735.787 656.662)" fill="#BD7FEC"/>
<line x1="613.652" y1="455.676" x2="727.067" y2="655.475" stroke="#BD7FEC" stroke-width="0.892642" stroke-dasharray="1.79 1.79"/>
<rect x="722.797" y="663.352" width="13.6872" height="5.35585" rx="2.67793" transform="rotate(153.689 722.797 663.352)" fill="#BD7FEC"/>
<line x1="612.324" y1="455.727" x2="714.158" y2="661.669" stroke="#BD7FEC" stroke-width="0.892642" stroke-dasharray="1.79 1.79"/>
<rect x="709.446" y="669.29" width="13.6872" height="5.35585" rx="2.67793" transform="rotate(156.959 709.446 669.29)" fill="#BD7FEC"/>
<line x1="610.997" y1="455.702" x2="700.918" y2="667.117" stroke="#BD7FEC" stroke-width="0.892642" stroke-dasharray="1.79 1.79"/>
<rect x="695.779" y="674.455" width="13.6872" height="5.35585" rx="2.67793" transform="rotate(160.229 695.779 674.455)" fill="#BD7FEC"/>
<line x1="609.673" y1="455.6" x2="687.388" y2="671.8" stroke="#BD7FEC" stroke-width="0.892642" stroke-dasharray="1.79 1.79"/>
<rect x="681.839" y="678.835" width="13.6872" height="5.35585" rx="2.67793" transform="rotate(163.499 681.839 678.835)" fill="#BD7FEC"/>
<line x1="608.357" y1="455.424" x2="673.613" y2="675.705" stroke="#BD7FEC" stroke-width="0.892642" stroke-dasharray="1.79 1.79"/>
<rect x="667.671" y="682.411" width="13.6872" height="5.35585" rx="2.67793" transform="rotate(166.768 667.671 682.411)" fill="#BD7FEC"/>
<line x1="607.052" y1="455.172" x2="659.637" y2="678.817" stroke="#BD7FEC" stroke-width="0.892642" stroke-dasharray="1.79 1.79"/>
<rect x="653.323" y="685.173" width="13.6872" height="5.35585" rx="2.67793" transform="rotate(170.038 653.323 685.173)" fill="#BD7FEC"/>
<line x1="605.765" y1="454.846" x2="645.508" y2="681.127" stroke="#BD7FEC" stroke-width="0.892642" stroke-dasharray="1.79 1.79"/>
<rect x="638.841" y="687.113" width="13.6872" height="5.35585" rx="2.67793" transform="rotate(173.308 638.841 687.113)" fill="#BD7FEC"/>
<line x1="604.498" y1="454.449" x2="631.269" y2="682.628" stroke="#BD7FEC" stroke-width="0.892642" stroke-dasharray="1.79 1.79"/>
<rect x="624.271" y="688.223" width="13.6872" height="5.35585" rx="2.67793" transform="rotate(176.578 624.271 688.223)" fill="#BD7FEC"/>
<line x1="603.256" y1="453.978" x2="616.968" y2="683.312" stroke="#BD7FEC" stroke-width="0.892642" stroke-dasharray="1.79 1.79"/>
<rect x="609.663" y="688.5" width="13.6872" height="5.35585" rx="2.67793" transform="rotate(179.848 609.663 688.5)" fill="#BD7FEC"/>
<line x1="602.043" y1="453.438" x2="602.651" y2="683.182" stroke="#BD7FEC" stroke-width="0.892642" stroke-dasharray="1.79 1.79"/>
<rect x="595.062" y="687.943" width="13.6872" height="5.35585" rx="2.67793" transform="rotate(-176.882 595.062 687.943)" fill="#BD7FEC"/>
<line x1="600.863" y1="452.829" x2="588.365" y2="682.233" stroke="#BD7FEC" stroke-width="0.892642" stroke-dasharray="1.79 1.79"/>
<rect x="580.516" y="686.555" width="13.6872" height="5.35585" rx="2.67793" transform="rotate(-173.612 580.516 686.555)" fill="#BD7FEC"/>
<line x1="599.719" y1="452.155" x2="574.156" y2="680.473" stroke="#BD7FEC" stroke-width="0.892642" stroke-dasharray="1.79 1.79"/>
<rect x="566.074" y="684.339" width="13.6872" height="5.35585" rx="2.67793" transform="rotate(-170.342 566.074 684.339)" fill="#BD7FEC"/>
<line x1="598.615" y1="451.416" x2="560.071" y2="677.904" stroke="#BD7FEC" stroke-width="0.892642" stroke-dasharray="1.79 1.79"/>
<rect x="551.781" y="681.303" width="13.6872" height="5.35585" rx="2.67793" transform="rotate(-167.072 551.781 681.303)" fill="#BD7FEC"/>
<line x1="597.556" y1="450.616" x2="546.155" y2="674.536" stroke="#BD7FEC" stroke-width="0.892642" stroke-dasharray="1.79 1.79"/>
<rect x="537.685" y="677.457" width="13.6872" height="5.35585" rx="2.67793" transform="rotate(-163.802 537.685 677.457)" fill="#BD7FEC"/>
<line x1="596.544" y1="449.756" x2="532.454" y2="670.38" stroke="#BD7FEC" stroke-width="0.892642" stroke-dasharray="1.79 1.79"/>
<rect x="523.831" y="672.813" width="13.6872" height="5.35585" rx="2.67793" transform="rotate(-160.532 523.831 672.813)" fill="#BD7FEC"/>
<line x1="595.582" y1="448.84" x2="519.012" y2="665.448" stroke="#BD7FEC" stroke-width="0.892642" stroke-dasharray="1.79 1.79"/>
<rect x="510.265" y="667.386" width="13.6872" height="5.35585" rx="2.67793" transform="rotate(-157.262 510.265 667.386)" fill="#BD7FEC"/>
<line x1="594.674" y1="447.87" x2="505.873" y2="659.759" stroke="#BD7FEC" stroke-width="0.892642" stroke-dasharray="1.79 1.79"/>
<rect x="497.03" y="661.193" width="13.6872" height="5.35585" rx="2.67793" transform="rotate(-153.992 497.03 661.193)" fill="#BD7FEC"/>
<line x1="593.824" y1="446.85" x2="493.082" y2="653.329" stroke="#BD7FEC" stroke-width="0.892642" stroke-dasharray="1.79 1.79"/>
<rect x="484.17" y="654.257" width="13.6872" height="5.35585" rx="2.67793" transform="rotate(-150.722 484.17 654.257)" fill="#BD7FEC"/>
<line x1="593.032" y1="445.784" x2="480.676" y2="646.18" stroke="#BD7FEC" stroke-width="0.892642" stroke-dasharray="1.79 1.79"/>
<rect x="471.727" y="646.599" width="13.6872" height="5.35585" rx="2.67793" transform="rotate(-147.452 471.727 646.599)" fill="#BD7FEC"/>
<line x1="592.303" y1="444.675" x2="468.7" y2="638.335" stroke="#BD7FEC" stroke-width="0.892642" stroke-dasharray="1.79 1.79"/>
<rect x="459.74" y="638.242" width="13.6872" height="5.35585" rx="2.67793" transform="rotate(-144.182 459.74 638.242)" fill="#BD7FEC"/>
<line x1="591.638" y1="443.524" x2="457.189" y2="629.819" stroke="#BD7FEC" stroke-width="0.892642" stroke-dasharray="1.79 1.79"/>
<rect x="448.25" y="629.216" width="13.6872" height="5.35585" rx="2.67793" transform="rotate(-140.912 448.25 629.216)" fill="#BD7FEC"/>
<line x1="591.04" y1="442.339" x2="446.183" y2="620.661" stroke="#BD7FEC" stroke-width="0.892642" stroke-dasharray="1.79 1.79"/>
<rect x="437.294" y="619.549" width="13.6872" height="5.35585" rx="2.67793" transform="rotate(-137.642 437.294 619.549)" fill="#BD7FEC"/>
<line x1="590.511" y1="441.121" x2="435.719" y2="610.89" stroke="#BD7FEC" stroke-width="0.892642" stroke-dasharray="1.79 1.79"/>
<rect x="426.906" y="609.272" width="13.6872" height="5.35585" rx="2.67793" transform="rotate(-134.372 426.906 609.272)" fill="#BD7FEC"/>
<line x1="590.052" y1="439.875" x2="425.828" y2="600.538" stroke="#BD7FEC" stroke-width="0.892642" stroke-dasharray="1.79 1.79"/>
<rect x="417.122" y="598.421" width="13.6872" height="5.35585" rx="2.67793" transform="rotate(-131.102 417.122 598.421)" fill="#BD7FEC"/>
<line x1="589.665" y1="438.604" x2="416.543" y2="589.639" stroke="#BD7FEC" stroke-width="0.892642" stroke-dasharray="1.79 1.79"/>
<rect x="407.973" y="587.028" width="13.6872" height="5.35585" rx="2.67793" transform="rotate(-127.832 407.973 587.028)" fill="#BD7FEC"/>
<line x1="589.351" y1="437.314" x2="407.896" y2="578.228" stroke="#BD7FEC" stroke-width="0.892642" stroke-dasharray="1.79 1.79"/>
<rect x="399.488" y="575.132" width="13.6872" height="5.35585" rx="2.67793" transform="rotate(-124.562 399.488 575.132)" fill="#BD7FEC"/>
<line x1="589.11" y1="436.009" x2="399.913" y2="566.342" stroke="#BD7FEC" stroke-width="0.892642" stroke-dasharray="1.79 1.79"/>
<rect x="391.696" y="562.772" width="13.6872" height="5.35585" rx="2.67793" transform="rotate(-121.292 391.696 562.772)" fill="#BD7FEC"/>
<line x1="588.945" y1="434.69" x2="392.622" y2="554.02" stroke="#BD7FEC" stroke-width="0.892642" stroke-dasharray="1.79 1.79"/>
<rect x="384.622" y="549.987" width="13.6872" height="5.35585" rx="2.67793" transform="rotate(-118.022 384.622 549.987)" fill="#BD7FEC"/>
<line x1="588.856" y1="433.366" x2="386.045" y2="541.302" stroke="#BD7FEC" stroke-width="0.892642" stroke-dasharray="1.79 1.79"/>
<rect x="378.288" y="536.82" width="13.6872" height="5.35585" rx="2.67793" transform="rotate(-114.752 378.288 536.82)" fill="#BD7FEC"/>
<line x1="588.842" y1="432.038" x2="380.205" y2="528.231" stroke="#BD7FEC" stroke-width="0.892642" stroke-dasharray="1.79 1.79"/>
<rect x="372.716" y="523.312" width="13.6872" height="5.35585" rx="2.67793" transform="rotate(-111.482 372.716 523.312)" fill="#BD7FEC"/>
<line x1="588.903" y1="430.711" x2="375.119" y2="514.846" stroke="#BD7FEC" stroke-width="0.892642" stroke-dasharray="1.79 1.79"/>
<rect x="367.923" y="509.509" width="13.6872" height="5.35585" rx="2.67793" transform="rotate(-108.212 367.923 509.509)" fill="#BD7FEC"/>
<line x1="589.041" y1="429.391" x2="370.806" y2="501.194" stroke="#BD7FEC" stroke-width="0.892642" stroke-dasharray="1.79 1.79"/>
<rect x="363.926" y="495.455" width="13.6872" height="5.35585" rx="2.67793" transform="rotate(-104.942 363.926 495.455)" fill="#BD7FEC"/>
<line x1="589.253" y1="428.079" x2="367.278" y2="487.318" stroke="#BD7FEC" stroke-width="0.892642" stroke-dasharray="1.79 1.79"/>
<rect x="360.736" y="481.196" width="13.6872" height="5.35585" rx="2.67793" transform="rotate(-101.672 360.736 481.196)" fill="#BD7FEC"/>
<line x1="589.54" y1="426.783" x2="364.547" y2="473.263" stroke="#BD7FEC" stroke-width="0.892642" stroke-dasharray="1.79 1.79"/>
<rect x="358.365" y="466.778" width="13.6872" height="5.35585" rx="2.67793" transform="rotate(-98.4024 358.365 466.778)" fill="#BD7FEC"/>
<line x1="589.9" y1="425.504" x2="362.622" y2="459.075" stroke="#BD7FEC" stroke-width="0.892642" stroke-dasharray="1.79 1.79"/>
<rect x="356.821" y="452.249" width="13.6872" height="5.35585" rx="2.67793" transform="rotate(-95.1324 356.821 452.249)" fill="#BD7FEC"/>
<line x1="590.333" y1="424.249" x2="361.51" y2="444.802" stroke="#BD7FEC" stroke-width="0.892642" stroke-dasharray="1.79 1.79"/>
<rect x="356.107" y="437.654" width="13.6872" height="5.35585" rx="2.67793" transform="rotate(-91.8624 356.107 437.654)" fill="#BD7FEC"/>
<line x1="590.836" y1="423.02" x2="361.214" y2="430.487" stroke="#BD7FEC" stroke-width="0.892642" stroke-dasharray="1.79 1.79"/>
<rect x="356.227" y="423.043" width="13.6872" height="5.35585" rx="2.67793" transform="rotate(-88.5924 356.227 423.043)" fill="#BD7FEC"/>
<line x1="591.41" y1="421.822" x2="361.735" y2="416.179" stroke="#BD7FEC" stroke-width="0.892642" stroke-dasharray="1.79 1.79"/>
<rect x="357.181" y="408.463" width="13.6872" height="5.35585" rx="2.67793" transform="rotate(-85.3225 357.181 408.463)" fill="#BD7FEC"/>
<line x1="592.049" y1="420.659" x2="363.071" y2="401.924" stroke="#BD7FEC" stroke-width="0.892642" stroke-dasharray="1.79 1.79"/>
<rect x="358.965" y="393.961" width="13.6872" height="5.35585" rx="2.67793" transform="rotate(-82.0525 358.965 393.961)" fill="#BD7FEC"/>
<line x1="592.756" y1="419.534" x2="365.218" y2="387.768" stroke="#BD7FEC" stroke-width="0.892642" stroke-dasharray="1.79 1.79"/>
<rect x="361.572" y="379.584" width="13.6872" height="5.35585" rx="2.67793" transform="rotate(-78.7825 361.572 379.584)" fill="#BD7FEC"/>
<line x1="593.524" y1="418.451" x2="368.169" y2="373.758" stroke="#BD7FEC" stroke-width="0.892642" stroke-dasharray="1.79 1.79"/>
<rect x="364.996" y="365.379" width="13.6872" height="5.35585" rx="2.67793" transform="rotate(-75.5126 364.996 365.379)" fill="#BD7FEC"/>
<line x1="594.353" y1="417.414" x2="371.914" y2="359.939" stroke="#BD7FEC" stroke-width="0.892642" stroke-dasharray="1.79 1.79"/>
<rect x="369.225" y="351.393" width="13.6872" height="5.35585" rx="2.67793" transform="rotate(-72.2426 369.225 351.393)" fill="#BD7FEC"/>
<line x1="595.24" y1="416.425" x2="376.441" y2="346.356" stroke="#BD7FEC" stroke-width="0.892642" stroke-dasharray="1.79 1.79"/>
<rect x="374.244" y="337.67" width="13.6872" height="5.35585" rx="2.67793" transform="rotate(-68.9726 374.244 337.67)" fill="#BD7FEC"/>
<line x1="596.181" y1="415.488" x2="381.736" y2="333.053" stroke="#BD7FEC" stroke-width="0.892642" stroke-dasharray="1.79 1.79"/>
<rect x="380.038" y="324.256" width="13.6872" height="5.35585" rx="2.67793" transform="rotate(-65.7027 380.038 324.256)" fill="#BD7FEC"/>
<line x1="597.175" y1="414.608" x2="387.781" y2="320.075" stroke="#BD7FEC" stroke-width="0.892642" stroke-dasharray="1.79 1.79"/>
<rect x="386.587" y="311.195" width="13.6872" height="5.35585" rx="2.67793" transform="rotate(-62.4327 386.587 311.195)" fill="#BD7FEC"/>
<line x1="598.218" y1="413.785" x2="394.557" y2="307.462" stroke="#BD7FEC" stroke-width="0.892642" stroke-dasharray="1.79 1.79"/>
<rect x="393.872" y="298.529" width="13.6872" height="5.35585" rx="2.67793" transform="rotate(-59.1627 393.872 298.529)" fill="#BD7FEC"/>
<line x1="599.305" y1="413.023" x2="402.041" y2="295.256" stroke="#BD7FEC" stroke-width="0.892642" stroke-dasharray="1.79 1.79"/>
<rect x="401.866" y="286.298" width="13.6872" height="5.35585" rx="2.67793" transform="rotate(-55.8927 401.866 286.298)" fill="#BD7FEC"/>
<line x1="600.435" y1="412.324" x2="410.21" y2="283.497" stroke="#BD7FEC" stroke-width="0.892642" stroke-dasharray="1.79 1.79"/>
<rect x="410.545" y="274.544" width="13.6872" height="5.35585" rx="2.67793" transform="rotate(-52.6228 410.545 274.544)" fill="#BD7FEC"/>
<line x1="601.602" y1="411.691" x2="419.034" y2="272.223" stroke="#BD7FEC" stroke-width="0.892642" stroke-dasharray="1.79 1.79"/>
<rect x="419.881" y="263.304" width="13.6872" height="5.35585" rx="2.67793" transform="rotate(-49.3528 419.881 263.304)" fill="#BD7FEC"/>
<line x1="602.804" y1="411.126" x2="428.489" y2="261.47" stroke="#BD7FEC" stroke-width="0.892642" stroke-dasharray="1.79 1.79"/>
<rect x="429.843" y="252.614" width="13.6872" height="5.35585" rx="2.67793" transform="rotate(-46.0828 429.843 252.614)" fill="#BD7FEC"/>
<line x1="604.035" y1="410.629" x2="438.541" y2="251.275" stroke="#BD7FEC" stroke-width="0.892642" stroke-dasharray="1.79 1.79"/>
<rect x="440.398" y="242.51" width="13.6872" height="5.35585" rx="2.67793" transform="rotate(-42.8129 440.398 242.51)" fill="#BD7FEC"/>
<line x1="605.294" y1="410.204" x2="449.158" y2="241.669" stroke="#BD7FEC" stroke-width="0.892642" stroke-dasharray="1.79 1.79"/>
<rect x="451.512" y="233.025" width="13.6872" height="5.35585" rx="2.67793" transform="rotate(-39.5429 451.512 233.025)" fill="#BD7FEC"/>
<line x1="606.574" y1="409.852" x2="460.306" y2="232.685" stroke="#BD7FEC" stroke-width="0.892642" stroke-dasharray="1.79 1.79"/>
<rect x="463.149" y="224.189" width="13.6872" height="5.35585" rx="2.67793" transform="rotate(-36.2729 463.149 224.189)" fill="#BD7FEC"/>
<line x1="607.872" y1="409.573" x2="471.948" y2="224.352" stroke="#BD7FEC" stroke-width="0.892642" stroke-dasharray="1.79 1.79"/>
<rect x="475.272" y="216.031" width="13.6872" height="5.35584" rx="2.67793" transform="rotate(-33.0029 475.272 216.031)" fill="#BD7FEC"/>
<line x1="609.185" y1="409.369" x2="484.048" y2="216.696" stroke="#BD7FEC" stroke-width="0.892642" stroke-dasharray="1.79 1.79"/>
<rect x="487.839" y="208.578" width="13.6872" height="5.35584" rx="2.67793" transform="rotate(-29.733 487.839 208.578)" fill="#BD7FEC"/>
<line x1="610.506" y1="409.239" x2="496.563" y2="209.742" stroke="#BD7FEC" stroke-width="0.892642" stroke-dasharray="1.79 1.79"/>
<rect x="500.812" y="201.854" width="13.6872" height="5.35584" rx="2.67793" transform="rotate(-26.463 500.812 201.854)" fill="#BD7FEC"/>
<line x1="611.834" y1="409.186" x2="509.455" y2="203.514" stroke="#BD7FEC" stroke-width="0.892642" stroke-dasharray="1.79 1.79"/>
<rect x="514.147" y="195.881" width="13.6872" height="5.35584" rx="2.67793" transform="rotate(-23.193 514.147 195.881)" fill="#BD7FEC"/>
<line x1="613.161" y1="409.208" x2="522.681" y2="198.031" stroke="#BD7FEC" stroke-width="0.892642" stroke-dasharray="1.79 1.79"/>
<rect x="527.801" y="190.679" width="13.6872" height="5.35584" rx="2.67793" transform="rotate(-19.9231 527.801 190.679)" fill="#BD7FEC"/>
<line x1="614.486" y1="409.305" x2="536.199" y2="193.311" stroke="#BD7FEC" stroke-width="0.892642" stroke-dasharray="1.79 1.79"/>
<rect x="541.729" y="186.263" width="13.6872" height="5.35584" rx="2.67793" transform="rotate(-16.6531 541.729 186.263)" fill="#BD7FEC"/>
<line x1="615.802" y1="409.479" x2="549.963" y2="189.371" stroke="#BD7FEC" stroke-width="0.892642" stroke-dasharray="1.79 1.79"/>
<rect x="555.887" y="182.65" width="13.6872" height="5.35584" rx="2.67793" transform="rotate(-13.3831 555.887 182.65)" fill="#BD7FEC"/>
<line x1="617.107" y1="409.727" x2="563.93" y2="186.222" stroke="#BD7FEC" stroke-width="0.892642" stroke-dasharray="1.79 1.79"/>
<rect x="570.228" y="179.849" width="13.6872" height="5.35584" rx="2.67793" transform="rotate(-10.1132 570.228 179.849)" fill="#BD7FEC"/>
<line x1="618.395" y1="410.049" x2="578.054" y2="183.874" stroke="#BD7FEC" stroke-width="0.892642" stroke-dasharray="1.79 1.79"/>
<rect x="584.705" y="177.871" width="13.6872" height="5.35584" rx="2.67793" transform="rotate(-6.84318 584.705 177.871)" fill="#BD7FEC"/>
<line x1="619.663" y1="410.444" x2="592.288" y2="182.337" stroke="#BD7FEC" stroke-width="0.892642" stroke-dasharray="1.79 1.79"/>
<rect x="599.271" y="176.723" width="13.6872" height="5.35584" rx="2.67793" transform="rotate(-3.57321 599.271 176.723)" fill="#BD7FEC"/>
<line x1="620.907" y1="410.911" x2="606.588" y2="181.613" stroke="#BD7FEC" stroke-width="0.892642" stroke-dasharray="1.79 1.79"/>
<rect x="515.668" y="342.605" width="195.012" height="181.198" fill="black"/>
<path d="M486.813 554.368L536.571 453.924L591.613 511.467L486.813 554.368Z" fill="black"/>
<path d="M487.663 307.519L587.118 359.224L528.514 413.135L487.663 307.519Z" fill="black"/>
<path d="M741.063 309.744L697.735 413.125L639.175 359.165L741.063 309.744Z" fill="black"/>
<path d="M735.568 558.983L637.55 504.602L697.594 452.299L735.568 558.983Z" fill="black"/>
<path d="M615.611 231.286L678.24 317.212H552.983L615.611 231.286Z" fill="black"/>
<rect x="584.735" y="306.853" width="61.7536" height="93.443" fill="black"/>
<path d="M400.286 433.61L486.213 370.982V496.238L400.286 433.61Z" fill="black"/>
<rect x="475.853" y="464.487" width="61.7536" height="93.443" transform="rotate(-90 475.853 464.487)" fill="black"/>
<path d="M615.611 633.497L552.983 547.57H678.239L615.611 633.497Z" fill="black"/>
<rect x="646.488" y="557.93" width="61.7536" height="93.443" transform="rotate(-180 646.488 557.93)" fill="black"/>
<path d="M822.811 430.36L736.884 492.988V367.731L822.811 430.36Z" fill="black"/>
<rect x="747.244" y="399.483" width="61.7536" height="93.443" transform="rotate(90 747.244 399.483)" fill="black"/>
<rect x="611.552" y="365.212" width="5.00479" height="131.125" fill="#BD7FEC"/>
<rect x="605.547" y="366.214" width="5.00479" height="16.6826" transform="rotate(-90 605.547 366.214)" fill="#BD7FEC"/>
<rect x="605.547" y="500.008" width="5.00479" height="16.6826" transform="rotate(-90 605.547 500.008)" fill="#BD7FEC"/>
<rect x="572.849" y="365.212" width="5.00479" height="131.125" fill="#BD7FEC"/>
<circle cx="569.512" cy="366.547" r="8.34131" fill="#BD7FEC"/>
<circle cx="569.512" cy="495.337" r="8.34131" fill="#BD7FEC"/>
<rect width="5.00479" height="131.125" transform="matrix(-1 0 0 1 656.262 365.212)" fill="#BD7FEC"/>
<circle cx="8.34131" cy="8.34131" r="8.34131" transform="matrix(-1 0 0 1 667.94 358.206)" fill="#BD7FEC"/>
<circle cx="8.34131" cy="8.34131" r="8.34131" transform="matrix(-1 0 0 1 667.94 486.996)" fill="#BD7FEC"/>
<path fill-rule="evenodd" clip-rule="evenodd" d="M593.315 415.943C593.691 415.948 594.069 415.95 594.449 415.95C612.618 415.95 627.347 410.812 627.347 404.475C627.347 398.138 612.618 393 594.449 393C594.069 393 593.691 393.002 593.315 393.007V397.237C593.691 397.232 594.069 397.23 594.449 397.23C603.189 397.23 610.921 398.472 616.318 400.355C619.037 401.303 620.935 402.335 622.07 403.272C622.878 403.938 623.069 404.348 623.11 404.475C623.069 404.602 622.878 405.012 622.07 405.678C620.935 406.614 619.037 407.647 616.318 408.595C610.921 410.478 603.189 411.72 594.449 411.72C594.069 411.72 593.691 411.717 593.315 411.713V415.943ZM623.118 404.445C623.12 404.437 623.12 404.433 623.12 404.433C623.12 404.433 623.12 404.434 623.119 404.437C623.119 404.439 623.119 404.442 623.118 404.445ZM623.118 404.505C623.12 404.513 623.12 404.517 623.12 404.517C623.12 404.517 623.119 404.513 623.118 404.505Z" fill="#BD7FEC"/>
<rect x="593.615" y="398.912" width="2.41537" height="8.33816" transform="rotate(-179.9 593.615 398.912)" fill="#BD7FEC"/>
<rect x="593.615" y="417.755" width="2.41537" height="8.33816" transform="rotate(-179.9 593.615 417.755)" fill="#BD7FEC"/>
<path fill-rule="evenodd" clip-rule="evenodd" d="M634.461 392.382C634.085 392.377 633.706 392.375 633.327 392.375C615.158 392.375 600.429 397.513 600.429 403.85C600.429 410.187 615.158 415.325 633.327 415.325C633.706 415.325 634.085 415.323 634.461 415.318V411.088C634.085 411.093 633.707 411.095 633.327 411.095C624.587 411.095 616.855 409.853 611.457 407.97C608.739 407.022 606.841 405.99 605.705 405.053C604.898 404.387 604.707 403.977 604.666 403.85C604.707 403.723 604.898 403.313 605.705 402.647C606.841 401.71 608.739 400.678 611.457 399.73C616.855 397.847 624.587 396.605 633.327 396.605C633.707 396.605 634.085 396.607 634.461 396.612V392.382ZM604.657 403.88C604.656 403.888 604.655 403.892 604.655 403.892C604.656 403.892 604.656 403.891 604.656 403.888C604.657 403.886 604.657 403.883 604.657 403.88ZM604.657 403.82C604.656 403.812 604.655 403.808 604.655 403.808C604.656 403.808 604.657 403.812 604.657 403.82Z" fill="#BD7FEC"/>
<rect x="634.161" y="409.413" width="2.41537" height="8.33816" transform="rotate(0.100447 634.161 409.413)" fill="#BD7FEC"/>
<rect x="634.161" y="390.57" width="2.41537" height="8.33816" transform="rotate(0.100447 634.161 390.57)" fill="#BD7FEC"/>
<path fill-rule="evenodd" clip-rule="evenodd" d="M637.879 460.637C636.13 469.876 626.286 475.419 614.6 475.419C603.297 475.419 593.461 470.233 591.2 461.533C591.2 461.587 591.2 461.642 591.2 461.696C591.2 472.72 601.656 481.657 614.555 481.657C627.454 481.657 637.911 472.72 637.911 461.696C637.911 461.341 637.9 460.988 637.879 460.637Z" fill="#BD7FEC"/>
<defs>
<filter id="filter0_b_55_541" x="291.242" y="115.091" width="639.963" height="633.244" filterUnits="userSpaceOnUse" color-interpolation-filters="sRGB">
<feFlood flood-opacity="0" result="BackgroundImageFix"/>
<feGaussianBlur in="BackgroundImageFix" stdDeviation="3.57521"/>
<feComposite in2="SourceAlpha" operator="in" result="effect1_backgroundBlur_55_541"/>
<feBlend mode="normal" in="SourceGraphic" in2="effect1_backgroundBlur_55_541" result="shape"/>
</filter>
<filter id="filter1_i_55_541" x="314.481" y="137.81" width="592.732" height="593.517" filterUnits="userSpaceOnUse" color-interpolation-filters="sRGB">
<feFlood flood-opacity="0" result="BackgroundImageFix"/>
<feBlend mode="normal" in="SourceGraphic" in2="BackgroundImageFix" result="shape"/>
<feColorMatrix in="SourceAlpha" type="matrix" values="0 0 0 0 0 0 0 0 0 0 0 0 0 0 0 0 0 0 127 0" result="hardAlpha"/>
<feOffset dy="7.15042"/>
<feGaussianBlur stdDeviation="3.57521"/>
<feComposite in2="hardAlpha" operator="arithmetic" k2="-1" k3="1"/>
<feColorMatrix type="matrix" values="0 0 0 0 0 0 0 0 0 0 0 0 0 0 0 0 0 0 0.25 0"/>
<feBlend mode="normal" in2="shape" result="effect1_innerShadow_55_541"/>
</filter>
<filter id="filter2_d_55_541" x="318.301" y="149.445" width="586.24" height="580.093" filterUnits="userSpaceOnUse" color-interpolation-filters="sRGB">
<feFlood flood-opacity="0" result="BackgroundImageFix"/>
<feColorMatrix in="SourceAlpha" type="matrix" values="0 0 0 0 0 0 0 0 0 0 0 0 0 0 0 0 0 0 127 0" result="hardAlpha"/>
<feOffset dy="6.9055"/>
<feGaussianBlur stdDeviation="3.45275"/>
<feComposite in2="hardAlpha" operator="out"/>
<feColorMatrix type="matrix" values="0 0 0 0 0 0 0 0 0 0 0 0 0 0 0 0 0 0 0.25 0"/>
<feBlend mode="normal" in2="BackgroundImageFix" result="effect1_dropShadow_55_541"/>
<feBlend mode="normal" in="SourceGraphic" in2="effect1_dropShadow_55_541" result="shape"/>
</filter>
<filter id="filter3_d_55_541" x="327.474" y="157.994" width="566.286" height="560.348" filterUnits="userSpaceOnUse" color-interpolation-filters="sRGB">
<feFlood flood-opacity="0" result="BackgroundImageFix"/>
<feColorMatrix in="SourceAlpha" type="matrix" values="0 0 0 0 0 0 0 0 0 0 0 0 0 0 0 0 0 0 127 0" result="hardAlpha"/>
<feOffset dy="6.67045"/>
<feGaussianBlur stdDeviation="3.33523"/>
<feComposite in2="hardAlpha" operator="out"/>
<feColorMatrix type="matrix" values="0 0 0 0 0 0 0 0 0 0 0 0 0 0 0 0 0 0 0.25 0"/>
<feBlend mode="normal" in2="BackgroundImageFix" result="effect1_dropShadow_55_541"/>
<feBlend mode="normal" in="SourceGraphic" in2="effect1_dropShadow_55_541" result="shape"/>
</filter>
<linearGradient id="paint0_linear_55_541" x1="686.303" y1="349.268" x2="517.374" y2="486.913" gradientUnits="userSpaceOnUse">
<stop stop-color="#FDFBFC"/>
<stop offset="1" stop-color="#FDFBFC"/>
</linearGradient>
</defs>
</svg>
