<svg width="24" height="20" viewBox="0 0 24 20" fill="none" xmlns="http://www.w3.org/2000/svg">
<path d="M22.0453 10.7103L2.02312 18.9678C1.9675 18.994 1.90619 19.0057 1.84484 19.002C1.78349 18.9983 1.72405 18.9793 1.67198 18.9466C1.61991 18.9139 1.57688 18.8687 1.54683 18.8151C1.51678 18.7615 1.50068 18.7012 1.5 18.6397V13.3283C1.5 13.241 1.53049 13.1564 1.5862 13.0891C1.64191 13.0218 1.71935 12.9761 1.80516 12.9599L13.4123 10.7567C14.2261 10.6025 14.2261 9.43721 13.4123 9.28299L1.80469 7.07987C1.71904 7.06352 1.64177 7.01784 1.58616 6.95068C1.53056 6.88352 1.50009 6.79909 1.5 6.7119V1.40283C1.5 1.13377 1.77562 0.921897 2.02312 1.02783L22.0453 9.33268C22.1799 9.39065 22.2946 9.48678 22.3751 9.6092C22.4557 9.73162 22.4986 9.87496 22.4986 10.0215C22.4986 10.1681 22.4557 10.3114 22.3751 10.4338C22.2946 10.5562 22.1799 10.6524 22.0453 10.7103Z" stroke="black" stroke-width="1.5" stroke-linecap="round" stroke-linejoin="round"/>
</svg>
