<svg width="20" height="19" viewBox="0 0 20 19" fill="none" xmlns="http://www.w3.org/2000/svg">
<path d="M18.5522 0.99691C18.3115 1.01443 18.0751 1.07091 17.8525 1.16416H17.8495C17.6357 1.24891 16.6195 1.67641 15.0745 2.32441L9.53797 4.65616C5.56522 6.32866 1.65997 7.97566 1.65997 7.97566L1.70647 7.95766C1.70647 7.95766 1.43722 8.04616 1.15597 8.23891C0.982219 8.34948 0.832703 8.49414 0.716473 8.66416C0.578473 8.86666 0.467473 9.17641 0.508723 9.49666C0.576223 10.0382 0.927223 10.3629 1.17922 10.5422C1.43422 10.7237 1.67722 10.8084 1.67722 10.8084H1.68322L5.34547 12.0422C5.50972 12.5694 6.46147 15.6984 6.69022 16.4192C6.82522 16.8497 6.95647 17.1189 7.12072 17.3244C7.20022 17.4294 7.29322 17.5172 7.40497 17.5877C7.46307 17.6215 7.52501 17.6481 7.58947 17.6672L7.55197 17.6582C7.56322 17.6612 7.57222 17.6702 7.58047 17.6732C7.61047 17.6814 7.63072 17.6844 7.66897 17.6904C8.24872 17.8659 8.71447 17.5059 8.71447 17.5059L8.74072 17.4849L10.903 15.5162L14.527 18.2964L14.6095 18.3317C15.3647 18.6632 16.1297 18.4787 16.534 18.1532C16.9412 17.8254 17.0995 17.4062 17.0995 17.4062L17.1257 17.3387L19.9262 2.99191C20.0057 2.63791 20.026 2.30641 19.9382 1.98466C19.8477 1.65903 19.6388 1.37897 19.3525 1.19941C19.112 1.05325 18.8332 0.982697 18.5522 0.99691ZM18.4765 2.53441C18.4735 2.58166 18.4825 2.57641 18.4615 2.66716V2.67541L15.6872 16.8729C15.6752 16.8932 15.655 16.9374 15.5995 16.9817C15.541 17.0282 15.4945 17.0574 15.2507 16.9607L10.8182 13.5624L8.14072 16.0029L8.70322 12.4104L15.9452 5.66041C16.2437 5.38291 16.144 5.32441 16.144 5.32441C16.165 4.98391 15.6932 5.22466 15.6932 5.22466L6.56122 10.8819L6.55822 10.8669L2.18122 9.39316V9.39016L2.16997 9.38791C2.17765 9.38536 2.18516 9.38236 2.19247 9.37891L2.21647 9.36691L2.23972 9.35866C2.23972 9.35866 6.14797 7.71166 10.1207 6.03916C12.1097 5.20141 14.1137 4.35766 15.655 3.70666C16.569 3.32191 17.484 2.93941 18.4 2.55916C18.4615 2.53516 18.4322 2.53516 18.4765 2.53516V2.53441Z" fill="white"/>
</svg>
