<svg width="20px" height="19px" viewBox="0 0 20 19" fill="none" xmlns="http://www.w3.org/2000/svg" transform="rotate(0) scale(1, 1)">
<path d="M16.0149 2.33654C17.0043 1.92141 17.675 1.64002 17.9223 1.53916H17.9278L17.9973 1.51005C18.1812 1.43303 18.3764 1.38616 18.5752 1.37124C18.7789 1.36173 18.9809 1.41298 19.1555 1.5185C19.3611 1.64825 19.5113 1.84984 19.5767 2.08412C19.6423 2.32557 19.6321 2.59009 19.5603 2.90974L19.5602 2.90971L19.5582 2.92007L16.7641 17.234L16.75 17.2702L16.75 17.2702L16.7495 17.2715L16.7494 17.2717L16.7493 17.2718L16.7493 17.2719L16.7491 17.2724L16.7465 17.2787C16.7434 17.2859 16.738 17.2985 16.7299 17.3153C16.7138 17.3491 16.6878 17.3994 16.6508 17.459C16.5761 17.5795 16.461 17.7305 16.2989 17.861L16.2988 17.8611C16.0026 18.0996 15.3862 18.2631 14.7602 17.9883L14.7568 17.9868L14.7177 17.9701L11.1312 15.2186L10.8824 15.0277L10.6505 15.2389L8.49712 17.1996L8.48624 17.2083L8.48138 17.2117C8.47394 17.2168 8.46077 17.2255 8.44253 17.2362C8.40568 17.2579 8.35048 17.2865 8.28202 17.3112C8.14441 17.3608 7.96856 17.3893 7.77762 17.3315L7.75276 17.324L7.72709 17.3199L7.70893 17.3171C7.70443 17.3151 7.69966 17.3131 7.69462 17.3111L7.69558 17.3075C7.66199 17.2976 7.62964 17.2839 7.59914 17.2667C7.53088 17.2227 7.4725 17.1678 7.41969 17.098L7.4198 17.098L7.41365 17.0903C7.29047 16.9362 7.17643 16.7164 7.04804 16.307L7.04765 16.3057C6.90506 15.8564 6.48382 14.4788 6.14584 13.3735C5.94086 12.7031 5.7665 12.1329 5.7035 11.9306L5.64658 11.7479L5.46519 11.6868L1.80294 10.453L1.76493 10.4402C1.74468 10.4319 1.71715 10.42 1.68438 10.4044C1.60594 10.3673 1.5017 10.3114 1.39668 10.2366L1.39658 10.2366C1.19165 10.0908 0.95729 9.86571 0.890886 9.51445L2.06226 9.74879L6.23302 11.1531L6.29943 11.4852L6.75871 11.2007L14.7874 6.22694L8.44754 12.1361L8.35278 12.2244L8.33274 12.3524L7.77024 15.9449L7.60529 16.9984L8.39334 16.2801L10.839 14.0509L15.0226 17.2583L15.0639 17.29L15.1124 17.3092C15.2403 17.36 15.3727 17.4025 15.5024 17.3998C15.6773 17.3961 15.7847 17.3134 15.8328 17.2752L15.8332 17.2749C15.8923 17.2278 15.9349 17.1786 15.966 17.1345C15.9907 17.0996 16.0194 17.048 16.0098 17.0641L16.0428 17.0084L16.0553 16.9448L18.7977 2.91016H18.8515V2.53516V2.53441L18.4765 2.52252V2.16016L18.4581 2.16024C18.4521 2.16032 18.4387 2.16053 18.423 2.16186C18.4057 2.16332 18.3797 2.16653 18.3492 2.17495C18.3172 2.18381 18.292 2.19514 18.2749 2.20382C18.2705 2.20606 18.2666 2.20811 18.2636 2.20974L18.2562 2.21282C17.3397 2.59331 16.4241 2.97605 15.5095 3.36103L15.5091 3.36121C14.167 3.9281 12.4739 4.64118 10.7451 5.36927C10.4889 5.47718 10.2319 5.58542 9.97516 5.69356C7.98877 6.52982 6.01851 7.3597 4.54486 7.98051L2.76685 8.72961L2.2698 8.93905L2.13896 8.99419L2.10543 9.00832L2.1041 9.00888L2.09108 9.0135L2.06937 9.0212L2.04877 9.0315L2.03969 9.03604L0.877744 9.42193C0.859936 9.21994 0.932404 9.01333 1.02618 8.8756C1.11376 8.74755 1.2264 8.63858 1.35729 8.55529L1.35741 8.55547L1.36797 8.54824C1.48561 8.46761 1.60263 8.40764 1.69088 8.36784C1.73457 8.34813 1.77011 8.33386 1.7937 8.32486C1.79411 8.3247 1.79453 8.32454 1.79494 8.32439L1.79534 8.32538L1.84184 8.30738L1.8414 8.30613L1.85052 8.30229L1.98124 8.24716L2.47793 8.03772L4.25484 7.28866C5.72772 6.66786 7.69717 5.838 9.68348 5.00178L9.68353 5.00176L15.2195 2.67023C15.2196 2.67018 15.2197 2.67014 15.2198 2.6701C15.5035 2.55113 15.769 2.4397 16.0149 2.33654ZM8.48798 17.207L8.48778 17.2072L8.48798 17.207ZM15.8071 5.25831C15.8071 5.2583 15.8069 5.25863 15.8065 5.25933L15.8071 5.25831ZM15.7697 5.30133L15.7697 5.3014L15.7697 5.30133Z" fill="#d6aded" stroke="#d6aded" stroke-width="0.75"/>
</svg>