<svg width="24px" height="24px" viewBox="0 0 24 24" fill="none" xmlns="http://www.w3.org/2000/svg" transform="rotate(0) scale(1, 1)">
<path d="M12 12.75V20.25C12 20.6478 11.842 21.0294 11.5607 21.3107C11.2794 21.592 10.8978 21.75 10.5 21.75C10.1022 21.75 9.72064 21.592 9.43934 21.3107C9.15804 21.0294 9 20.6478 9 20.25M12 12.75L11.5458 12.4092C10.8392 11.8794 9.96524 11.6221 9.0843 11.6847C8.20336 11.7473 7.37455 12.1256 6.75 12.75C6.45453 12.4545 6.10376 12.2201 5.7177 12.0602C5.33164 11.9003 4.91787 11.818 4.5 11.818C4.08213 11.818 3.66836 11.9003 3.2823 12.0602C2.89624 12.2201 2.54547 12.4545 2.25 12.75C2.25 7.365 6.615 3 12 3M12 12.75L12.4542 12.4092C13.1608 11.8794 14.0348 11.6221 14.9157 11.6847C15.7966 11.7473 16.6254 12.1256 17.25 12.75C17.5455 12.4545 17.8962 12.2201 18.2823 12.0602C18.6684 11.9003 19.0821 11.818 19.5 11.818C19.9179 11.818 20.3316 11.9003 20.7177 12.0602C21.1038 12.2201 21.4545 12.4545 21.75 12.75C21.75 7.365 17.385 3 12 3M12 3V2.25" stroke="#bba9e7" stroke-width="1.5" stroke-linecap="round" stroke-linejoin="round"/>
</svg>