<svg width="28" height="24" viewBox="0 0 28 24" fill="none" xmlns="http://www.w3.org/2000/svg">
<mask id="path-1-inside-1_1777_5451" fill="white">
<path fill-rule="evenodd" clip-rule="evenodd" d="M5.05168 0.118118L0.0211699 10.6847C0.0020273 10.724 -0.00403885 10.7684 0.00385851 10.8114C0.0117559 10.8544 0.0332024 10.8938 0.0650619 10.9237L13.6513 23.9426C13.6899 23.9796 13.7413 24.0002 13.7947 24.0002C13.8482 24.0002 13.8996 23.9796 13.9382 23.9426L27.5244 10.9245C27.5563 10.8946 27.5777 10.8552 27.5856 10.8122C27.5935 10.7692 27.5874 10.7248 27.5683 10.6855L22.5378 0.118931C22.5215 0.0834438 22.4954 0.0533817 22.4626 0.0323375C22.4297 0.0112933 22.3915 0.000157089 22.3525 0.000259871H5.23863C5.19942 -0.000227951 5.16091 0.01064 5.12774 0.0315527C5.09456 0.0524653 5.06815 0.0825294 5.05168 0.118118Z"/>
</mask>
<path d="M0.0211699 10.6847L0.920237 11.1226L0.92407 11.1146L0.0211699 10.6847ZM0.0650619 10.9237L0.756966 10.2016L0.749807 10.1949L0.0650619 10.9237ZM13.6513 23.9426L14.3434 23.2208L14.3431 23.2205L13.6513 23.9426ZM13.7947 24.0002V23.0002V24.0002ZM13.9382 23.9426L13.2463 23.2205L13.246 23.2208L13.9382 23.9426ZM27.5244 10.9245L26.8396 10.1957L26.8326 10.2025L27.5244 10.9245ZM27.5683 10.6855L26.6654 11.1154L26.6693 11.1234L27.5683 10.6855ZM22.5378 0.118931L21.6284 0.534927L21.6316 0.541879L21.6349 0.548781L22.5378 0.118931ZM22.3525 0.000259871V1.00026L22.3551 1.00026L22.3525 0.000259871ZM5.23863 0.000259871L5.22619 1.00026H5.23863V0.000259871ZM4.14878 -0.311732L-0.88173 10.2549L0.92407 11.1146L5.95459 0.547968L4.14878 -0.311732ZM-0.877861 10.2468C-0.99046 10.478 -1.02614 10.7392 -0.979689 10.9921L0.987406 10.6308C1.01806 10.7977 0.994515 10.97 0.920201 11.1226L-0.877861 10.2468ZM-0.979689 10.9921C-0.933235 11.245 -0.807083 11.4764 -0.619684 11.6525L0.749807 10.1949C0.873488 10.3111 0.956747 10.4638 0.987406 10.6308L-0.979689 10.9921ZM-0.626809 11.6457L12.9594 24.6646L14.3431 23.2205L0.756933 10.2017L-0.626809 11.6457ZM12.9591 24.6643C13.1839 24.8799 13.4833 25.0002 13.7947 25.0002V23.0002C13.9992 23.0002 14.1958 23.0792 14.3434 23.2208L12.9591 24.6643ZM13.7947 25.0002C14.1062 25.0002 14.4056 24.8799 14.6304 24.6643L13.246 23.2208C13.3936 23.0792 13.5902 23.0002 13.7947 23.0002V25.0002ZM14.63 24.6646L28.2163 11.6465L26.8326 10.2025L13.2463 23.2205L14.63 24.6646ZM28.2092 11.6533C28.3966 11.4772 28.5227 11.2458 28.5692 10.9929L26.6021 10.6316C26.6327 10.4647 26.716 10.3119 26.8397 10.1957L28.2092 11.6533ZM28.5692 10.9929C28.6156 10.74 28.5799 10.4789 28.4673 10.2476L26.6693 11.1234C26.5949 10.9708 26.5714 10.7985 26.6021 10.6316L28.5692 10.9929ZM28.4712 10.2557L23.4407 -0.310919L21.6349 0.548781L26.6654 11.1154L28.4712 10.2557ZM23.4471 -0.297066C23.351 -0.507196 23.1964 -0.685196 23.0018 -0.8098L21.9233 0.874475C21.7945 0.79196 21.6921 0.674084 21.6284 0.534927L23.4471 -0.297066ZM23.0018 -0.8098C22.8073 -0.934405 22.5809 -1.00035 22.3498 -0.999737L22.3551 1.00026C22.2021 1.00066 22.0522 0.956991 21.9233 0.874475L23.0018 -0.8098ZM22.3525 -0.99974H5.23863V1.00026H22.3525V-0.99974ZM5.25107 -0.999663C5.0189 -1.00255 4.79085 -0.9382 4.59443 -0.814373L5.66104 0.877478C5.53096 0.95948 5.37994 1.0021 5.22619 1.00018L5.25107 -0.999663ZM4.59443 -0.814373C4.39802 -0.690545 4.24163 -0.51253 4.14412 -0.301804L5.95924 0.538041C5.89468 0.677589 5.79111 0.795475 5.66104 0.877478L4.59443 -0.814373Z" fill="white" mask="url(#path-1-inside-1_1777_5451)"/>
<path fill-rule="evenodd" clip-rule="evenodd" d="M15.5402 11.7699C15.4426 11.7772 14.9387 11.8073 13.8146 11.8073C12.9205 11.8073 12.2857 11.7804 12.063 11.7699C8.60769 11.6179 6.02863 11.0164 6.02863 10.2962C6.02863 9.57608 8.60769 8.97541 12.063 8.82098V11.1708C12.2889 11.1871 12.9359 11.2253 13.83 11.2253C14.9029 11.2253 15.4402 11.1806 15.5369 11.1716V8.8226C18.9849 8.97623 21.5583 9.57771 21.5583 10.2962C21.5583 11.0148 18.9857 11.6163 15.5369 11.7691L15.5402 11.7699ZM15.5402 8.57957V6.47682H20.352V3.27026H7.2511V6.47682H12.0622V8.57876C8.1517 8.75839 5.21094 9.53301 5.21094 10.4612C5.21094 11.3895 8.1517 12.1633 12.0622 12.3437V19.082H15.5394V12.3413C19.4409 12.1617 22.3768 11.3879 22.3768 10.4604C22.3768 9.53301 19.4433 8.7592 15.5394 8.57876L15.5402 8.57957Z" fill="white"/>
</svg>
