<svg xmlns="http://www.w3.org/2000/svg" width="21" height="15" viewBox="0 0 21 15" fill="none">
<path d="M20.19 1.85361C20.19 5.32353 20.19 8.79394 20.19 12.2639C20.1786 12.2945 20.1628 12.3241 20.1564 12.3557C19.9426 13.4225 19.1104 14.1159 18.0259 14.1164C12.743 14.1183 7.46054 14.1183 2.17763 14.1164C0.918763 14.1159 0.00214317 13.1978 0.00115543 11.9374C-0.000820039 8.6848 -0.000326172 5.43218 0.00313091 2.17956C0.00313091 1.99733 0.0194286 1.81015 0.0609135 1.63335C0.293526 0.644622 1.13903 0.000617335 2.19739 0.000617335C7.46054 -0.000370402 12.7232 0.000123467 17.9864 0.000123467C18.052 0.000123467 18.1177 -0.000864267 18.1834 0.00358055C18.7835 0.04309 19.2749 0.293975 19.6759 0.743395C19.9623 1.06392 20.0967 1.44716 20.19 1.85361ZM1.42152 6.94786C1.41806 7.02145 1.41313 7.08565 1.41313 7.14936C1.41263 8.72628 1.41214 10.3027 1.41313 11.8796C1.41362 12.4476 1.6729 12.7044 2.24727 12.7044C7.47684 12.7049 12.7064 12.7049 17.936 12.7044C18.5232 12.7044 18.778 12.451 18.778 11.8678C18.7785 10.2978 18.778 8.72727 18.778 7.15726C18.778 7.08812 18.778 7.01898 18.778 6.94786C12.9771 6.94786 7.20521 6.94786 1.42152 6.94786ZM1.42152 3.26953C7.21608 3.26953 12.9889 3.26953 18.7711 3.26953C18.7711 2.84332 18.7958 2.42847 18.7588 2.01955C18.744 1.85806 18.6131 1.68866 18.495 1.56025C18.3479 1.40024 18.1281 1.4116 17.9217 1.4116C12.7039 1.41259 7.48672 1.41259 2.269 1.41259C2.18998 1.41259 2.11096 1.4116 2.03293 1.4195C1.72673 1.44963 1.44424 1.69607 1.42794 1.9998C1.40473 2.41761 1.42152 2.8374 1.42152 3.26953ZM18.7696 4.7057C12.9751 4.7057 7.20225 4.7057 1.42794 4.7057C1.42794 4.98276 1.42794 5.24748 1.42794 5.51169C7.21558 5.51169 12.9884 5.51169 18.7696 5.51169C18.7696 5.23957 18.7696 4.9793 18.7696 4.7057Z" fill="#d6aded"/>
<path d="M15.0486 11.7659C14.372 11.7659 13.6959 11.7729 13.0193 11.7635C12.5111 11.7566 12.1896 11.3491 12.3076 10.8844C12.3787 10.6049 12.6227 10.3964 12.9116 10.3698C12.9576 10.3653 13.0035 10.3638 13.0494 10.3638C14.3957 10.3634 15.742 10.3619 17.0878 10.3648C17.5011 10.3658 17.7925 10.6083 17.8345 10.9718C17.8864 11.4242 17.5826 11.7595 17.0972 11.7645C16.4146 11.7719 15.7316 11.7664 15.0486 11.7659Z" fill="#d6aded"/>
<path d="M3.97989 7.87812C4.2688 7.87812 4.55722 7.87269 4.84614 7.87911C5.25901 7.88849 5.55336 8.17593 5.55879 8.56361C5.56472 8.96414 5.27679 9.26787 4.85404 9.27528C4.25053 9.28565 3.64653 9.28614 3.04352 9.27429C2.63114 9.26639 2.34667 8.96414 2.34963 8.57201C2.3526 8.18086 2.64348 7.88998 3.05537 7.8796C3.36305 7.8722 3.67172 7.87862 3.97989 7.87812Z" fill="#d6aded"/>
</svg>