<svg width="55" height="34" viewBox="0 0 55 34" fill="none" xmlns="http://www.w3.org/2000/svg">
<path d="M47.3217 0.27417H7.27208C3.41978 0.27417 0.296875 3.36901 0.296875 7.1867V26.3616C0.296875 30.1793 3.41978 33.2742 7.27208 33.2742H47.3217C51.174 33.2742 54.2969 30.1793 54.2969 26.3616V7.1867C54.2969 3.36901 51.174 0.27417 47.3217 0.27417Z" fill="url(#paint0_linear_3866_5618)"/>
<g style="mix-blend-mode:overlay">
<path d="M26.7958 27.7018C25.1256 27.7001 23.5242 27.0358 22.3431 25.8548C21.1621 24.6738 20.4978 23.0725 20.4961 21.4022C20.4948 20.4673 20.703 19.544 21.1056 18.7003C21.5082 17.8565 22.0949 17.1137 22.8224 16.5266C22.095 15.9393 21.5086 15.1965 21.106 14.3528C20.7034 13.509 20.495 12.5858 20.4961 11.6509C20.4978 9.98071 21.1621 8.3794 22.3431 7.19837C23.5242 6.01734 25.1256 5.35306 26.7958 5.35132C28.466 5.35306 30.0673 6.01734 31.2483 7.19837C32.4294 8.3794 33.0936 9.98071 33.0954 11.6509C33.0958 12.5857 32.8871 13.5087 32.4846 14.3523C32.0821 15.1959 31.4959 15.9388 30.7691 16.5266C31.4961 17.1142 32.0824 17.8571 32.4849 18.7007C32.8874 19.5444 33.096 20.4675 33.0954 21.4022C33.0928 23.0722 32.4282 24.673 31.2474 25.8539C30.0665 27.0347 28.4657 27.6992 26.7958 27.7018ZM26.7958 6.33892C25.3869 6.33979 24.0359 6.89962 23.0394 7.89553C22.0429 8.89145 21.4822 10.2421 21.4804 11.6509C21.4805 12.5401 21.7049 13.4148 22.1327 14.1942C22.5605 14.9736 23.1781 15.6325 23.9281 16.1099L24.5844 16.5266L23.9281 16.94C23.1782 17.4184 22.5609 18.0779 22.1331 18.8578C21.7053 19.6377 21.4808 20.5127 21.4804 21.4022C21.483 22.8108 22.044 24.1609 23.0404 25.1567C24.0367 26.1524 25.3872 26.7125 26.7958 26.7143C28.2027 26.7099 29.5506 26.1487 30.5448 25.1532C31.539 24.1578 32.0986 22.8091 32.1012 21.4022C32.1008 20.5127 31.8764 19.6377 31.4486 18.8578C31.0208 18.0779 30.4035 17.4184 29.6536 16.94L28.9974 16.5266L29.6536 16.1099C30.4034 15.6323 31.0208 14.9733 31.4486 14.194C31.8764 13.4146 32.1009 12.54 32.1012 11.6509C32.0995 10.2438 31.5402 8.89465 30.5458 7.89902C29.5514 6.90339 28.2029 6.34239 26.7958 6.33892Z" fill="#070A10"/>
<path d="M21.3728 9.12476H0V10.1123H21.3728V9.12476Z" fill="#070A10"/>
<path d="M53.5918 9.12476H32.5996V10.1123H53.5918V9.12476Z" fill="#070A10"/>
<path d="M21.3728 22.7869H0V23.7745H21.3728V22.7869Z" fill="#070A10"/>
<path d="M53.5918 22.7869H32.5996V23.7745H53.5918V22.7869Z" fill="#070A10"/>
<path d="M11.179 0H10.1914V33.05H11.179V0Z" fill="#070A10"/>
<path d="M40.5032 9.61694H39.5156V23.2792H40.5032V9.61694Z" fill="#070A10"/>
<path d="M45.4524 0H44.4648V9.61676H45.4524V0Z" fill="#070A10"/>
<path d="M45.4524 23.2791H44.4648V33.05H45.4524V23.2791Z" fill="#070A10"/>
</g>
<defs>
<linearGradient id="paint0_linear_3866_5618" x1="27.2952" y1="33.2742" x2="27.2952" y2="0.27417" gradientUnits="userSpaceOnUse">
<stop stop-color="#EDC452"/>
<stop offset="0.05" stop-color="#E6CC64"/>
<stop offset="0.1" stop-color="#D1AC42"/>
<stop offset="0.15" stop-color="#C09328"/>
<stop offset="0.21" stop-color="#B48116"/>
<stop offset="0.26" stop-color="#AC760B"/>
<stop offset="0.32" stop-color="#FFF0D4"/>
<stop offset="0.39" stop-color="#FFEABE"/>
<stop offset="0.49" stop-color="#EDC452"/>
<stop offset="0.6" stop-color="#CEA33A"/>
<stop offset="0.66" stop-color="#DCB64E"/>
<stop offset="0.68" stop-color="#DFBC55"/>
<stop offset="0.82" stop-color="#F1D975"/>
<stop offset="0.93" stop-color="#FBEB89"/>
<stop offset="1" stop-color="#FFF290"/>
</linearGradient>
</defs>
</svg>
