<svg width="323" height="195" viewBox="0 0 323 195" fill="none" xmlns="http://www.w3.org/2000/svg">
<mask id="mask0_3862_5616" style="mask-type:luminance" maskUnits="userSpaceOnUse" x="0" y="0" width="323" height="195">
<path d="M305.035 0H18.2808C8.36148 0 0.320312 8.04117 0.320312 17.9605V176.235C0.320312 186.154 8.36148 194.195 18.2808 194.195H305.035C314.954 194.195 322.995 186.154 322.995 176.235V17.9605C322.995 8.04117 314.954 0 305.035 0Z" fill="white"/>
</mask>
<g mask="url(#mask0_3862_5616)">
<path style="mix-blend-mode:multiply" d="M242.306 110.233C205.775 127.295 167.499 136.744 134.491 137.758C103.738 138.69 77.2697 132.853 56.1332 124.444C36.4272 116.599 21.2523 106.815 8.41352 97.5193C-2.99798 89.2543 -12.2243 81.5439 -21.1159 75.5658C-21.5786 75.2377 -22.0542 74.9686 -22.5234 74.6733V96.5743C-12.257 101.063 -1.52476 107.034 10.5692 113.859C28.2147 123.807 48.4293 135.399 73.8574 146.479C102.301 158.865 136.565 170.306 178.195 175.782C222.299 181.567 274.221 179.746 325.721 165.631C306.615 139.195 262.665 128.889 242.306 110.233Z" fill="url(#paint0_linear_3862_5616)"/>
<path style="mix-blend-mode:multiply" d="M334.567 -24.6047C304.227 18.2228 267.184 60.3974 216.518 91.3837C186.89 109.482 154.09 121.481 124.373 125.352C99.7456 128.568 74.7229 126.805 50.7892 120.168C31.3063 114.735 15.6557 107.188 1.78012 100.197C-6.99997 95.7704 -14.8941 91.6264 -22.5488 88.3126V97.7489C-19.7956 98.4816 -17.0956 99.4013 -14.4676 100.502C-1.73717 105.869 11.2329 113.823 26.6669 122.636C44.2041 132.649 64.2842 143.559 89.6073 152.195C116.627 161.401 149.372 167.537 186.005 164.768C224.189 161.861 266.738 147.965 302.987 125.471C313.984 118.616 324.532 111.066 334.567 102.867V-24.6047Z" fill="url(#paint1_linear_3862_5616)"/>
<path style="mix-blend-mode:multiply" d="M320.255 -25.6152C295.254 1.15813 265.885 26.2647 232.792 46.6926C201.8 65.8047 168.576 79.8705 137.222 87.5515C108.706 94.527 82.0642 96.2266 59.425 94.8846C38.797 93.6575 21.4205 90.1074 6.18007 86.6229C-3.96166 84.2999 -13.5063 82.118 -22.5488 80.6514V96.8992C-9.25729 101.758 4.17862 111.031 20.7775 120.372C34.9089 128.322 51.173 136.239 71.4992 140.783C92.5635 145.485 118.746 145.839 145.566 138.716C175.18 130.842 205.819 113.997 232.989 92.1252C262.811 68.108 287.838 39.5464 309.785 9.7873C299.23 4.51138 314.533 -12.0186 320.255 -25.6152Z" fill="url(#paint2_linear_3862_5616)"/>
<path style="mix-blend-mode:multiply" d="M334.567 -37.801C307.311 -3.79951 274.107 28.4007 231.48 51.3451C203.729 66.2607 173.514 75.6741 146.015 78.7911C122.875 81.367 99.469 80.13 76.7292 75.1294C41.1725 67.3763 17.9984 54.1668 -4.76227 49.5668C-10.6199 48.4369 -16.6066 48.1309 -22.5488 48.6579V88.8475C-16.9054 91.7315 -11.1046 95.1012 -4.87057 98.7497C8.16176 106.378 22.6739 115.027 40.9559 122.439C60.616 130.399 84.4396 136.639 112.355 136.846C141.776 137.053 176.25 129.644 208.49 114.65C259.615 90.8424 300.625 53.2579 334.554 12.4384L334.567 -37.801Z" fill="url(#paint3_linear_3862_5616)"/>
<path style="mix-blend-mode:multiply" d="M334.566 -46.5122C318.347 -26.8184 300.399 -8.6138 280.938 7.88432C250.47 33.7226 215.51 55.9484 179.343 71.7762C146.359 86.2128 113.516 94.6451 84.8491 97.7162C62.8313 100.103 40.5964 99.6085 18.7064 96.2463C2.62923 93.7822 -10.6065 90.301 -22.543 87.8304V101.033C-11.1676 102.835 0.00108528 107.267 10.2281 113.232C22.4894 120.398 35.233 128.876 51.3692 135.842C68.1649 143.087 88.8815 148.31 112.633 146.486C138.133 144.517 167.974 133.509 195.253 115.972C226.751 95.7016 255.027 68.4361 280.77 38.2832C300.785 14.8237 318.345 -9.23948 334.58 -33.0993L334.566 -46.5122Z" fill="url(#paint4_linear_3862_5616)"/>
<path style="mix-blend-mode:multiply" d="M334.567 65.0665C313.929 63.9181 296.481 62.2218 284.961 57.7169C274.708 53.7009 270.564 45.8724 272.857 37.5188C244.45 64.2987 211.538 87.2661 176.775 101.706C145.447 114.705 113.034 119.991 86.0309 118.787C60.7111 117.645 39.6829 111.589 22.0046 104.761C5.92742 98.5562 -7.09835 91.8595 -19.4942 86.9183C-20.5014 86.518 -21.5251 86.1505 -22.5488 85.7929V98.2248C-15.0025 100.345 -7.71951 103.31 -0.838148 107.064C13.6214 114.899 29.1047 124.893 48.6073 134.585C70.0883 145.252 95.7101 155.233 127.238 158.927C159.901 162.74 199.726 158.242 236.52 142.923C273.595 127.459 307.184 102.129 334.567 72.9673V65.0665Z" fill="url(#paint5_linear_3862_5616)"/>
<path style="mix-blend-mode:multiply" d="M334.567 -24.8047C294.266 27.3181 242.087 77.236 178.822 98.6744C148.751 108.846 118.251 111.201 93.2164 107.96C69.3697 104.859 49.959 97.4604 33.5669 89.5858C10.4552 78.4828 -5.96648 66.7825 -22.5391 62.0808V95.7083C-22.4144 95.7706 -22.2897 95.8264 -22.1651 95.892C-9.12945 102.454 4.55255 111.369 21.5746 120.71C40.841 131.278 63.7624 142.145 93.0392 149.048C124.367 156.421 163.3 158.426 204.48 149.75C248.817 140.386 294.919 118.407 333.98 89.2085C334.183 89.0576 334.377 88.9001 334.577 88.7492L334.567 -24.8047Z" fill="url(#paint6_linear_3862_5616)"/>
<path style="mix-blend-mode:multiply" d="M304.457 -26.698C279.705 -3.07444 250.057 17.8619 217.864 32.9777C187.763 47.0863 156.301 55.571 127.841 59.026C101.593 62.2053 78.1072 61.3785 57.604 59.4689C39.1021 57.7464 23.1004 55.2036 8.2602 54.006C-2.01399 53.1813 -12.3482 53.5115 -22.5488 54.9903V90.6356C-19.7567 91.551 -16.971 92.5682 -14.2313 93.6903C-1.38602 98.94 12.6306 105.42 30.1645 110.575C52.6427 117.241 76.156 119.714 99.5292 117.868C128.842 115.549 162.637 105.564 194.525 88.644C229.941 69.8403 262.214 43.8118 290.286 14.8893C298.305 -1.91623 315.307 -20.6609 304.457 -26.698Z" fill="url(#paint7_linear_3862_5616)"/>
</g>
<defs>
<linearGradient id="paint0_linear_3862_5616" x1="158.053" y1="94.9438" x2="121.527" y2="245.811" gradientUnits="userSpaceOnUse">
<stop stop-color="white"/>
<stop offset="0.17" stop-color="#FFFEFC"/>
<stop offset="0.32" stop-color="#FDFAF1"/>
<stop offset="0.47" stop-color="#FBF3DF"/>
<stop offset="0.61" stop-color="#F8EAC5"/>
<stop offset="0.74" stop-color="#F5DEA5"/>
<stop offset="0.88" stop-color="#F0CF7D"/>
<stop offset="1" stop-color="#EBBF50"/>
</linearGradient>
<linearGradient id="paint1_linear_3862_5616" x1="165.883" y1="-60.7886" x2="168.204" y2="169.062" gradientUnits="userSpaceOnUse">
<stop stop-color="white"/>
<stop offset="0.17" stop-color="#FFFEFC"/>
<stop offset="0.32" stop-color="#FDFAF1"/>
<stop offset="0.47" stop-color="#FBF3DF"/>
<stop offset="0.61" stop-color="#F8EAC5"/>
<stop offset="0.74" stop-color="#F5DEA5"/>
<stop offset="0.88" stop-color="#F0CF7D"/>
<stop offset="1" stop-color="#EBBF50"/>
</linearGradient>
<linearGradient id="paint2_linear_3862_5616" x1="148.289" y1="7.35453" x2="171.913" y2="135.976" gradientUnits="userSpaceOnUse">
<stop stop-color="white"/>
<stop offset="0.17" stop-color="#FFFEFC"/>
<stop offset="0.32" stop-color="#FDFAF1"/>
<stop offset="0.47" stop-color="#FBF3DF"/>
<stop offset="0.61" stop-color="#F8EAC5"/>
<stop offset="0.74" stop-color="#F5DEA5"/>
<stop offset="0.88" stop-color="#F0CF7D"/>
<stop offset="1" stop-color="#EBBF50"/>
</linearGradient>
<linearGradient id="paint3_linear_3862_5616" x1="178.243" y1="-94.525" x2="158.525" y2="147.024" gradientUnits="userSpaceOnUse">
<stop stop-color="white"/>
<stop offset="0.17" stop-color="#FFFEFC"/>
<stop offset="0.32" stop-color="#FDFAF1"/>
<stop offset="0.47" stop-color="#FBF3DF"/>
<stop offset="0.61" stop-color="#F8EAC5"/>
<stop offset="0.74" stop-color="#F5DEA5"/>
<stop offset="0.88" stop-color="#F0CF7D"/>
<stop offset="1" stop-color="#EBBF50"/>
</linearGradient>
<linearGradient id="paint4_linear_3862_5616" x1="126.781" y1="-72.3204" x2="182.996" y2="128.446" gradientUnits="userSpaceOnUse">
<stop stop-color="white"/>
<stop offset="0.17" stop-color="#FFFEFC"/>
<stop offset="0.32" stop-color="#FDFAF1"/>
<stop offset="0.47" stop-color="#FBF3DF"/>
<stop offset="0.61" stop-color="#F8EAC5"/>
<stop offset="0.74" stop-color="#F5DEA5"/>
<stop offset="0.88" stop-color="#F0CF7D"/>
<stop offset="1" stop-color="#EBBF50"/>
</linearGradient>
<linearGradient id="paint5_linear_3862_5616" x1="153.697" y1="39.5258" x2="158.438" y2="162.797" gradientUnits="userSpaceOnUse">
<stop stop-color="white"/>
<stop offset="0.17" stop-color="#FFFEFC"/>
<stop offset="0.32" stop-color="#FDFAF1"/>
<stop offset="0.47" stop-color="#FBF3DF"/>
<stop offset="0.61" stop-color="#F8EAC5"/>
<stop offset="0.74" stop-color="#F5DEA5"/>
<stop offset="0.88" stop-color="#F0CF7D"/>
<stop offset="1" stop-color="#EBBF50"/>
</linearGradient>
<linearGradient id="paint6_linear_3862_5616" x1="180.355" y1="-60.5905" x2="152.64" y2="156.87" gradientUnits="userSpaceOnUse">
<stop stop-color="white"/>
<stop offset="0.17" stop-color="#FFFEFC"/>
<stop offset="0.32" stop-color="#FDFAF1"/>
<stop offset="0.47" stop-color="#FBF3DF"/>
<stop offset="0.61" stop-color="#F8EAC5"/>
<stop offset="0.74" stop-color="#F5DEA5"/>
<stop offset="0.88" stop-color="#F0CF7D"/>
<stop offset="1" stop-color="#EDC452"/>
</linearGradient>
<linearGradient id="paint7_linear_3862_5616" x1="140.28" y1="-8.2877" x2="156.083" y2="116.922" gradientUnits="userSpaceOnUse">
<stop stop-color="white"/>
<stop offset="0.17" stop-color="#FFFEFC"/>
<stop offset="0.32" stop-color="#FDFAF1"/>
<stop offset="0.47" stop-color="#FBF3DF"/>
<stop offset="0.61" stop-color="#F8EAC5"/>
<stop offset="0.74" stop-color="#EDC452"/>
<stop offset="0.88" stop-color="#EDC452"/>
<stop offset="1" stop-color="#EBBF50"/>
</linearGradient>
</defs>
</svg>
