<svg width="13" height="12" viewBox="0 0 13 12" fill="none" xmlns="http://www.w3.org/2000/svg">
<path d="M0 4V6.5424C0.717023 6.54328 1.42686 6.68515 2.08897 6.9599C2.75107 7.23465 3.35247 7.6369 3.85885 8.14369C4.36524 8.65047 4.76668 9.25186 5.04025 9.91353C5.31383 10.5752 5.45418 11.2842 5.4533 12H8C8.00088 10.9503 7.79468 9.91072 7.39312 8.9406C6.99156 7.97047 6.40249 7.08879 5.65962 6.34592C4.91675 5.60305 4.03464 5.01354 3.06356 4.61103C2.09248 4.20851 1.05146 4.00088 0 4Z" fill="#1F1F1F"/>
<path d="M0 0V2.52303C2.72328 2.52552 5.33413 3.52508 7.25883 5.30208C9.18352 7.07909 10.2646 9.48817 10.2646 12H13C12.9991 8.81928 11.6296 5.76893 9.19206 3.51894C6.75456 1.26895 3.44848 0.0033097 0 0Z" fill="#1F1F1F"/>
<path d="M1.99874 9C1.73385 9 1.47986 9.15804 1.29255 9.43934C1.10524 9.72064 1 10.1022 1 10.5C1 10.8978 1.10524 11.2794 1.29255 11.5607C1.47986 11.842 1.73385 12 1.99874 12C2.26386 12 2.51819 11.8421 2.70589 11.5609C2.89359 11.2797 2.99935 10.8982 3 10.5C2.99935 10.1018 2.89359 9.72031 2.70589 9.43911C2.51819 9.15792 2.26386 9 1.99874 9Z" fill="#1F1F1F"/>
</svg>
