<svg width="24" height="21" viewBox="0 0 24 21" fill="none" xmlns="http://www.w3.org/2000/svg">
<path d="M20.6118 2.74732L17.7242 4.27037L3.76959 11.6205C3.57077 10.041 3.80019 8.43538 4.43226 6.98281C5.06433 5.53025 6.07419 4.28785 7.34919 3.39421C8.62419 2.50057 10.1142 1.99084 11.653 1.92188C13.1917 1.85292 14.7188 2.22743 16.0638 3.00365L17.717 2.13263L17.9636 2.00198C16.3953 0.824964 14.534 0.136654 12.5996 0.0183249C10.6652 -0.100004 8.73846 0.356589 7.04688 1.33419C5.35531 2.31179 3.96955 3.76957 3.05325 5.53538C2.13695 7.30119 1.72838 9.3013 1.87577 11.2995C1.90335 11.6754 1.82279 12.0512 1.64423 12.3798C1.46567 12.7084 1.19709 12.975 0.872312 13.1461L0 13.6065V15.7517L2.5676 14.3979L3.39901 13.9586L4.21838 13.5268L18.9286 5.77474L20.5817 4.90497L23.9988 3.10444V0.960484L20.6118 2.74732ZM24 5.25089L5.0558 15.2253L3.40262 16.0963L0.0012031 17.8919V20.0359L3.37976 18.2565L6.26861 16.7334L20.2376 9.37206C20.4395 10.954 20.2116 12.5629 19.5796 14.0185C18.9475 15.4742 17.9362 16.7192 16.6588 17.6142C15.3814 18.5092 13.8884 19.0188 12.3468 19.0861C10.8052 19.1534 9.27599 18.7757 7.93022 17.9952L7.82794 18.0512L6.03519 18.9968C7.60378 20.1745 9.46554 20.8632 11.4005 20.9817C13.3355 21.1001 15.2628 20.6432 16.9547 19.6651C18.6467 18.687 20.0325 17.2284 20.9486 15.4618C21.8646 13.6952 22.2726 11.6943 22.1242 9.69559C22.0969 9.3201 22.1775 8.94465 22.3558 8.61635C22.5341 8.28805 22.8022 8.02154 23.1265 7.85026L24 7.38987V5.25213V5.25089Z" fill="white"/>
</svg>
