<svg width="25" height="26" viewBox="0 0 25 26" fill="none" xmlns="http://www.w3.org/2000/svg">
<path d="M16.204 1.64569C14.5702 2.57209 13.6029 4.24501 13.6029 6.00914C13.6029 6.93554 13.9883 7.86914 14.4708 8.70206C14.8562 9.44606 15.0452 10.7446 13.7 11.395C12.7401 11.9494 11.4843 11.5798 10.9099 10.651C10.3354 9.90698 9.66155 9.16298 8.79364 8.60846C7.1599 7.68206 5.23262 7.68206 3.59875 8.60846C1.96488 9.53486 1 11.212 1 12.9766C1 14.7412 1.95991 16.4135 3.59838 17.3424C5.23212 18.2688 7.1594 18.2688 8.79327 17.3424C9.66118 16.8768 10.3349 16.1376 10.8125 15.2999C11.198 14.6495 12.2573 13.8119 13.6026 14.5559C14.5625 15.1103 14.851 16.3224 14.3734 17.2488C13.8911 18.0864 13.6026 19.0154 13.6026 19.9418C13.6026 21.7083 14.5625 23.3787 16.2037 24.3052C17.8375 25.2316 19.7648 25.2316 21.3986 24.3052C23.0325 23.3788 24 21.7059 24 19.9418C24 18.1776 23.0376 16.5048 21.3989 15.5759C20.531 15.1103 19.5686 14.9255 18.5117 14.9255C17.6438 14.9255 16.4924 14.3711 16.4924 12.9766C16.4924 11.8606 17.3603 11.0277 18.5117 11.0277C19.4716 11.0277 20.531 10.8429 21.3989 10.3773C23.0326 9.45086 24 7.77794 24 6.01394C24 4.24993 23.0376 2.57701 21.3989 1.65049C20.6281 1.18489 19.668 1.00009 18.8005 1.00009C17.9376 0.995289 16.9702 1.18489 16.2044 1.64569" stroke="white" stroke-width="1.5"/>
</svg>
