<svg width="50" height="50" viewBox="0 0 50 50" fill="none" xmlns="http://www.w3.org/2000/svg">
<path d="M25 0C25 0 45 18.95 45 30C45 35.3043 42.8929 40.3914 39.1421 44.1421C35.3914 47.8929 30.3043 50 25 50C19.6957 50 14.6086 47.8929 10.8579 44.1421C7.10714 40.3914 5 35.3043 5 30C5 26.25 7.275 21.625 10.3 17.125C10.8061 18.8602 11.9218 20.3544 13.4419 21.3324C14.962 22.3104 16.7841 22.7066 18.5731 22.448C20.362 22.1894 21.9974 21.2934 23.1783 19.9249C24.3591 18.5564 25.0061 16.8075 25 15V0ZM20 0C18.0109 0 16.1032 0.790176 14.6967 2.1967C13.2902 3.60322 12.5 5.51088 12.5 7.5C12.5 9.48912 13.2902 11.3968 14.6967 12.8033C16.1032 14.2098 18.0109 15 20 15V0Z" fill="#222222"/>
</svg>
